<?xml version="1.0" encoding="UTF-8" standalone="no"?>
<svg
   height="48"
   width="48"
   version="1.1"
   id="svg14"
   sodipodi:docname="kdeconnect.svg"
   inkscape:version="1.3.2 (091e20ef0f, 2023-11-25)"
   xmlns:inkscape="http://www.inkscape.org/namespaces/inkscape"
   xmlns:sodipodi="http://sodipodi.sourceforge.net/DTD/sodipodi-0.dtd"
   xmlns:xlink="http://www.w3.org/1999/xlink"
   xmlns="http://www.w3.org/2000/svg"
   xmlns:svg="http://www.w3.org/2000/svg">
  <defs
     id="defs14" />
  <sodipodi:namedview
     id="namedview14"
     pagecolor="#ffffff"
     bordercolor="#000000"
     borderopacity="0.25"
     inkscape:showpageshadow="2"
     inkscape:pageopacity="0.0"
     inkscape:pagecheckerboard="0"
     inkscape:deskcolor="#d1d1d1"
     inkscape:zoom="7.9375"
     inkscape:cx="-2.9606299"
     inkscape:cy="40.944882"
     inkscape:window-width="1920"
     inkscape:window-height="994"
     inkscape:window-x="0"
     inkscape:window-y="0"
     inkscape:window-maximized="1"
     inkscape:current-layer="svg14" />
  <linearGradient
     id="a">
    <stop
       offset="0"
       id="stop1" />
    <stop
       offset="1"
       stop-opacity="0"
       id="stop2" />
  </linearGradient>
  <linearGradient
     id="b"
     gradientUnits="userSpaceOnUse"
     x1="16"
     x2="34.942"
     xlink:href="#a"
     y1="11"
     y2="29.942"
     gradientTransform="translate(0,-2.8003918)" />
  <linearGradient
     id="c"
     gradientTransform="rotate(45,3.3803723,-1.4001959)"
     gradientUnits="userSpaceOnUse"
     x1="31.021"
     x2="43.104"
     xlink:href="#a"
     y1="-9.896"
     y2="-9.896" />
  <linearGradient
     id="d"
     gradientUnits="userSpaceOnUse"
     x1="23.716"
     x2="26.348"
     xlink:href="#a"
     y1="13.219"
     y2="15.851"
     gradientTransform="translate(0,-2.8003918)" />
  <linearGradient
     id="e"
     gradientTransform="matrix(1.0454421 0 0 1.0298842 46.076843 3.856842)"
     gradientUnits="userSpaceOnUse"
     x1="-45.221867"
     x2=".691726"
     y1="-4.91011"
     y2="41.697075">
    <stop
       offset="0"
       stop-color="#2bc0ff"
       id="stop3" />
    <stop
       offset="1"
       stop-color="#1d99f3"
       id="stop4" />
  </linearGradient>
  <path
     d="m5.9999998-.00000914h36.0000012c3.600001 0 6.000001 2.40000654 6.000001 6.00000714v36c0 3.600002-2.4 6.000008-6.000001 6.000008h-36.0000012c-3.6000002 0-6.00000022-2.400006-6.00000022-6.000008v-36c0-3.6000006 2.40000002-6.00000714 6.00000022-6.00000714z"
     fill="url(#e)"
     transform="matrix(.83333329 0 0 .83333329 4 4.000002)"
     id="path4" />
  <path
     d="m 22.162109,15.92617 -2.193359,-2.193359 -2.304688,1.455078 -0.867187,1.992188 -6.75,6.75 4.607422,4.607422 -1.964844,1.748047 9.914063,9.914062 H 36.8125 C 39.686565,40.199608 42,37.919287 42,35.08828 33.503716,24.606199 24,13.199608 22.162109,15.92617 Z"
     fill="url(#b)"
     opacity="0.2"
     id="path9"
     style="fill:url(#b)" />
  <path
     d="m 36.970703,8.187889 -4.369141,1.177735 -4.519531,9.5 L 32,27.193749 43.285156,38.478905 C 43.737436,37.694705 44,36.788518 44,35.818749 V 15.217186 Z"
     fill="url(#c)"
     opacity="0.2"
     id="path10"
     style="fill:url(#c)" />
  <path
     d="m 26.000804,7.195 4.531314,4.531314 -3.142254,6.655326 -6.28785,-6.28785 z"
     fill="url(#d)"
     opacity="0.2"
     id="path11"
     style="fill:url(#d)" />
  <path
     d="m 15.208984,11.816796 c -0.123062,-0.0059 -0.241909,0.03097 -0.339843,0.128906 l -2.123047,2.123047 c -0.195869,0.195869 -0.195869,0.511162 0,0.707031 l 2.193359,3.445312 c -0.175549,0.354193 -0.327571,0.719568 -0.455078,1.09375 L 10.5,20.199608 c -0.277,0 -0.5,0.223 -0.5,0.5 v 3 c 0,0.277 0.229596,0.43991 0.5,0.5 l 3.986328,0.886719 c 0.12346,0.370523 0.270907,0.732616 0.441406,1.083984 l -2.197265,3.453125 c -0.148715,0.233695 -0.195869,0.511162 0,0.707031 l 2.121093,2.123047 c 0.19587,0.195869 0.511163,0.195869 0.707032,0 l 3.453125,-2.199218 c 0.357212,0.177942 0.725864,0.331927 1.103515,0.460937 L 21,34.699608 c 0,0.277 0.223,0.5 0.5,0.5 h 3 c 0.277,0 0.43991,-0.229596 0.5,-0.5 l 0.886719,-3.986328 c 0.376029,-0.125362 0.743365,-0.275428 1.099609,-0.449219 l 3.4375,2.189453 c 0.195869,0.195869 0.511162,0.195869 0.707031,0 l 2.123047,-2.123047 c 0.195869,-0.195869 0.148715,-0.473336 0,-0.707031 l -0.9375,-1.472656 -0.699218,0.279297 -2.240235,-3.359375 C 28.247974,27.581081 25.752561,29.196794 23,29.199608 c -3.865993,0 -7,-3.134007 -7,-7 0.0031,-2.700827 1.559779,-5.15891 4,-6.316406 v -2.152344 c -0.336475,0.11516 -0.665829,0.250162 -0.986328,0.404297 l -3.4375,-2.189453 c -0.116848,-0.07436 -0.244125,-0.123012 -0.367188,-0.128906 z"
     fill="#ffffff"
     id="path12" />
  <path
     d="M 26,7.1996082 21,7.662499 v 19.537109 l 5,-1 v -8 l 6,9 5,-2 L 30.5,16.785546 37.003906,8.199608 31.767578,7.1996082 26,15.699608 Z"
     fill="#ffffff"
     id="path13" />
  <path
     d="m4 38v1c0 3 2 5 5 5h30c3 0 5-2 5-5v-1c0 3-2 5-5 5h-30c-3 0-5-2-5-5z"
     opacity=".2"
     id="path14" />
  <rect
     style="fill:#ffffff;fill-opacity:1;stroke-width:1"
     width="5.0353241"
     height="5.053"
     x="20.48682"
     y="36.673"
     rx="1.0000001"
     ry="0.99999976"
     id="rect4" />
  <rect
     style="fill:#ffffff;fill-opacity:1;stroke-width:1"
     width="5.0353241"
     height="2.5265"
     x="29.298634"
     y="37.936222"
     rx="1.0000001"
     ry="0.99999976"
     id="rect5" />
  <rect
     style="fill:#ffffff;fill-opacity:1;stroke-width:1"
     width="5.0353241"
     height="2.5265"
     x="11.675"
     y="37.936222"
     rx="1.0000001"
     ry="0.99999976"
     id="rect6" />
</svg>
