<?xml version="1.0" encoding="UTF-8" standalone="no"?>
<svg
   width="48"
   height="48"
   version="1.1"
   id="svg3"
   sodipodi:docname="plugin.svg"
   inkscape:version="1.3.2 (091e20ef0f, 2023-11-25)"
   xmlns:inkscape="http://www.inkscape.org/namespaces/inkscape"
   xmlns:sodipodi="http://sodipodi.sourceforge.net/DTD/sodipodi-0.dtd"
   xmlns:xlink="http://www.w3.org/1999/xlink"
   xmlns="http://www.w3.org/2000/svg"
   xmlns:svg="http://www.w3.org/2000/svg">
  <sodipodi:namedview
     id="namedview3"
     pagecolor="#ffffff"
     bordercolor="#000000"
     borderopacity="0.25"
     inkscape:showpageshadow="2"
     inkscape:pageopacity="0.0"
     inkscape:pagecheckerboard="0"
     inkscape:deskcolor="#d1d1d1"
     inkscape:zoom="15.875"
     inkscape:cx="23.968504"
     inkscape:cy="29.03937"
     inkscape:window-width="1920"
     inkscape:window-height="994"
     inkscape:window-x="0"
     inkscape:window-y="0"
     inkscape:window-maximized="1"
     inkscape:current-layer="svg3" />
  <defs
     id="defs2">
    <linearGradient
       xlink:href="#1"
       id="0"
       y1="543.798"
       x2="0"
       y2="503.798"
       gradientUnits="userSpaceOnUse"
       gradientTransform="translate(-384.57144,-499.79799)" />
    <linearGradient
       id="1">
      <stop
         stop-color="#197cf1"
         id="stop1" />
      <stop
         offset="1"
         stop-color="#20bcfa"
         id="stop2" />
    </linearGradient>
  </defs>
  <rect
     width="40"
     height="40"
     x="3.9985774"
     y="4.0019879"
     fill="url(#0)"
     rx="20"
     id="rect2"
     style="fill:url(#0)" />
  <path
     d="M 4.0117188,23.5 C 4.007647,23.666859 4,23.832126 4,24 4,35.079992 12.920008,44 24,44 35.079992,44 44,35.079992 44,24 44,23.832126 43.9924,23.666859 43.98828,23.5 43.724099,34.346571 34.912435,43 24,43 13.087565,43 4.2759007,34.346571 4.0117188,23.5 Z"
     fill="#0c69cf"
     id="path2" />
  <path
     d="m 30.650357,11.325942 c -0.466455,-0.224703 -0.910706,-0.362139 -1.332749,-0.406704 -0.427587,-0.04447 -0.818149,-0.01552 -1.171706,0.08553 -0.353542,0.102131 -0.664525,0.269292 -0.934766,0.501429 -0.270254,0.232147 -0.484976,0.516293 -0.64602,0.850576 -0.10174,0.211722 -0.175886,0.408564 -0.223978,0.590566 -0.04993,0.187559 -0.08325,0.352859 -0.09987,0.495858 -0.01902,0.148481 -0.02398,0.273002 -0.01902,0.371444 0.0025,0.100235 0.001,0.18754 0.0088,0.228418 l 0.04431,0.443858 c 0.02223,0.206145 0,0.365861 -0.06489,0.477277 -0.06104,0.116999 -0.177667,0.183893 -0.349852,0.200585 -0.04074,0.0025 -0.08325,0.0025 -0.131448,0.001 -0.0463,-0.001 -0.08881,-0.0073 -0.125853,-0.01552 l -6.96904,-3.365152 -2.269373,4.730151 c -0.0073,0.03705 -0.01396,0.07987 -0.01552,0.128095 -0.0031,0.04648 -10e-4,0.091 0.001,0.129999 0.01702,0.172689 0.08325,0.289716 0.199917,0.350996 0.111086,0.065 0.270251,0.08732 0.475717,0.06691 l 0.44248,-0.04638 c 0.04074,-0.0052 0.127605,-0.0031 0.227675,-0.0088 0.0982,-0.0052 0.222129,10e-4 0.370207,0.02046 0.142621,0.01552 0.307275,0.04828 0.494233,0.09852 0.181441,0.04833 0.377609,0.124536 0.588629,0.22472 0.333184,0.161507 0.616396,0.377 0.847776,0.648144 0.231377,0.271135 0.397965,0.584989 0.499771,0.937847 0.09992,0.354716 0.129655,0.746576 0.08515,1.175577 -0.04631,0.423396 -0.181467,0.869113 -0.405384,1.337113 -0.225831,0.467996 -0.481278,0.859855 -0.770043,1.169994 -0.290607,0.304574 -0.599734,0.531152 -0.929217,0.676003 -0.329483,0.146658 -0.671925,0.21357 -1.02918,0.20057 -0.355399,-0.01214 -0.710799,-0.105884 -1.068048,-0.278571 -0.207318,-0.0985 -0.390571,-0.204284 -0.555313,-0.31757 -0.162915,-0.11156 -0.299865,-0.217286 -0.414633,-0.319432 -0.114621,-0.102039 -0.207317,-0.193109 -0.277656,-0.273 -0.0667,-0.08553 -0.09262,-0.141103 -0.112906,-0.18389 l -0.24215,-0.377052 c -0.111087,-0.174523 -0.227678,-0.285996 -0.347999,-0.332422 -0.11852,-0.052 -0.251734,-0.03147 -0.39798,0.06311 -0.03335,0.02052 -0.06847,0.04835 -0.103735,0.07989 -0.03521,0.03154 -0.06489,0.0613 -0.08883,0.091 l -3.338942,6.959635 6.967317,3.365152 c 0.03695,0.0075 0.07967,0.01432 0.127605,0.01514 0.0482,0.0032 0.09085,10e-4 0.131476,-10e-4 0.172084,-0.01667 0.288769,-0.08356 0.34985,-0.198693 0.06489,-0.113307 0.08697,-0.273004 0.06489,-0.47729 l -0.04431,-0.445772 c -0.0073,-0.04083 -0.0052,-0.128145 -0.01061,-0.228429 -0.0031,-0.09851 0.001,-0.222849 0.02041,-0.371424 0.01702,-0.14301 0.04993,-0.308285 0.09993,-0.495862 0.04816,-0.181995 0.122186,-0.378855 0.223974,-0.59057 0.159196,-0.334289 0.375762,-0.616577 0.646014,-0.850571 0.270265,-0.232149 0.58124,-0.399288 0.934788,-0.499574 0.351697,-0.102123 0.742268,-0.131847 1.171707,-0.08727 0.420183,0.04652 0.864431,0.181995 1.332742,0.40671 0.466458,0.226566 0.85519,0.482851 1.166164,0.772567 0.303563,0.291573 0.527542,0.603573 0.673772,0.934149 0.144387,0.328711 0.211018,0.674149 0.199918,1.030712 -0.01396,0.356573 -0.105553,0.714997 -0.27766,1.073437 -0.09993,0.206136 -0.205469,0.391855 -0.316522,0.555277 -0.1111,0.163471 -0.218425,0.300863 -0.320234,0.416004 -0.09994,0.115171 -0.190617,0.208004 -0.272104,0.278575 -0.08516,0.06683 -0.140602,0.09286 -0.183254,0.11516 l -0.375764,0.241425 c -0.172082,0.111467 -0.283214,0.228424 -0.331333,0.349142 -0.05192,0.118842 -0.02957,0.252567 0.06289,0.399282 0.02221,0.03352 0.04819,0.06874 0.07963,0.103999 0.03134,0.0352 0.06291,0.065 0.09084,0.091 l 4.683126,2.262001 3.34113,-6.958722 c 0.02403,-0.02975 0.0537,-0.05952 0.08885,-0.091 0.03699,-0.03153 0.07028,-0.05753 0.103808,-0.07986 0.146279,-0.09284 0.279507,-0.11515 0.397972,-0.0632 0.120371,0.04824 0.236929,0.15781 0.347993,0.33243 l 0.242486,0.377002 c 0.02037,0.04271 0.04629,0.09847 0.114678,0.183874 0.0685,0.07983 0.162881,0.172771 0.275812,0.272998 0.114704,0.102162 0.251733,0.207997 0.416489,0.321283 0.16288,0.111467 0.34798,0.217297 0.553443,0.317575 0.35725,0.170797 0.712657,0.265574 1.069907,0.276718 0.355401,0.01416 0.697841,-0.05388 1.027333,-0.198719 0.329482,-0.146704 0.638602,-0.37328 0.929214,-0.676002 0.288765,-0.311999 0.54421,-0.701997 0.770036,-1.17186 0.223975,-0.467999 0.3591,-0.913716 0.405382,-1.335286 0.04433,-0.43085 0.01648,-0.822714 -0.08517,-1.17557 -0.101782,-0.354405 -0.268434,-0.668255 -0.499824,-0.939401 -0.231372,-0.271136 -0.514579,-0.486564 -0.847772,-0.646285 -0.209168,-0.102112 -0.405379,-0.176475 -0.588633,-0.22472 -0.186982,-0.05007 -0.351696,-0.08344 -0.494223,-0.100316 -0.148139,-0.01898 -0.272098,-0.026 -0.370217,-0.02043 -0.09987,0.0052 -0.186982,0.0025 -0.225818,0.01062 l -0.444217,0.04433 c -0.205464,0.02051 -0.364652,-0.001 -0.475715,-0.065 -0.114657,-0.06127 -0.181445,-0.178311 -0.199914,-0.352855 -0.0032,-0.039 -0.0032,-0.08167 -10e-4,-0.129999 10e-4,-0.04833 0.0075,-0.091 0.01501,-0.128117 L 35.532159,19.949463 30.849031,17.6856 c -0.02774,-0.0241 -0.05731,-0.05388 -0.08884,-0.08909 -0.03135,-0.03533 -0.05924,-0.07047 -0.07963,-0.103998 -0.09442,-0.146658 -0.116706,-0.280437 -0.06293,-0.399287 0.04629,-0.120691 0.157274,-0.237713 0.329482,-0.34915 l 0.375857,-0.243283 c 0.04433,-0.02052 0.09812,-0.04654 0.185093,-0.113315 0.07964,-0.07047 0.170245,-0.163501 0.272109,-0.278586 0.09987,-0.1151 0.207315,-0.252562 0.318379,-0.415999 0.111099,-0.165278 0.216573,-0.349141 0.316527,-0.55714 0.172094,-0.35843 0.264692,-0.715 0.27765,-1.071561 0.01118,-0.358442 -0.05552,-0.702005 -0.199916,-1.032589 -0.146235,-0.330578 -0.370252,-0.640726 -0.673817,-0.932288 -0.310981,-0.289722 -0.699699,-0.546003 -1.16616,-0.772582 z"
     id="path22"
     style="isolation:isolate;fill:#ecf0f1;fill-opacity:1;stroke-width:1.99994" />
</svg>
