<?xml version="1.0" encoding="UTF-8" standalone="no"?>
<svg
   height="48"
   width="48"
   version="1"
   id="svg12"
   sodipodi:docname="rambox.svg"
   inkscape:version="1.4.1 (unknown)"
   xmlns:inkscape="http://www.inkscape.org/namespaces/inkscape"
   xmlns:sodipodi="http://sodipodi.sourceforge.net/DTD/sodipodi-0.dtd"
   xmlns:xlink="http://www.w3.org/1999/xlink"
   xmlns="http://www.w3.org/2000/svg"
   xmlns:svg="http://www.w3.org/2000/svg"
   xmlns:rdf="http://www.w3.org/1999/02/22-rdf-syntax-ns#"
   xmlns:cc="http://creativecommons.org/ns#"
   xmlns:dc="http://purl.org/dc/elements/1.1/">
  <metadata
     id="metadata18">
    <rdf:RDF>
      <cc:Work
         rdf:about="">
        <dc:format>image/svg+xml</dc:format>
        <dc:type
           rdf:resource="http://purl.org/dc/dcmitype/StillImage" />
      </cc:Work>
    </rdf:RDF>
  </metadata>
  <defs
     id="defs16">
    <linearGradient
       inkscape:collect="always"
       id="linearGradient851">
      <stop
         style="stop-color:#000000;stop-opacity:1;"
         offset="0"
         id="stop847" />
      <stop
         style="stop-color:#000000;stop-opacity:0;"
         offset="1"
         id="stop849" />
    </linearGradient>
    <linearGradient
       inkscape:collect="always"
       id="linearGradient832">
      <stop
         style="stop-color:#263382;stop-opacity:1"
         offset="0"
         id="stop828" />
      <stop
         style="stop-color:#28adc4;stop-opacity:1"
         offset="1"
         id="stop830" />
    </linearGradient>
    <linearGradient
       inkscape:collect="always"
       xlink:href="#linearGradient832"
       id="linearGradient834"
       x1="-44"
       y1="-24.002001"
       x2="-4"
       y2="-24.002001"
       gradientUnits="userSpaceOnUse" />
    <linearGradient
       inkscape:collect="always"
       xlink:href="#linearGradient851"
       id="linearGradient853"
       x1="12.894531"
       y1="27.5"
       x2="43.800781"
       y2="27.5"
       gradientUnits="userSpaceOnUse" />
  </defs>
  <sodipodi:namedview
     pagecolor="#ffffff"
     bordercolor="#666666"
     borderopacity="1"
     objecttolerance="10"
     gridtolerance="10"
     guidetolerance="10"
     inkscape:pageopacity="0"
     inkscape:pageshadow="2"
     inkscape:window-width="1920"
     inkscape:window-height="998"
     id="namedview14"
     showgrid="false"
     inkscape:zoom="9.95"
     inkscape:cx="3.4673367"
     inkscape:cy="15.276382"
     inkscape:window-x="0"
     inkscape:window-y="0"
     inkscape:window-maximized="1"
     inkscape:current-layer="svg12"
     inkscape:showpageshadow="2"
     inkscape:pagecheckerboard="0"
     inkscape:deskcolor="#d1d1d1" />
  <g
     id="g1"
     transform="matrix(1.05,0,0,1.05,-1.2,-1.2)">
    <rect
       transform="matrix(0,-1,-1,0,0,0)"
       rx="20"
       ry="19.997999"
       height="39.995998"
       width="40"
       y="-44"
       x="-44"
       fill="#5a4080"
       id="rect2"
       style="fill:url(#linearGradient834);fill-opacity:1" />
    <path
       style="opacity:0.3;vector-effect:none;fill:url(#linearGradient853);fill-opacity:1;stroke:none;stroke-width:2;stroke-linecap:round;stroke-linejoin:round;stroke-miterlimit:4;stroke-dasharray:none;stroke-dashoffset:0;stroke-opacity:1"
       d="M 24,11 21.628906,15.628906 19,13 12.894531,34.757812 21.328125,43.818359 C 22.203097,43.934391 23.09427,44 24.001953,44 34.129726,44 42.446388,36.544991 43.800781,26.800781 L 30,13 27.019531,14.019531 Z"
       id="rect836" />
    <path
       d="m 24,11 c -2.117,1.108 -3.042,3.112 -4,5 -0.609,-0.823 -0.764,-1.977 -1,-3 -1.871,2.464 -2.696,6.558 -3.449,9.021 -1.067,3.502 -2.425,5.651 -4.365,6.903 -1.153,0.744 -2.1869,1.125 -4.4204,1.631 -0.5641,0.168 -1.2666,0.325 -1.5117,0.381 0.6938,1.884 1.6619,3.634 2.8555,5.201 0.288,0.378 0.5886,0.745 0.9023,1.101 0.0351,0.04 0.072,0.078 0.1074,0.117 0.8819,0.986 1.8649,1.877 2.9259,2.67 0.127,0.095 0.25,0.194 0.379,0.286 0.296,0.21 0.601,0.409 0.908,0.603 0.172,0.108 0.346,0.213 0.522,0.316 0.3,0.178 0.601,0.352 0.912,0.514 0.205,0.107 0.417,0.201 0.627,0.301 0.485,0.232 0.981,0.444 1.488,0.637 0.29,0.11 0.58,0.221 0.877,0.318 0.268,0.088 0.541,0.164 0.814,0.24 0.297,0.083 0.595,0.159 0.897,0.229 0.361,0.083 0.721,0.169 1.09,0.232 1.011,0.175 2.048,0.274 3.107,0.291 h 0.008 C 23.783,43.994 23.89,44 24,44 c 0.298,0 0.594,-0.009 0.889,-0.021 1.163,-1.808 1.313,-4.632 0.923,-6.29 C 25.575,36.751 24.959,35.066 25,35 c 0.041,-0.066 1.045,0.035 1.9,0.035 1.01,0 1.751,0.037 2.286,-0.125 0.452,-0.137 0.993,-0.36 1.314,-0.344 1.427,0.072 3.234,-0.576 3.711,-1.845 0.148,-0.395 0.404,-0.903 0.568,-1.129 0.269,-0.371 0.278,-0.476 0.106,-1.059 C 34.641,29.709 34.144,29.025 33.092,28.064 32.295,27.337 32.04,27.262 32,26.482 31.971,25.91 32.125,25.509 31.814,25.217 31.463,24.885 30.427,25.098 30.369,25.092 30,24.662 29.648,24.214 30.328,23.594 c 0.514,-0.47 0.608,-0.646 0.608,-1.16 0,-0.506 -0.092,-0.686 -0.538,-1.077 -0.294,-0.258 -0.611,-0.468 -0.705,-0.468 -0.093,0 -0.567,-0.378 -1.05,-0.838 C 27.705,19.159 26.98,19 26.25,19 25.659,19 25,18.854 25,18 c 0.786,-2.845 3.821,-4.343 5,-5 -2.986,-0.423 -5.019,0.202 -7,2 -0.093,-1.045 0.889,-3.325 1,-4 z"
       fill="#7abccb"
       id="path6"
       style="fill:#f2f8fa;fill-opacity:1" />
    <path
       d="M 4.0117,23.5 C 4.0076,23.667 4,23.832 4,24 4,35.08 12.92,44 24,44 35.08,44 44,35.08 44,24 44,23.832 43.992,23.667 43.988,23.5 43.724,34.346 34.912,43 24,43 13.088,43 4.276,34.346 4.012,23.5 Z"
       id="path10"
       inkscape:connector-curvature="0"
       style="opacity:0.2" />
  </g>
</svg>
