<?xml version="1.0" encoding="UTF-8" standalone="no"?>
<svg
   width="16"
   height="16"
   version="1.1"
   viewBox="0 0 16 16"
   id="svg1"
   sodipodi:docname="folder-steam.svg"
   inkscape:version="1.4.2 (unknown)"
   xmlns:inkscape="http://www.inkscape.org/namespaces/inkscape"
   xmlns:sodipodi="http://sodipodi.sourceforge.net/DTD/sodipodi-0.dtd"
   xmlns="http://www.w3.org/2000/svg"
   xmlns:svg="http://www.w3.org/2000/svg">
  <sodipodi:namedview
     id="namedview1"
     pagecolor="#ffffff"
     bordercolor="#000000"
     borderopacity="0.25"
     inkscape:showpageshadow="2"
     inkscape:pageopacity="0.0"
     inkscape:pagecheckerboard="0"
     inkscape:deskcolor="#d1d1d1"
     inkscape:zoom="48"
     inkscape:cx="7.9895833"
     inkscape:cy="9.6666667"
     inkscape:current-layer="svg1" />
  <defs
     id="defs1">
    <style
       id="current-color-scheme"
       type="text/css">.ColorScheme-Text { color:#dedede; }</style>
  </defs>
  <g
     transform="matrix(.26667 0 0 .26667 5.1951 5.0239)"
     style="fill:currentColor"
     class="ColorScheme-Text"
     id="g1">
    <path
       style="fill:currentColor"
       class="ColorScheme-Text"
       d="M 10.518242,-11.339484 A 22.499715,22.499715 0 0 0 -11.981475,11.160232 22.499715,22.499715 0 0 0 10.518242,33.659954 22.499715,22.499715 0 0 0 33.017963,11.160232 22.499715,22.499715 0 0 0 10.518242,-11.339484 Z m -0.263669,2.8124675 a 19.687251,19.687251 0 0 1 0.263669,0 A 19.687251,19.687251 0 0 1 30.205496,11.160232 19.687251,19.687251 0 0 1 10.518242,30.847487 19.687251,19.687251 0 0 1 2.5972164,29.18307 c 0.2947744,-0.396218 0.5654461,-0.819975 0.763528,-1.29638 0.3424737,-0.827256 0.5009842,-1.693972 0.4778938,-2.559789 l 7.8442448,-5.608338 c 0.06349,0.0022 0.12877,0.0061 0.192259,0.0061 4.696251,0 8.514173,-3.828889 8.514173,-8.530768 0,-4.7021596 -3.817639,-8.5251427 -8.514173,-8.5251427 -4.6945673,0 -8.5088317,3.8232644 -8.5088317,8.5251427 0,0.0377 -0.00199,0.07446 0,0.10986 l -5.4820562,7.970338 c -0.8884576,-0.04042 -1.7802896,0.113173 -2.6256896,0.461413 -0.372678,0.151987 -0.721508,0.339326 -1.049187,0.554816 l -1.428201,-0.587828 A 19.687251,19.687251 0 0 1 -9.1688715,11.16055 19.687251,19.687251 0 0 1 10.254571,-8.5267045 Z m 1.62046,14.040384 c 3.128305,0 5.67977,2.5486271 5.67977,5.6797715 0,3.133647 -2.551465,5.685399 -5.67977,5.685399 -3.1263377,0 -5.6688056,-2.551639 -5.6688056,-5.685399 0,-3.1311162 2.5425243,-5.6797715 5.6688056,-5.6797715 z m 0.011,1.400748 c -2.3510801,0 -4.257228,1.9107039 -4.257228,4.2681945 0,2.357608 1.9060916,4.268198 4.257228,4.268198 2.353023,0 4.262573,-1.910537 4.262573,-4.268198 0,-2.3574342 -1.909691,-4.2681945 -4.262573,-4.2681945 z M -2.3245125,20.690692 c 0.5990833,0.0049 1.2036789,0.123691 1.79075272,0.36804 1.1838226,0.492546 2.10597348,1.418552 2.59275488,2.603722 0.4867533,1.185175 0.4815501,2.493533 -0.010995,3.674765 -0.1897513,0.455538 -0.4575316,0.849589 -0.7580437,1.208487 A 19.687251,19.687251 0 0 1 0.04850632,27.831595 c 0.2655078,-0.292015 0.487878,-0.630751 0.6481886,-1.016225 0.75112498,-1.802734 -0.1001435,-3.874735 -1.90060742,-4.625103 l -2.867309,-1.186519 c 0.552763,-0.209726 1.147711,-0.318007 1.7467946,-0.313113 z"
       stroke-width="0.9375"
       id="path1" />
  </g>
</svg>
