<?xml version="1.0" encoding="UTF-8" standalone="no"?>
<svg
   viewBox="0 0 16 16"
   version="1.1"
   id="svg1"
   sodipodi:docname="folder-print.svg"
   inkscape:version="1.3.2 (091e20ef0f, 2023-11-25)"
   xmlns:inkscape="http://www.inkscape.org/namespaces/inkscape"
   xmlns:sodipodi="http://sodipodi.sourceforge.net/DTD/sodipodi-0.dtd"
   xmlns="http://www.w3.org/2000/svg"
   xmlns:svg="http://www.w3.org/2000/svg">
  <sodipodi:namedview
     id="namedview1"
     pagecolor="#ffffff"
     bordercolor="#999999"
     borderopacity="1"
     inkscape:showpageshadow="2"
     inkscape:pageopacity="0"
     inkscape:pagecheckerboard="0"
     inkscape:deskcolor="#d1d1d1"
     inkscape:zoom="47.75"
     inkscape:cx="8"
     inkscape:cy="8"
     inkscape:window-width="1920"
     inkscape:window-height="996"
     inkscape:window-x="0"
     inkscape:window-y="0"
     inkscape:window-maximized="1"
     inkscape:current-layer="svg1" />
  <defs
     id="defs3051">
    <style
       type="text/css"
       id="current-color-scheme">.ColorScheme-Text {color:#fcfcfc;}</style>
  </defs>
  <path
     style="fill:#000000"
     d="m 3,2 v 1 3 c 0,0 -1,0 -1,1 0,1 0,3 0,4 0,1 1,1 1,1 h 2 v 1 1 h 6 v -1 -1 h 2 c 0,0 1,0 1,-1 0,-1 0,-3 0,-4 C 14,6 13,6 13,6 V 3 2 Z m 1,1 h 8 V 6 H 11 V 5 H 5 V 6 H 4 Z m 1,0 v 1 h 6 V 3 Z M 3,8 C 3,7 4,7 4,7 h 8 c 0,0 1,0 1,1 0,1 0,1 0,2 0,1 -1,1 -1,1 V 10 H 4 v 1 C 4,11 3,11 3,10 3,9 3,9 3,8 Z m 7,0 v 1 h 2 V 8 Z m -4,4 h 4 v 1 H 6 Z"
     class="ColorScheme-Text"
     id="path1" />
</svg>
