<?xml version="1.0" encoding="UTF-8" standalone="no"?>
<svg
   width="48"
   height="48"
   x="0"
   y="0"
   version="1.1"
   xml:space="preserve"
   id="svg18"
   sodipodi:docname="gbrainy.svg"
   inkscape:version="1.4.1 (unknown)"
   xmlns:inkscape="http://www.inkscape.org/namespaces/inkscape"
   xmlns:sodipodi="http://sodipodi.sourceforge.net/DTD/sodipodi-0.dtd"
   xmlns:xlink="http://www.w3.org/1999/xlink"
   xmlns="http://www.w3.org/2000/svg"
   xmlns:svg="http://www.w3.org/2000/svg"
   xmlns:rdf="http://www.w3.org/1999/02/22-rdf-syntax-ns#"
   xmlns:cc="http://creativecommons.org/ns#"
   xmlns:dc="http://purl.org/dc/elements/1.1/"><metadata
   id="metadata24"><rdf:RDF><cc:Work
       rdf:about=""><dc:format>image/svg+xml</dc:format><dc:type
         rdf:resource="http://purl.org/dc/dcmitype/StillImage" /></cc:Work></rdf:RDF></metadata><defs
   id="defs22"><linearGradient
     inkscape:collect="always"
     id="linearGradient863"><stop
       style="stop-color:#ffffff;stop-opacity:1;"
       offset="0"
       id="stop859" /><stop
       style="stop-color:#ffffff;stop-opacity:0;"
       offset="1"
       id="stop861" /></linearGradient><linearGradient
     inkscape:collect="always"
     id="linearGradient855"><stop
       style="stop-color:#000000;stop-opacity:1;"
       offset="0"
       id="stop851" /><stop
       style="stop-color:#000000;stop-opacity:0;"
       offset="1"
       id="stop853" /></linearGradient><linearGradient
     inkscape:collect="always"
     id="linearGradient839"><stop
       style="stop-color:#386fbd;stop-opacity:1"
       offset="0"
       id="stop835" /><stop
       style="stop-color:#52b3dd;stop-opacity:1"
       offset="1"
       id="stop837" /></linearGradient><linearGradient
     inkscape:collect="always"
     xlink:href="#linearGradient839"
     id="linearGradient841"
     x1="33.868271"
     y1="42.732262"
     x2="26.578997"
     y2="7.065279"
     gradientUnits="userSpaceOnUse" /><linearGradient
     inkscape:collect="always"
     xlink:href="#linearGradient855"
     id="linearGradient857"
     x1="19.45768"
     y1="9.4814615"
     x2="41.37141"
     y2="31.395193"
     gradientUnits="userSpaceOnUse" /><linearGradient
     inkscape:collect="always"
     xlink:href="#linearGradient863"
     id="linearGradient865"
     x1="19.389496"
     y1="3.4589028"
     x2="35.41156"
     y2="31.209932"
     gradientUnits="userSpaceOnUse" /></defs><sodipodi:namedview
   pagecolor="#ffffff"
   bordercolor="#666666"
   borderopacity="1"
   objecttolerance="10"
   gridtolerance="10"
   guidetolerance="10"
   inkscape:pageopacity="0"
   inkscape:pageshadow="2"
   inkscape:window-width="1920"
   inkscape:window-height="998"
   id="namedview20"
   showgrid="false"
   inkscape:zoom="14.94"
   inkscape:cx="21.854083"
   inkscape:cy="27.108434"
   inkscape:window-x="0"
   inkscape:window-y="0"
   inkscape:window-maximized="1"
   inkscape:current-layer="svg18"
   inkscape:showpageshadow="2"
   inkscape:pagecheckerboard="0"
   inkscape:deskcolor="#d1d1d1" />
 
 
 
 
 
 
 
 
<g
   id="g1"
   transform="matrix(1.05,0,0,1.05,-1.724882,-1.2)"><path
     style="fill:url(#linearGradient841);fill-opacity:1"
     d="m 26,4 a 16,16 0 0 0 -16,16 16,16 0 0 0 0.232422,2.71875 c -0.04591,0.106938 -0.07666,0.220666 -0.109375,0.333984 L 9.9179688,23.408203 7.2675781,28 A 2.0002,2.0002 0 0 0 9,31 h 1 v 5.158203 C 10,37.732671 11.267329,39 12.841797,39 H 18 v 2.158203 C 18,42.732671 19.267329,44 20.841797,44 H 33.158203 C 34.732671,44 36,42.732671 36,41.158203 V 32.484375 A 16,16 0 0 0 42,20 16,16 0 0 0 26,4 Z"
     id="circle4" /><path
     style="opacity:0.25;fill:url(#linearGradient857);fill-opacity:1;stroke:none;stroke-width:1.34044;stroke-linecap:round;stroke-linejoin:round;stroke-miterlimit:4;stroke-dasharray:none;stroke-dashoffset:0;stroke-opacity:1;paint-order:normal"
     d="M 34.083984,11.078125 C 36.51877,13.331189 37.996652,16.556655 38,20 c -0.04832,0.992902 -0.375993,1.509221 -1.363281,1.988281 -0.291788,0.252418 -0.507487,0.55953 -0.507813,0.982422 -0.002,2.607926 -1.018732,4.029627 -4.214844,3.998047 -1.101664,-0.01088 -0.904837,0.04925 -0.904296,0.132812 5.33e-4,0.08356 0.233809,0.331452 0.517578,0.796876 0.678386,1.112655 0.650724,1.464718 -0.142578,1.826171 -1.038581,0.473209 -1.409619,0.361934 -1.78711,-0.539062 -0.19356,-0.461989 -0.663299,-1.130953 -1.044922,-1.486328 -0.891206,-0.829916 -1.718512,-2.739277 -1.519531,-3.257813 0.130327,-0.339634 -0.11316,-0.402344 -1.560547,-0.402344 -2.710916,0 -4.5,-0.845185 -4.5,-2.330078 0,-0.677725 -0.07383,-0.728515 -1.017578,-0.728515 -1.326423,0 -2.70522,-0.534145 -3.689453,-1.455078 L 36,39.259766 V 32.484375 A 16,16 0 0 0 42,20 16,16 0 0 0 41.945312,18.912109 l -7.833984,-7.833984 z m -18.160156,8.083984 -0.01367,0.0078 0.167969,0.167969 c -0.05404,-0.05649 -0.103235,-0.116723 -0.154297,-0.175782 z"
     id="rect843" /><path
     style="fill:url(#linearGradient865);fill-opacity:1"
     d="m 26.722656,8.0464512 c -0.318883,-0.010051 -0.641227,-0.00769 -0.96289,0.00391 -1.824965,0.065782 -3.670683,0.4796859 -5.291016,1.2050782 -1.674058,0.8720656 -3.118783,2.1267476 -4.216797,3.6621096 -1.169434,1.852561 -1.628255,4.0367 -0.902344,5.426205 0.856905,1.640248 2.783431,2.636719 4.604602,2.636719 0.943748,0 1.017578,0.05079 1.017578,0.728515 0,1.484893 1.789951,2.33084 4.500867,2.33084 1.447387,0 1.690874,0.06271 1.560547,0.402344 -0.198981,0.518536 0.628325,2.427135 1.519531,3.257051 0.381623,0.355375 0.851362,1.024339 1.044922,1.486328 0.377491,0.900996 0.748529,1.012271 1.78711,0.539062 0.793302,-0.361453 0.820964,-0.713515 0.142578,-1.826171 -0.283769,-0.465424 -0.517045,-0.712481 -0.517578,-0.796036 -5.41e-4,-0.08356 -0.197369,-0.143691 0.904296,-0.132812 3.196112,0.03158 4.212794,-1.390961 4.214827,-3.998887 3.26e-4,-0.422892 0.216434,-0.730397 0.508222,-0.982815 C 37.624399,21.508832 37.951677,20.992902 38,20 37.994997,14.85436 34.709927,10.184615 29.833984,8.5405918 29.720468,8.5072587 29.611493,8.4682236 29.496094,8.4370762 28.61593,8.2060545 27.679305,8.0766054 26.722656,8.0464512 Z"
     id="path14" /><path
     style="opacity:0.2;fill:#000000;fill-opacity:1"
     d="M 10.021484,19.419922 A 16,16 0 0 0 10,20 a 16,16 0 0 0 0.136719,2.011719 c 0.02849,-0.09937 0.05544,-0.199186 0.0957,-0.292969 a 16,16 0 0 1 -0.210938,-2.298828 z m 31.955078,0.09375 A 16,16 0 0 1 36,31.484375 v 1 A 16,16 0 0 0 42,20 16,16 0 0 0 41.976562,19.513672 Z M 7.0644531,28.498047 A 2.0002,2.0002 0 0 0 9,31 h 1 V 30 H 9 A 2.0002,2.0002 0 0 1 7.0644531,28.498047 Z M 10,35.158203 v 1 C 10,37.732671 11.267329,39 12.841797,39 H 18 V 38 H 12.841797 C 11.267329,38 10,36.732671 10,35.158203 Z m 8,5 v 1 C 18,42.732671 19.267329,44 20.841797,44 H 33.158203 C 34.732671,44 36,42.732671 36,41.158203 v -1 C 36,41.732671 34.732671,43 33.158203,43 H 20.841797 C 19.267329,43 18,41.732671 18,40.158203 Z"
     id="path870" /></g></svg>
