<?xml version="1.0" encoding="UTF-8" standalone="no"?>
<svg
   width="48"
   version="1.1"
   height="48"
   id="svg14"
   sodipodi:docname="gnome-ppp.svg"
   inkscape:version="1.4.1 (unknown)"
   xmlns:inkscape="http://www.inkscape.org/namespaces/inkscape"
   xmlns:sodipodi="http://sodipodi.sourceforge.net/DTD/sodipodi-0.dtd"
   xmlns:xlink="http://www.w3.org/1999/xlink"
   xmlns="http://www.w3.org/2000/svg"
   xmlns:svg="http://www.w3.org/2000/svg"
   xmlns:rdf="http://www.w3.org/1999/02/22-rdf-syntax-ns#"
   xmlns:cc="http://creativecommons.org/ns#"
   xmlns:dc="http://purl.org/dc/elements/1.1/">
  <metadata
     id="metadata20">
    <rdf:RDF>
      <cc:Work
         rdf:about="">
        <dc:format>image/svg+xml</dc:format>
        <dc:type
           rdf:resource="http://purl.org/dc/dcmitype/StillImage" />
      </cc:Work>
    </rdf:RDF>
  </metadata>
  <defs
     id="defs18">
    <linearGradient
       inkscape:collect="always"
       id="linearGradient978">
      <stop
         style="stop-color:#ffffff;stop-opacity:1;"
         offset="0"
         id="stop974" />
      <stop
         style="stop-color:#ffffff;stop-opacity:0;"
         offset="1"
         id="stop976" />
    </linearGradient>
    <linearGradient
       inkscape:collect="always"
       id="linearGradient929">
      <stop
         style="stop-color:#000000;stop-opacity:1;"
         offset="0"
         id="stop925" />
      <stop
         style="stop-color:#000000;stop-opacity:0;"
         offset="1"
         id="stop927" />
    </linearGradient>
    <linearGradient
       inkscape:collect="always"
       id="linearGradient895">
      <stop
         style="stop-color:#ab1f15;stop-opacity:1;"
         offset="0"
         id="stop891" />
      <stop
         style="stop-color:#e95348;stop-opacity:1"
         offset="1"
         id="stop893" />
    </linearGradient>
    <linearGradient
       inkscape:collect="always"
       xlink:href="#linearGradient895"
       id="linearGradient897"
       x1="25"
       y1="19"
       x2="25"
       y2="10"
       gradientUnits="userSpaceOnUse"
       gradientTransform="matrix(1.1851854,0,0,1.1851854,-0.74074078,-1.6666672)" />
    <linearGradient
       inkscape:collect="always"
       xlink:href="#linearGradient895"
       id="linearGradient905"
       x1="25"
       y1="36"
       x2="25"
       y2="15.344684"
       gradientUnits="userSpaceOnUse"
       gradientTransform="matrix(1.1851854,0,0,1.1851854,-0.74074078,-1.6666672)" />
    <linearGradient
       inkscape:collect="always"
       xlink:href="#linearGradient929"
       id="linearGradient931"
       x1="23.024803"
       y1="26.205368"
       x2="33.318928"
       y2="36.499493"
       gradientUnits="userSpaceOnUse"
       gradientTransform="matrix(1.1851854,0,0,1.1851854,-0.74074078,-1.6666672)" />
    <linearGradient
       inkscape:collect="always"
       xlink:href="#linearGradient978"
       id="linearGradient980"
       x1="23.327246"
       y1="20.505835"
       x2="26.905125"
       y2="34.153728"
       gradientUnits="userSpaceOnUse"
       gradientTransform="matrix(1.1851854,0,0,1.1851854,-0.74074078,-1.6666672)" />
  </defs>
  <sodipodi:namedview
     pagecolor="#ffffff"
     bordercolor="#666666"
     borderopacity="1"
     objecttolerance="10"
     gridtolerance="10"
     guidetolerance="10"
     inkscape:pageopacity="0"
     inkscape:pageshadow="2"
     inkscape:window-width="1920"
     inkscape:window-height="998"
     id="namedview16"
     showgrid="false"
     showguides="false"
     inkscape:zoom="9.855"
     inkscape:cx="24.150178"
     inkscape:cy="23.033993"
     inkscape:window-x="0"
     inkscape:window-y="0"
     inkscape:window-maximized="1"
     inkscape:current-layer="svg14"
     inkscape:snap-bbox="true"
     inkscape:snap-bbox-midpoints="true"
     inkscape:showpageshadow="2"
     inkscape:pagecheckerboard="0"
     inkscape:deskcolor="#d1d1d1">
    <inkscape:grid
       type="xygrid"
       id="grid853"
       originx="0"
       originy="0"
       spacingy="1"
       spacingx="1"
       units="px"
       visible="false" />
  </sodipodi:namedview>
  <g
     id="g1"
     transform="matrix(1.0124999,0,0,1.0124999,-4.0499975,-0.62138067)">
    <path
       style="opacity:1;fill:url(#linearGradient905);fill-opacity:1;stroke:none;stroke-width:2.36193;stroke-linecap:round;stroke-linejoin:round;stroke-miterlimit:4;stroke-dasharray:none;stroke-dashoffset:0;stroke-opacity:1;paint-order:normal"
       d="m 20.770831,14.099539 -3.050924,0.182867 c 0,0 0.922486,4.570536 0.141205,6.643519 -0.990935,2.62927 -4.368947,3.736695 -5.69676,6.212963 C 9.915274,31.333247 8.740741,41 8.740741,41 H 27.703705 46.66667 c 0,0 -1.174536,-9.666753 -3.423617,-13.861112 -1.327813,-2.476268 -4.705825,-3.583693 -5.696755,-6.212963 -0.781281,-2.072983 0.141205,-6.643519 0.141205,-6.643519 l -3.050929,-0.182867 a 7.111111,7.111111 0 0 1 -6.932869,5.567131 7.111111,7.111111 0 0 1 -6.932874,-5.567131 z"
       id="rect847" />
    <path
       style="opacity:0.2;fill:#000000;fill-opacity:1;stroke:none;stroke-width:2.36193;stroke-linecap:round;stroke-linejoin:round;stroke-miterlimit:4;stroke-dasharray:none;stroke-dashoffset:0;stroke-opacity:1;paint-order:normal"
       d="m 17.907405,14.270836 -0.187498,0.01125 c 0,0 0.362139,1.797937 0.439814,3.650464 0.05459,-1.29671 -0.10756,-2.686894 -0.252316,-3.662032 z m 19.592596,0 c -0.144795,0.975145 -0.306884,2.365325 -0.252317,3.662033 0.07769,-1.852526 0.439819,-3.650463 0.439819,-3.650463 z M 8.9050929,39.814815 C 8.8227531,40.397404 8.740741,41 8.740741,41 H 27.703705 46.66667 c 0,0 -0.08199,-0.602596 -0.164357,-1.185185 H 27.703705 Z"
       id="path907" />
    <path
       style="fill:url(#linearGradient897);fill-opacity:1;stroke-width:2.37035"
       d="M 27.703705,9 C 11.11111,9 4,13.74074 4,18.48148 c 0,4.740745 2.3703705,7.11111 2.3703705,7.11111 l 9.4814795,-4.74074 2.370375,-4.74074 c 0,0 2.370365,-2.37037 9.48148,-2.37037 7.11111,0 9.48148,2.37037 9.48148,2.37037 l 2.37037,4.74074 9.48148,4.74074 c 0,0 2.370375,-2.370365 2.370375,-7.11111 C 51.40741,13.74074 44.296295,9 27.703705,9 Z"
       id="path845" />
    <path
       style="opacity:0.2;fill:#000000;fill-opacity:1;stroke-width:2.37035"
       d="m 27.703705,12.555555 c -7.111115,0 -9.48148,2.37037 -9.48148,2.37037 L 15.85185,19.66667 6.3703705,24.40741 c 0,0 -2.0979672,-2.14934 -2.3263886,-6.393521 C 4.0285233,18.169591 4,18.325611 4,18.48148 c 0,4.740745 2.3703705,7.11111 2.3703705,7.11111 l 9.4814795,-4.74074 2.370375,-4.74074 c 0,0 2.370365,-2.37037 9.48148,-2.37037 7.11111,0 9.48148,2.37037 9.48148,2.37037 l 2.37037,4.74074 9.48148,4.74074 c 0,0 2.370375,-2.370365 2.370375,-7.11111 0,-0.155869 -0.02852,-0.311889 -0.04396,-0.467591 -0.228421,4.244181 -2.326389,6.393521 -2.326389,6.393521 l -9.4815,-4.74074 -2.37037,-4.740745 c 0,0 -2.37037,-2.37037 -9.48148,-2.37037 z"
       id="path909" />
    <path
       style="opacity:0.3;fill:url(#linearGradient931);fill-opacity:1;stroke:none;stroke-width:2.37035;stroke-linecap:round;stroke-linejoin:round;stroke-miterlimit:4;stroke-dasharray:none;stroke-dashoffset:0;stroke-opacity:1;paint-order:normal"
       d="m 32.523146,25.104166 0.0049,0.01622 a 7.111111,7.111111 0 0 1 0.173618,0.162034 z m 0.333335,0.333335 a 7.111111,7.111111 0 0 1 1.958334,4.895829 7.111111,7.111111 0 0 1 -7.11111,7.111115 7.111111,7.111111 0 0 1 -4.997687,-2.060186 L 28.321759,41 H 46.66667 c 0,0 -0.114893,-0.857632 -0.298613,-2.050929 z"
       id="rect917" />
    <path
       style="opacity:1;fill:url(#linearGradient980);fill-opacity:1;stroke:none;stroke-width:4.1056;stroke-linecap:round;stroke-linejoin:round;stroke-miterlimit:4;stroke-dasharray:none;stroke-dashoffset:0;stroke-opacity:1;paint-order:normal"
       d="m 27.703705,23.222225 a 7.111111,7.111111 0 0 0 -7.111115,7.111105 7.111111,7.111111 0 0 0 7.111115,7.111115 7.111111,7.111111 0 0 0 7.11111,-7.111115 7.111111,7.111111 0 0 0 -7.11111,-7.111105 z m 0,1.185185 a 1.185185,1.185185 0 0 1 1.185185,1.18518 1.185185,1.185185 0 0 1 -1.185185,1.185185 1.185185,1.185185 0 0 1 -1.185185,-1.185185 1.185185,1.185185 0 0 1 1.185185,-1.18518 z M 24.33333,25.7963 a 1.185185,1.185185 0 0 1 0.856486,0.347219 1.185185,1.185185 0 0 1 0,1.675922 1.185185,1.185185 0 0 1 -1.675927,0 1.185185,1.185185 0 0 1 0,-1.675922 1.185185,1.185185 0 0 1 0.819441,-0.347219 z m 6.740745,0 a 1.185185,1.185185 0 0 1 0.819446,0.347219 1.185185,1.185185 0 0 1 0,1.675922 1.185185,1.185185 0 0 1 -1.675927,0 1.185185,1.185185 0 0 1 0,-1.675922 1.185185,1.185185 0 0 1 0.856481,-0.347219 z m -3.37037,2.166665 a 2.3703705,2.3703705 0 0 1 2.37037,2.370365 2.3703705,2.3703705 0 0 1 -2.37037,2.370375 2.3703705,2.3703705 0 0 1 -2.370375,-2.370375 2.3703705,2.3703705 0 0 1 2.370375,-2.370365 z m -4.74074,1.185185 a 1.185185,1.185185 0 0 1 1.185185,1.18518 1.185185,1.185185 0 0 1 -1.185185,1.18519 1.185185,1.185185 0 0 1 -1.18519,-1.18519 1.185185,1.185185 0 0 1 1.18519,-1.18518 z m 9.48148,0 a 1.185185,1.185185 0 0 1 1.185185,1.18518 1.185185,1.185185 0 0 1 -1.185185,1.18519 1.185185,1.185185 0 0 1 -1.185185,-1.18519 1.185185,1.185185 0 0 1 1.185185,-1.18518 z m -8.076388,3.351851 a 1.185185,1.185185 0 0 1 0.821759,0.347218 1.185185,1.185185 0 0 1 0,1.675927 1.185185,1.185185 0 0 1 -1.675927,0 1.185185,1.185185 0 0 1 0,-1.675927 1.185185,1.185185 0 0 1 0.854168,-0.347218 z m 6.671296,0 a 1.185185,1.185185 0 0 1 0.854168,0.347218 1.185185,1.185185 0 0 1 0,1.675927 1.185185,1.185185 0 0 1 -1.675927,0 1.185185,1.185185 0 0 1 0,-1.675927 1.185185,1.185185 0 0 1 0.821759,-0.347218 z m -3.335648,1.388889 a 1.185185,1.185185 0 0 1 1.185185,1.185185 1.185185,1.185185 0 0 1 -1.185185,1.185185 1.185185,1.185185 0 0 1 -1.185185,-1.185185 1.185185,1.185185 0 0 1 1.185185,-1.185185 z"
       id="path959" />
  </g>
</svg>
