<?xml version="1.0" encoding="UTF-8" standalone="no"?>
<svg
   width="22"
   height="22"
   version="1.1"
   id="svg5"
   sodipodi:docname="kbibtex.svg"
   inkscape:version="1.3.2 (091e20ef0f, 2023-11-25)"
   xmlns:inkscape="http://www.inkscape.org/namespaces/inkscape"
   xmlns:sodipodi="http://sodipodi.sourceforge.net/DTD/sodipodi-0.dtd"
   xmlns="http://www.w3.org/2000/svg"
   xmlns:svg="http://www.w3.org/2000/svg">
  <defs
     id="defs5" />
  <sodipodi:namedview
     id="namedview5"
     pagecolor="#ffffff"
     bordercolor="#000000"
     borderopacity="0.25"
     inkscape:showpageshadow="2"
     inkscape:pageopacity="0.0"
     inkscape:pagecheckerboard="0"
     inkscape:deskcolor="#d1d1d1"
     inkscape:zoom="24.491608"
     inkscape:cx="16.025898"
     inkscape:cy="14.800988"
     inkscape:window-width="1920"
     inkscape:window-height="994"
     inkscape:window-x="0"
     inkscape:window-y="0"
     inkscape:window-maximized="1"
     inkscape:current-layer="svg5" />
  <rect
     style="opacity:0.2;stroke-width:0.90244"
     width="14.439026"
     height="18.048782"
     x="3.7804899"
     y="2.3173614"
     rx="0.90243912"
     ry="0.90243912"
     id="rect1" />
  <rect
     style="fill:#57a27f;stroke-width:0.90244"
     width="14.439026"
     height="18.048782"
     x="3.7804899"
     y="1.8661417"
     rx="0.90243912"
     ry="0.90243912"
     id="rect2" />
  <path
     style="opacity:0.2;stroke-width:0.90244"
     d="m 4.6829293,1.8661417 c -0.4999513,0 -0.9024393,0.402488 -0.9024393,0.9024393 v 16.243901 c 0,0.499954 0.402488,0.90244 0.9024393,0.90244 H 6.4878074 V 1.8661417 Z"
     id="path2" />
  <path
     style="opacity:0.2;fill:#ffffff;stroke-width:0.90244"
     d="m 4.6829293,1.8661417 c -0.4999513,0 -0.9024393,0.402488 -0.9024393,0.9024393 v 0.4512193 c 0,-0.4999512 0.402488,-0.9024389 0.9024393,-0.9024389 H 17.317076 c 0.499954,0 0.902434,0.4024877 0.902434,0.9024389 V 2.768581 c 0,-0.4999513 -0.40248,-0.9024393 -0.902434,-0.9024393 z"
     id="path3" />
  <path
     style="opacity:0.2;stroke-width:0.90244"
     d="m 10.097563,6.8295563 v 3.1585368 l 3.00813,-3.1585368 2.406503,0.4060974 -4.156686,4.1060963 4.156686,4.060978 -2.406503,0.451219 -3.00813,-3.158539 v 2.70732 L 8.2926854,15.853947 V 7.2356537 Z"
     id="path4" />
  <path
     style="fill:#ffffff;stroke-width:0.90244"
     d="m 10.097563,6.3783371 v 3.1585366 l 3.00813,-3.1585366 2.406503,0.4060972 -4.156686,4.1061007 4.156686,4.060973 -2.406503,0.45122 -3.00813,-3.15854 v 2.70732 l -1.8048776,0.45122 V 6.7844343 Z"
     id="path5" />
</svg>
