<?xml version="1.0" encoding="UTF-8" standalone="no"?>
<svg
   width="64"
   height="64"
   version="1"
   id="svg7"
   sodipodi:docname="vmware.svg"
   inkscape:version="1.3.2 (091e20ef0f, 2023-11-25)"
   xmlns:inkscape="http://www.inkscape.org/namespaces/inkscape"
   xmlns:sodipodi="http://sodipodi.sourceforge.net/DTD/sodipodi-0.dtd"
   xmlns="http://www.w3.org/2000/svg"
   xmlns:svg="http://www.w3.org/2000/svg">
  <defs
     id="defs7" />
  <sodipodi:namedview
     id="namedview7"
     pagecolor="#ffffff"
     bordercolor="#000000"
     borderopacity="0.25"
     inkscape:showpageshadow="2"
     inkscape:pageopacity="0.0"
     inkscape:pagecheckerboard="0"
     inkscape:deskcolor="#d1d1d1"
     inkscape:zoom="8.4189901"
     inkscape:cx="33.911431"
     inkscape:cy="34.683495"
     inkscape:window-width="1920"
     inkscape:window-height="994"
     inkscape:window-x="0"
     inkscape:window-y="0"
     inkscape:window-maximized="1"
     inkscape:current-layer="svg7" />
  <rect
     style="fill:#407ec2;stroke-width:0.842114"
     width="47.157898"
     height="47.157898"
     x="8.4210434"
     y="8.4419785"
     rx="2.5263171"
     ry="2.5263171"
     id="rect1" />
  <path
     style="opacity:0.1;fill:#ffffff;stroke-width:0.842114"
     d="m 10.947359,8.441978 c -1.399579,0 -2.526315,1.126736 -2.526315,2.526315 v 0.842108 c 0,-1.399582 1.126736,-2.526318 2.526315,-2.526318 h 42.105279 c 1.39957,0 2.526292,1.126736 2.526292,2.526318 v -0.842108 c 0,-1.399579 -1.126722,-2.526315 -2.526292,-2.526315 z"
     id="path1" />
  <path
     style="opacity:0.2;stroke-width:0.842114"
     d="m 8.421044,53.073572 v 0.842083 c 0,1.399575 1.126736,2.526323 2.526315,2.526323 h 42.105279 c 1.39957,0 2.526292,-1.126748 2.526292,-2.526323 v -0.842083 c 0,1.39957 -1.126722,2.526292 -2.526292,2.526292 H 10.947359 c -1.399579,0 -2.526315,-1.126722 -2.526315,-2.526292 z"
     id="path2" />
  <path
     style="opacity:0.2;stroke-width:0.842114"
     d="m 21.894732,21.915666 v 1.684202 H 42.105268 V 21.915666 H 28.631574 Z"
     id="path3" />
  <path
     style="fill:#f7870d;stroke-width:0.842114"
     d="m 39.578944,48.863018 c 1.39958,0 2.526324,-1.126717 2.526324,-2.526292 V 24.441988 c 0,-1.399604 -1.126744,-2.526322 -2.526324,-2.526322 H 17.684208 c -1.39957,0 -2.526314,1.126718 -2.526314,2.526322 v 21.894738 c 0,1.399575 1.126744,2.526292 2.526314,2.526292 z m -4.21052,-6.736816 H 21.894732 V 28.652508 h 13.473692 z"
     id="path4" />
  <path
     style="fill:#ffe270;stroke-width:0.842114"
     d="m 46.315792,42.126202 c 1.399575,0 2.526292,-1.126744 2.526292,-2.526324 V 17.705142 c 0,-1.39957 -1.126717,-2.526314 -2.526292,-2.526314 H 24.421054 c -1.399604,0 -2.526322,1.126744 -2.526322,2.526314 v 4.210524 H 42.105268 V 35.389358 H 28.631574 v -6.73685 h -6.736842 v 10.94737 c 0,1.39958 1.126718,2.526324 2.526322,2.526324 z"
     id="path5" />
  <path
     style="opacity:0.2;stroke-width:0.842114"
     d="m 21.894732,28.652508 v 0.84209 h 13.473692 v -0.84209 z m -6.736838,17.684218 v 0.842088 c 0,1.39957 1.126744,2.526314 2.526314,2.526314 h 21.894736 c 1.39958,0 2.526324,-1.126744 2.526324,-2.526314 v -0.842088 c 0,1.399575 -1.126744,2.526292 -2.526324,2.526292 H 17.684208 c -1.39957,0 -2.526314,-1.126717 -2.526314,-2.526292 z"
     id="path6" />
  <path
     style="opacity:0.2;stroke-width:0.842114"
     d="m 21.894732,39.599878 v 0.84209 c 0,1.399604 1.126718,2.526322 2.526322,2.526322 h 21.894738 c 1.399575,0 2.526292,-1.126718 2.526292,-2.526322 v -0.84209 c 0,1.39958 -1.126717,2.526324 -2.526292,2.526324 H 24.421054 c -1.399604,0 -2.526322,-1.126744 -2.526322,-2.526324 z"
     id="path7" />
</svg>
