<?xml version="1.0" encoding="UTF-8" standalone="no"?>
<svg
   viewBox="0 0 64 64"
   version="1.1"
   id="svg4"
   sodipodi:docname="folder-steam.svg"
   inkscape:version="1.4.2 (unknown)"
   xmlns:inkscape="http://www.inkscape.org/namespaces/inkscape"
   xmlns:sodipodi="http://sodipodi.sourceforge.net/DTD/sodipodi-0.dtd"
   xmlns="http://www.w3.org/2000/svg"
   xmlns:svg="http://www.w3.org/2000/svg">
  <sodipodi:namedview
     id="namedview4"
     pagecolor="#ffffff"
     bordercolor="#000000"
     borderopacity="0.25"
     inkscape:showpageshadow="2"
     inkscape:pageopacity="0.0"
     inkscape:pagecheckerboard="0"
     inkscape:deskcolor="#d1d1d1"
     inkscape:zoom="11.890625"
     inkscape:cx="32.04205"
     inkscape:cy="32"
     inkscape:current-layer="svg4" />
  <defs
     id="defs3051">
    <style
       type="text/css"
       id="current-color-scheme">
      .ColorScheme-Text {
      color:#232629;
      }
      .ColorScheme-Accent {
      color:#3daee9;
      }
    </style>
  </defs>
  <path
     style="fill:currentColor"
     d="m 9,6.000034 c -3,0 -5,2 -4.992,5.197014 L 4,20 c -0.5255187,0 -1,0.363715 -1,1 l 0.008,0.197048 H 3.01 c -5e-5,0.004 -0.002,0.008 -0.002,0.01172 L 3,53 c 0,3 2,5 5,5 v 0 h 48 v 0 c 3,0 5,-2 5,-5 l 0.008,-31.791232 v -0.01172 L 61,17 c 0,-0.484427 -0.416433,-1 -1,-1 v 0 0 l 0.008,-0.802952 C 60,12 58,10 55,10 H 32 C 32,8 30,6 28,6.000034 Z"
     class="ColorScheme-Accent"
     id="path1" />
  <path
     style="fill-opacity:0.33"
     d="M 9,6 C 6,6 4,8 4.0000003,11 v 9 H 22 l 4,-4 h 34 v -1 0 0 c 0,-3 -2,-5 -5,-5 L 32,9.9999657 C 32,8 30,6 28,5.9999657 Z"
     id="path2" />
  <path
     style="fill-opacity:0.2"
     d="m 26,16 -6,3 H 4 v 1 H 22 Z M 5,57 c 0,0.416776 2,1 3,1 h 2 42 3 c 2.476706,0 4,-0.558829 4,-1 H 52 10 Z"
     class="ColorScheme-Text"
     id="path4" />
  <path
     d="m 37.92332,27 a 5.0770454,5.0000312 0 0 0 -5.07707,5.000037 5.0770454,5.0000312 0 0 0 0.846129,2.752228 v 5.690115 a 3.3846405,3.3332986 0 0 0 -1.04117,0.457327 L 27.762508,38.474691 A 3.3846405,3.3332986 0 0 0 24.384608,35.333457 3.3846405,3.3332986 0 0 0 21,38.666789 a 3.3846405,3.3332986 0 0 0 3.384608,3.333257 3.3846405,3.3332986 0 0 0 1.885711,-0.566428 l 4.891895,2.426772 A 3.3846405,3.3332986 0 0 0 34.538452,47 3.3846405,3.3332986 0 0 0 37.923134,43.666742 3.3846405,3.3332986 0 0 0 36.990986,41.370143 l 3.149939,-4.877852 A 5.0770454,5.0000312 0 0 0 43,32.000265 5.0770454,5.0000312 0 0 0 37.92295,27.000226 Z m 0,1.666674 a 3.3846405,3.3332986 0 0 1 3.384606,3.33327 3.3846405,3.3332986 0 0 1 -3.384606,3.333313 3.3846405,3.3332986 0 0 1 -3.384703,-3.333313 3.3846405,3.3332986 0 0 1 3.384703,-3.33327 z m 0,1.666624 a 1.6923203,1.6666497 0 0 0 -1.692369,1.666646 1.6923203,1.6666497 0 0 0 1.692369,1.666675 1.6923203,1.6666497 0 0 0 1.692247,-1.666675 1.6923203,1.6666497 0 0 0 -1.692247,-1.666646 z m -13.538648,5.833141 a 2.5384802,2.4999737 0 0 1 2.449206,1.847259 l -1.690551,-0.838207 c -0.82985,-0.411652 -1.840149,-0.08738 -2.26582,0.725879 -0.42565,0.813373 -0.100975,1.798649 0.72887,2.2102 l 1.740212,0.862695 a 2.5384802,2.4999737 0 0 1 -0.961891,0.19206 2.5384802,2.4999737 0 0 1 -2.538495,-2.499972 2.5384802,2.4999737 0 0 1 2.538495,-2.499971 z m 10.153945,5.000026 a 2.5384802,2.4999737 0 0 1 2.538481,2.499981 2.5384802,2.4999737 0 0 1 -2.538481,2.499972 2.5384802,2.4999737 0 0 1 -2.450901,-1.847337 l 1.690666,0.838236 c 0.829746,0.411636 1.840149,0.08892 2.265742,-0.72428 0.425652,-0.813392 0.100955,-1.80021 -0.728805,-2.211911 l -1.741908,-0.864209 a 2.5384802,2.4999737 0 0 1 0.965107,-0.190436 z"
     opacity="0.15"
     id="path7"
     style="fill:#e5e5e5;fill-opacity:1;stroke-width:0.999996;opacity:1" />
</svg>
