<?xml version="1.0" encoding="UTF-8" standalone="no"?>
<svg
   viewBox="0 0 64 64"
   version="1.1"
   id="svg4"
   sodipodi:docname="folder-github.svg"
   inkscape:version="1.4.2 (unknown)"
   xmlns:inkscape="http://www.inkscape.org/namespaces/inkscape"
   xmlns:sodipodi="http://sodipodi.sourceforge.net/DTD/sodipodi-0.dtd"
   xmlns="http://www.w3.org/2000/svg"
   xmlns:svg="http://www.w3.org/2000/svg">
  <sodipodi:namedview
     id="namedview4"
     pagecolor="#ffffff"
     bordercolor="#000000"
     borderopacity="0.25"
     inkscape:showpageshadow="2"
     inkscape:pageopacity="0.0"
     inkscape:pagecheckerboard="0"
     inkscape:deskcolor="#d1d1d1"
     inkscape:zoom="11.890625"
     inkscape:cx="31.95795"
     inkscape:cy="32"
     inkscape:current-layer="svg4" />
  <defs
     id="defs3051">
    <style
       type="text/css"
       id="current-color-scheme">
      .ColorScheme-Text {
      color:#232629;
      }
      .ColorScheme-Accent {
      color:#3daee9;
      }
    </style>
  </defs>
  <path
     style="fill:currentColor"
     d="m 9,6.000034 c -3,0 -5,2 -4.992,5.197014 L 4,20 c -0.5255187,0 -1,0.363715 -1,1 l 0.008,0.197048 H 3.01 c -5e-5,0.004 -0.002,0.008 -0.002,0.01172 L 3,53 c 0,3 2,5 5,5 v 0 h 48 v 0 c 3,0 5,-2 5,-5 l 0.008,-31.791232 v -0.01172 L 61,17 c 0,-0.484427 -0.416433,-1 -1,-1 v 0 0 l 0.008,-0.802952 C 60,12 58,10 55,10 H 32 C 32,8 30,6 28,6.000034 Z"
     class="ColorScheme-Accent"
     id="path1" />
  <path
     style="fill-opacity:0.33"
     d="M 9,6 C 6,6 4,8 4.0000003,11 v 9 H 22 l 4,-4 h 34 v -1 0 0 c 0,-3 -2,-5 -5,-5 L 32,9.9999657 C 32,8 30,6 28,5.9999657 Z"
     id="path2" />
  <path
     style="fill-opacity:0.2"
     d="m 26,16 -6,3 H 4 v 1 H 22 Z M 5,57 c 0,0.416776 2,1 3,1 h 2 42 3 c 2.476706,0 4,-0.558829 4,-1 H 52 10 Z"
     class="ColorScheme-Text"
     id="path4" />
  <path
     d="M 32.43463,27 C 26.6695,27 22,31.59124 22,37.25376 c 0,4.53124 2.98952,8.37379 7.13468,9.72855 0.52173,0.0964 0.71303,-0.22086 0.71303,-0.49303 0,-0.24348 -0.009,-0.88869 -0.0131,-1.74345 -2.90256,0.61826 -3.51473,-1.37564 -3.51473,-1.37564 -0.47477,-1.18346 -1.16085,-1.49999 -1.16085,-1.49999 -0.9452,-0.63564 0.0731,-0.62259 0.0731,-0.62259 1.04781,0.0712 1.59824,1.05651 1.59824,1.05651 0.93042,1.56781 2.44257,1.11478 3.03908,0.85304 0.0939,-0.66347 0.3626,-1.11477 0.66086,-1.37129 -2.31736,-0.25651 -4.75297,-1.13824 -4.75297,-5.06688 0,-1.11911 0.40434,-2.03388 1.0739,-2.75126 -0.1174,-0.25913 -0.46956,-1.30172 0.0913,-2.71387 0,0 0.8739,-0.27478 2.86952,1.05129 0.83478,-0.22783 1.72172,-0.34087 2.60866,-0.34609 0.88694,0.005 1.77389,0.11825 2.60866,0.34609 1.98258,-1.32607 2.85648,-1.05129 2.85648,-1.05129 0.56086,1.41215 0.20868,2.45474 0.10434,2.71387 0.66521,0.71738 1.06955,1.63215 1.06955,2.75126 0,3.93907 -2.4391,4.80602 -4.7608,5.05819 0.36521,0.30782 0.70434,0.93651 0.70434,1.89736 0,1.37216 -0.013,2.47475 -0.013,2.80779 0,0.26869 0.18261,0.58954 0.71738,0.48695 C 39.88238,45.6232 42.8693,41.77804 42.8693,37.25376 42.86929,31.59124 38.19719,27 32.43467,27 Z"
     id="path2-3-3"
     style="fill:#e5e5e5;fill-opacity:1;stroke-width:0.869553" />
</svg>
