<?xml version="1.0" encoding="UTF-8" standalone="no"?>
<svg
   viewBox="0 0 64 64"
   version="1.1"
   id="svg4"
   sodipodi:docname="folder-sign.svg"
   inkscape:version="1.4.2 (unknown)"
   xmlns:inkscape="http://www.inkscape.org/namespaces/inkscape"
   xmlns:sodipodi="http://sodipodi.sourceforge.net/DTD/sodipodi-0.dtd"
   xmlns="http://www.w3.org/2000/svg"
   xmlns:svg="http://www.w3.org/2000/svg">
  <sodipodi:namedview
     id="namedview4"
     pagecolor="#ffffff"
     bordercolor="#000000"
     borderopacity="0.25"
     inkscape:showpageshadow="2"
     inkscape:pageopacity="0.0"
     inkscape:pagecheckerboard="0"
     inkscape:deskcolor="#d1d1d1"
     inkscape:zoom="11.890625"
     inkscape:cx="32"
     inkscape:cy="32"
     inkscape:current-layer="svg4" />
  <defs
     id="defs3051">
    <style
       type="text/css"
       id="current-color-scheme">
      .ColorScheme-Text {
      color:#232629;
      }
      .ColorScheme-Accent {
      color:#3daee9;
      }
    </style>
  </defs>
  <path
     style="fill:currentColor"
     d="m 9,6.000034 c -3,0 -5,2 -4.992,5.197014 L 4,20 c -0.5255187,0 -1,0.363715 -1,1 l 0.008,0.197048 H 3.01 c -5e-5,0.004 -0.002,0.008 -0.002,0.01172 L 3,53 c 0,3 2,5 5,5 v 0 h 48 v 0 c 3,0 5,-2 5,-5 l 0.008,-31.791232 v -0.01172 L 61,17 c 0,-0.484427 -0.416433,-1 -1,-1 v 0 0 l 0.008,-0.802952 C 60,12 58,10 55,10 H 32 C 32,8 30,6 28,6.000034 Z"
     class="ColorScheme-Accent"
     id="path1" />
  <path
     style="fill-opacity:0.33"
     d="M 9,6 C 6,6 4,8 4.0000003,11 v 9 H 22 l 4,-4 h 34 v -1 0 0 c 0,-3 -2,-5 -5,-5 L 32,9.9999657 C 32,8 30,6 28,5.9999657 Z"
     id="path2" />
  <path
     style="fill-opacity:0.2"
     d="m 26,16 -6,3 H 4 v 1 H 22 Z M 5,57 c 0,0.416776 2,1 3,1 h 2 42 3 c 2.476706,0 4,-0.558829 4,-1 H 52 10 Z"
     class="ColorScheme-Text"
     id="path4" />
  <path
     style="color:#232629;fill:#e5e5e5;fill-opacity:1;stroke:none;stroke-width:0.999984"
     d="m 40.308785,22.500031 c -0.124031,-0.0012 -0.251242,0.03234 -0.371217,0.107828 -0.064,0.04381 -0.342353,0.372959 -0.615808,0.732545 l -0.497849,0.660668 -0.180404,-0.121522 c -0.252489,-0.164283 -0.49611,-0.20062 -0.723353,-0.09927 -0.157074,0.06978 -0.525161,0.538663 -2.940261,3.707241 -1.524166,1.997565 -2.763543,3.647531 -2.759867,3.673025 0.0027,0.02124 0.621919,0.498097 1.370392,1.052609 l 1.368648,1.014956 1.800592,-2.367095 c 0.99101,-1.302242 1.815505,-2.35605 1.835278,-2.341418 0.06408,0.04731 0.180824,1.069624 0.157854,1.398348 -0.0088,0.179316 -0.07721,0.501545 -0.147448,0.715436 -0.1253,0.382223 -0.13894,0.404625 -2.371293,3.347833 -1.234618,1.627103 -2.26261,3.009071 -2.281092,3.063697 -0.05302,0.150621 0.0063,0.432362 0.121431,0.59391 0.193113,0.272372 0.670753,0.358455 0.941917,0.164308 0.187339,-0.134875 4.608936,-6.007624 4.749528,-6.313959 0.410698,-0.873554 0.495744,-1.992179 0.235917,-3.092802 -0.102657,-0.436846 -0.236892,-0.856777 -0.367755,-1.155302 -0.0381,-0.08152 0.0253,-0.185804 0.438879,-0.734267 0.390789,-0.523545 0.480397,-0.670568 0.487439,-0.806145 0.01541,-0.288538 -0.0739,-0.449149 -0.360813,-0.669223 l -0.267135,-0.205381 0.530808,-0.703455 c 0.435124,-0.5818 0.529197,-0.733934 0.536006,-0.869481 0.01971,-0.432136 -0.31831,-0.749159 -0.690394,-0.753084 z m -8.942216,9.755912 c -0.01306,0.0018 -1.637079,2.131017 -3.611585,4.725634 -3.175751,4.17814 -3.62744,4.796578 -3.920345,5.328098 -0.581911,1.058201 -1.215159,2.671484 -1.635801,4.145413 -0.272648,0.945339 -0.286349,0.859788 0.09367,0.658952 1.172186,-0.624659 2.703366,-1.638671 3.594246,-2.384209 0.871122,-0.729879 1.019437,-0.915441 4.709622,-5.764555 l 3.549137,-4.669143 -1.37907,-1.021809 C 32.00797,32.712396 31.379604,32.25412 31.366572,32.255943 Z m 0.398977,10.813672 c -0.174294,-0.0095 -0.353755,-0.0044 -0.470101,0.01881 v 0.0017 c -0.551533,0.114798 -1.165672,0.586316 -1.46232,1.129633 -0.07993,0.141091 -0.207181,0.460752 -0.28622,0.701747 -0.07462,0.245364 -0.14385,0.450017 -0.14919,0.455277 -0.04264,0.05258 -1.097388,0.302187 -1.71732,0.407348 -1.457449,0.251506 -1.855346,0.345245 -1.998333,0.475816 -0.280653,0.255889 -0.06307,0.51359 0.334788,0.398791 0.105693,-0.03156 0.556194,-0.119796 0.990504,-0.193405 0.435185,-0.07363 1.097041,-0.209424 1.472725,-0.292679 0.376575,-0.08848 0.695224,-0.147563 0.711218,-0.131786 0.01595,0.01575 -0.04702,0.313554 -0.147445,0.664084 l -0.180414,0.628148 -0.398969,0.172866 c -0.217598,0.0938 -0.529562,0.255865 -0.693871,0.366276 -0.498249,0.324238 -0.59452,0.731567 -0.244588,0.992707 0.190954,0.141091 0.720861,0.135954 1.049477,-0.0053 0.291308,-0.130572 0.455207,-0.313185 0.683456,-0.789032 0.121685,-0.24624 0.217709,-0.37617 0.291427,-0.391944 0.05861,-0.01575 0.584813,-0.120398 1.167443,-0.24133 0.583501,-0.114797 1.112914,-0.225561 1.181305,-0.24133 0.111022,-0.02631 0.122166,-0.01602 0.09018,0.08387 -0.02134,0.06316 -0.117314,0.246943 -0.218566,0.409063 -0.100339,0.162119 -0.180406,0.355032 -0.180406,0.433033 0,0.162119 0.138774,0.324468 0.249801,0.282403 0.04263,-0.01575 0.09998,-0.03081 0.126626,-0.03081 0.02666,0 0.143858,-0.08398 0.260208,-0.188267 0.217594,-0.193677 0.742426,-1.141235 0.742426,-1.340152 0,-0.09901 0.07958,-0.124212 0.126635,-0.04613 0.01595,0.02632 0.13654,0.07374 0.268881,0.104402 0.185618,0.04731 0.23937,0.08271 0.23937,0.166019 0,0.162121 0.27109,0.398562 0.510001,0.445012 0.185624,0.03156 0.424242,-0.0054 0.678257,-0.109539 0.0897,-0.0368 0.09524,-0.02635 0.06419,0.109539 -0.02129,0.08413 -0.17569,0.351092 -0.339997,0.597329 -0.349933,0.512648 -0.773667,1.328274 -0.884688,1.689315 -0.08967,0.308466 -0.05328,0.539145 0.111021,0.648681 0.148323,0.09378 0.391666,0.05114 0.518665,-0.08554 0.111016,-0.120056 0.716426,-1.379746 0.938455,-1.954611 0.158976,-0.403113 0.232672,-0.513199 0.593265,-0.890018 0.296637,-0.30846 0.393524,-0.381929 0.329576,-0.261868 -0.105683,0.225213 -0.10069,0.397211 0.01563,0.501488 0.248686,0.225213 0.609335,0.0057 0.922849,-0.55968 0.185623,-0.334752 0.323838,-0.433229 1.013044,-0.753086 l 0.359079,-0.162598 -0.0364,0.193407 c -0.02127,0.104278 -0.143608,0.403063 -0.270606,0.658947 -0.249578,0.517914 -0.295778,0.847464 -0.147447,1.129633 0.100337,0.193665 0.20627,0.199895 0.693861,0.0325 0.678544,-0.225215 1.563623,-0.744389 1.793657,-1.042336 0.312627,-0.418881 0.408628,-0.820938 0.218569,-0.956762 -0.196292,-0.141092 -0.307264,-0.08376 -0.556831,0.277268 -0.333944,0.491618 -0.747001,0.874351 -1.14489,1.068009 -0.185625,0.09379 -0.350024,0.156129 -0.366019,0.140358 -0.02131,-0.02106 0.402326,-1.145493 0.629692,-1.673917 0.04794,-0.109543 0.08675,-0.24598 0.08675,-0.302947 0,-0.146337 -0.186212,-0.313206 -0.3452,-0.313206 -0.07462,0 -0.425474,0.14045 -0.775403,0.318349 -0.726503,0.355779 -0.678271,0.387092 -0.492647,-0.282421 0.111024,-0.412743 0.07452,-0.523113 -0.180394,-0.549408 -0.244241,-0.0263 -0.339107,0.0533 -0.562027,0.445007 -0.143002,0.266411 -0.333159,0.486802 -0.699077,0.821551 -0.482269,0.439036 -0.503898,0.454544 -0.615811,0.376543 -0.169631,-0.120055 -0.265266,-0.104029 -0.678264,0.09929 -0.403218,0.198918 -0.536249,0.225333 -0.636612,0.104403 -0.08526,-0.09901 0.04868,-0.151595 0.785797,-0.292683 0.715853,-0.13583 0.804884,-0.173711 0.804884,-0.320063 0,-0.235731 -0.196479,-0.459422 -0.546409,-0.611022 -0.604832,-0.266403 -0.672054,-0.283128 -0.936727,-0.215653 -0.285989,0.07363 -0.710731,0.475904 -0.768457,0.727414 -0.05861,0.262013 -0.239386,0.183019 -0.239386,-0.104407 0,-0.120063 -0.148912,-0.423243 -0.234189,-0.475821 -0.180285,-0.12005 -0.47093,0.141907 -0.693865,0.623011 l -0.175186,0.371411 -0.392051,0.08386 c -0.5089,0.109546 -1.987658,0.402191 -2.183938,0.439873 -0.126998,0.02099 -0.148068,0.01038 -0.121427,-0.0633 0.02133,-0.05258 0.08434,-0.281166 0.147437,-0.516896 0.16431,-0.648477 0.213002,-0.73316 0.451022,-0.816409 0.285983,-0.09901 1.251807,-0.50797 1.500492,-0.63328 0.116348,-0.05782 0.354109,-0.235091 0.529067,-0.391954 0.535554,-0.491613 0.619554,-0.947208 0.237659,-1.281956 -0.1057,-0.0885 -0.243982,-0.182519 -0.307033,-0.208809 -0.09769,-0.0368 -0.266326,-0.06215 -0.440624,-0.07188 z m -0.534283,0.61103 c 0.07364,-0.0041 0.160697,-0.0013 0.270614,0.0053 0.28066,0.01575 0.392782,0.04168 0.471821,0.12494 0.1057,0.104289 0.105447,0.10916 0.01052,0.308086 -0.06391,0.125314 -0.211612,0.272603 -0.397237,0.398794 -0.323281,0.219957 -1.336671,0.622147 -1.368656,0.549413 -0.04262,-0.120058 0.282246,-0.837542 0.489178,-1.068016 0.206501,-0.231347 0.303018,-0.306109 0.523875,-0.318352 z m -2.721696,4.379891 c 0.04041,0.0027 0.04114,0.03743 0.0071,0.102691 -0.06932,0.130574 -0.250039,0.225077 -0.350402,0.188274 -0.116349,-0.04731 -0.08501,-0.109034 0.100609,-0.203679 0.122122,-0.06002 0.202448,-0.08992 0.242855,-0.0873 z"
     class="ColorScheme-Text"
     id="path14466" />
</svg>
