<?xml version="1.0" encoding="UTF-8" standalone="no"?>
<svg
   viewBox="0 0 64 64"
   version="1.1"
   id="svg4"
   sodipodi:docname="folder-Pop_OS.svg"
   inkscape:version="1.4.2 (unknown)"
   xmlns:inkscape="http://www.inkscape.org/namespaces/inkscape"
   xmlns:sodipodi="http://sodipodi.sourceforge.net/DTD/sodipodi-0.dtd"
   xmlns="http://www.w3.org/2000/svg"
   xmlns:svg="http://www.w3.org/2000/svg">
  <sodipodi:namedview
     id="namedview4"
     pagecolor="#ffffff"
     bordercolor="#000000"
     borderopacity="0.25"
     inkscape:showpageshadow="2"
     inkscape:pageopacity="0.0"
     inkscape:pagecheckerboard="0"
     inkscape:deskcolor="#d1d1d1"
     inkscape:zoom="11.890625"
     inkscape:cx="31.95795"
     inkscape:cy="32"
     inkscape:current-layer="svg4" />
  <defs
     id="defs3051">
    <style
       type="text/css"
       id="current-color-scheme">
      .ColorScheme-Text {
      color:#232629;
      }
      .ColorScheme-Accent {
      color:#3daee9;
      }
    </style>
  </defs>
  <path
     style="fill:currentColor"
     d="m 9,6.000034 c -3,0 -5,2 -4.992,5.197014 L 4,20 c -0.5255187,0 -1,0.363715 -1,1 l 0.008,0.197048 H 3.01 c -5e-5,0.004 -0.002,0.008 -0.002,0.01172 L 3,53 c 0,3 2,5 5,5 v 0 h 48 v 0 c 3,0 5,-2 5,-5 l 0.008,-31.791232 v -0.01172 L 61,17 c 0,-0.484427 -0.416433,-1 -1,-1 v 0 0 l 0.008,-0.802952 C 60,12 58,10 55,10 H 32 C 32,8 30,6 28,6.000034 Z"
     class="ColorScheme-Accent"
     id="path1" />
  <path
     style="fill-opacity:0.33"
     d="M 9,6 C 6,6 4,8 4.0000003,11 v 9 H 22 l 4,-4 h 34 v -1 0 0 c 0,-3 -2,-5 -5,-5 L 32,9.9999657 C 32,8 30,6 28,5.9999657 Z"
     id="path2" />
  <path
     style="fill-opacity:0.2"
     d="m 26,16 -6,3 H 4 v 1 H 22 Z M 5,57 c 0,0.416776 2,1 3,1 h 2 42 3 c 2.476706,0 4,-0.558829 4,-1 H 52 10 Z"
     class="ColorScheme-Text"
     id="path4" />
  <g
     id="g1"
     transform="translate(-1.996998,0.495003)">
    <path
       style="fill:#e5e5e5;fill-opacity:1;stroke-width:0.0217446"
       id="path2-3-3"
       d="m 44.228464,39.703694 c -0.04786,0.202946 -0.150508,0.382781 -0.326069,0.495773 -0.27583,0.177288 -0.611958,0.125883 -0.850136,-0.08989 -0.223287,-0.200361 -0.298516,-0.539452 -0.228253,-0.832325 0.07259,-0.305731 0.303473,-0.575463 0.599356,-0.66025 0.65964,-0.187505 0.932967,0.547178 0.805102,1.086723 z m -0.403793,-2.086037 c -0.408817,-0.166978 -0.268394,-2.363457 0.105527,-5.030043 0.105526,-0.745026 0.285894,-1.097018 0.489013,-1.276854 0.290914,-0.254292 0.820138,-0.264625 1.178755,-0.210661 0.411346,0.06135 0.805042,0.256946 1.103489,0.552355 0.263358,0.262065 0.293483,0.529212 0.203129,0.876041 -0.147941,0.552354 -0.401236,1.081565 -0.644542,1.597921 -0.05736,0.125871 -0.561804,1.104626 -0.629447,1.225368 -1.216396,2.193943 -1.459633,2.407209 -1.805764,2.265873 z" />
    <path
       style="fill:#e5e5e5;fill-opacity:1;stroke-width:0.0217446"
       id="path4-3"
       d="m 35.573482,36.628627 c 0.24074,1.053271 0.215654,2.209315 0.01003,3.04164 -0.193142,0.786108 -0.717303,1.490002 -1.549986,1.726329 -0.729765,0.208121 -1.580004,0.05629 -2.101611,-0.457259 -0.857739,-0.842621 -1.359319,-2.820741 -1.136112,-4.256756 0.180538,-1.153495 0.787486,-2.630701 2.11918,-2.69493 0.08573,-0.0043 0.170537,-0.0021 0.255866,0.0043 1.356785,0.12588 2.096657,1.29738 2.402614,2.63582 z m -2.452767,2.396818 c 0.075,0.01316 0.150471,0.01316 0.225735,-0.01006 0.253273,-0.07418 0.398743,-0.344314 0.46642,-0.606298 0.102902,-0.398186 0.08801,-0.827239 -0.0452,-1.217746 -0.06777,-0.197827 -0.167981,-0.390495 -0.321017,-0.534367 -0.539176,-0.506069 -1.078353,0.02029 -1.171175,0.61913 -0.07262,0.46758 0.03283,1.009625 0.318476,1.387286 0.132926,0.174696 0.323572,0.326245 0.526713,0.362209 z" />
    <path
       style="fill:#e5e5e5;fill-opacity:1;stroke-width:0.0217446"
       id="path6-6"
       d="m 38.510331,38.861072 c -0.0021,1.944679 0.18808,3.43217 -0.647123,3.6094 -0.677112,0.14131 -0.654507,-0.467556 -0.707226,-0.978792 -0.200567,-1.980667 -0.383659,-5.271538 -0.461487,-7.262477 0.05508,-0.855515 0.614549,-1.379619 1.196366,-1.508003 0.897843,-0.197825 1.855873,-0.141313 2.650866,0.362186 1.572496,0.996802 1.697891,2.825894 0.744872,4.318459 -0.521596,0.814407 -2.099151,1.405273 -2.776268,1.35387 z m 0.200624,-4.359578 c -0.09811,0.01571 -0.258296,0.06124 -0.30346,0.159254 -0.107833,0.228624 -0.100712,1.680137 0.08801,2.288969 0.03033,0.100538 0.09753,0.195219 0.195612,0.231196 0.356157,0.133585 0.67721,-0.3134 0.822667,-0.583166 0.203121,-0.375066 0.268279,-0.816886 0.140378,-1.227985 -0.120686,-0.382724 -0.49404,-0.93765 -0.942957,-0.868268 z" />
    <path
       style="fill:#e5e5e5;fill-opacity:1;stroke-width:0.0217446"
       id="path8-7"
       d="m 29.516727,35.467416 c -0.589355,1.276822 -1.567461,2.291577 -2.921741,2.792502 0.388777,1.040436 0.785001,2.068051 1.1712,3.105881 0.215748,0.560008 0.421348,1.174066 0.233255,1.726341 -0.195632,0.565188 -0.958017,0.721879 -1.512292,0.120996 -1.06588,-1.161247 -4.669798,-8.518785 -4.935627,-9.071151 -0.225769,-0.475248 -0.564278,-0.983934 -0.554309,-1.533671 0.01764,-0.827241 1.266575,-1.664732 1.865922,-2.093691 0.837684,-0.598619 1.805718,-1.00709 2.841507,-1.009626 0.807594,0 1.497257,0.226099 2.109227,0.626785 0.937954,0.616627 1.590066,1.600492 1.830851,2.71288 0.210607,0.978769 0.165489,1.980738 -0.127901,2.622989 m -2.746203,-1.397597 c -0.210639,-0.783479 -0.687212,-1.505362 -1.286604,-2.011476 -0.130406,-0.110202 -0.270878,-0.213266 -0.433845,-0.26972 -1.123556,-0.377671 -0.637003,1.546504 -0.453922,2.032048 0.253285,0.680786 0.63701,1.541373 1.151124,2.055146 0.112634,0.112809 0.245788,0.213254 0.398743,0.244065 0.233245,0.04884 0.44891,-0.118568 0.566842,-0.313388 0.09753,-0.161862 0.135317,-0.354529 0.158005,-0.542024 0.04249,-0.398208 0.0043,-0.804144 -0.100711,-1.194651 z" />
    <path
       style="fill:#e5e5e5;fill-opacity:1;stroke-width:0.0217446"
       id="path10-5"
       d="m 42.952761,45.246785 c -0.0043,1.127818 -0.677154,2.255649 -2.159301,2.255649 -1.482227,0 -2.171888,-1.109842 -2.171888,-2.242744 0,-1.412954 0.960539,-2.286446 2.201932,-2.286446 1.43957,0.01294 2.141813,1.107294 2.129257,2.273541 z m -2.129257,-1.561896 c -0.930436,0 -1.452136,0.662807 -1.457057,1.567051 0,0.786121 0.428844,1.523469 1.439513,1.523469 1.010693,0 1.39696,-0.798943 1.39696,-1.531159 0.01312,-0.760394 -0.381244,-1.541372 -1.379416,-1.559361 z m 2.751288,3.239451 c 0,0.166992 0.0043,-0.793812 0,-0.940217 h 0.682173 l 0.04797,0.588317 c 0.223278,0.131062 0.569336,0.228646 0.852713,0.228646 0.52674,0 1.075988,-0.136262 1.075988,-0.662808 -0.01763,-0.477887 -0.629552,-0.575476 -1.123588,-0.626881 -0.840167,-0.08771 -1.517297,-0.297957 -1.517297,-1.263914 0,-0.860625 0.950465,-1.289596 1.657708,-1.289596 0.569324,-0.01305 0.973081,0.07924 1.487203,0.500903 0,0.346875 -0.0043,0.552368 -0.0043,0.89918 H 46.07395 l -0.04249,-0.570295 c -0.265866,-0.131083 -0.539273,-0.167015 -0.749901,-0.161859 -0.453968,0.0043 -0.93798,0.223478 -0.93798,0.613965 0,0.382789 0.313477,0.488089 0.870225,0.57034 0.907935,0.123486 1.783194,0.333925 1.783194,1.325575 -0.0043,1.084137 -0.99817,1.369274 -1.85087,1.369274 -0.649568,0.0021 -1.055843,-0.120998 -1.569992,-0.58063 z"
       inkscape:connector-curvature="0" />
    <path
       style="fill:#e5e5e5;fill-opacity:1;stroke-width:0.0217446"
       id="path12"
       d="m 37.70109,47.132462 c 0,0.197824 -0.155474,0.357055 -0.348574,0.357055 h -4.030303 c -0.19307,0 -0.34858,-0.159231 -0.34858,-0.357055 v -0.03083 c 0,-0.197825 0.15551,-0.357137 0.34858,-0.357137 h 4.030303 c 0.1931,0 0.348574,0.159312 0.348574,0.357137 z"
       inkscape:connector-curvature="0" />
  </g>
</svg>
