<?xml version="1.0" encoding="UTF-8" standalone="no"?>
<svg
   viewBox="0 0 24 24"
   version="1.1"
   id="svg1"
   sodipodi:docname="media-playback-paused.svg"
   width="24"
   height="24"
   inkscape:version="1.3.2 (091e20ef0f, 2023-11-25)"
   xmlns:inkscape="http://www.inkscape.org/namespaces/inkscape"
   xmlns:sodipodi="http://sodipodi.sourceforge.net/DTD/sodipodi-0.dtd"
   xmlns="http://www.w3.org/2000/svg"
   xmlns:svg="http://www.w3.org/2000/svg">
  <sodipodi:namedview
     id="namedview1"
     pagecolor="#ffffff"
     bordercolor="#000000"
     borderopacity="0.25"
     inkscape:showpageshadow="2"
     inkscape:pageopacity="0.0"
     inkscape:pagecheckerboard="0"
     inkscape:deskcolor="#d1d1d1"
     inkscape:zoom="11.984375"
     inkscape:cx="-0.16688396"
     inkscape:cy="24.698827"
     inkscape:window-width="1920"
     inkscape:window-height="996"
     inkscape:window-x="0"
     inkscape:window-y="0"
     inkscape:window-maximized="1"
     inkscape:current-layer="svg1" />
  <defs
     id="defs1">
    <style
       type="text/css"
       id="style1">.ColorScheme-Text { color:#d8dee9; }
</style>
  </defs>
  <path
     style="opacity:0.00100002;fill:#1e2431;fill-opacity:1;stroke-width:1"
     d="M 0,0 H 24 V 24 H 0 Z"
     id="path12" />
  <path
     d="M 12.916933,14.937281 V 9.3765817 c 0.006,-1.4188674 1.840157,-1.4188674 1.846134,0 v 5.5606993 c -0.006,1.418867 -1.840157,1.418867 -1.846134,0 z M 14.39384,9.3765817 Z"
     id="path8-6-7-3"
     style="fill:#1e2431;fill-opacity:1;stroke-width:0.198701"
     sodipodi:nodetypes="cccccccccc"
     class="ColorScheme-Text " />
  <path
     d="M 9.415401,14.929966 V 9.376904 c 0,-1.4239586 1.846272,-1.4239586 1.846272,0 v 5.553062 c 0,1.423959 -1.846272,1.423959 -1.846272,0 z m 1.476938,-5.553062 z"
     id="path8-6-6-67"
     style="fill:#1e2431;fill-opacity:1;stroke-width:0.198574"
     sodipodi:nodetypes="sssssccccc"
     class="ColorScheme-Text " />
  <path
     d="M 17.65687,6.3444628 C 16.145877,4.8334298 14.136727,4.0013038 12,4.0013038 c -2.136727,0 -4.145883,0.832126 -5.65673,2.343159 C 4.83214,7.8555018 4,9.8644828 4,12.001304 c 0,2.136821 0.83214,4.145801 2.34327,5.65684 1.510847,1.510929 3.520003,2.34316 5.65673,2.34316 2.136873,0 4.145877,-0.832231 5.65687,-2.34316 1.51089,-1.511039 2.343127,-3.520019 2.343127,-5.65684 0,-2.1368212 -0.832237,-4.1458962 -2.343127,-5.6568412 z M 16.743333,17.211074 C 15.27032,18.460545 14.082325,19.051217 12,19.035965 9.789356,19.019745 8.96936,18.604424 7.256667,17.210643 5.86506,15.819142 4.965334,13.969273 4.965334,12.001304 c 0,-1.96807 0.928276,-4.0602822 2.291333,-5.2100002 C 8.785856,5.4475758 10.060453,4.9813308 12,4.9666428 c 1.967918,-0.01495 3.285054,0.612981 4.743333,1.824805 1.391584,1.391591 2.291328,3.2417862 2.291328,5.2098562 0,1.967969 -0.899744,3.818267 -2.291328,5.20977 z"
     id="path2-36-912-5"
     style="fill:#1e2431;fill-opacity:1;stroke-width:0.0249998"
     sodipodi:nodetypes="cscscscsccscscscsc"
     class="ColorScheme-Text " />
</svg>
