<?xml version="1.0" encoding="UTF-8" standalone="no"?>
<svg
   height="48"
   width="48"
   version="1.1"
   id="svg16"
   sodipodi:docname="firewall-config.svg"
   inkscape:version="1.3.2 (091e20ef0f, 2023-11-25)"
   xmlns:inkscape="http://www.inkscape.org/namespaces/inkscape"
   xmlns:sodipodi="http://sodipodi.sourceforge.net/DTD/sodipodi-0.dtd"
   xmlns:xlink="http://www.w3.org/1999/xlink"
   xmlns="http://www.w3.org/2000/svg"
   xmlns:svg="http://www.w3.org/2000/svg">
  <defs
     id="defs16" />
  <sodipodi:namedview
     id="namedview16"
     pagecolor="#ffffff"
     bordercolor="#999999"
     borderopacity="1"
     inkscape:showpageshadow="2"
     inkscape:pageopacity="0"
     inkscape:pagecheckerboard="0"
     inkscape:deskcolor="#d1d1d1"
     showgrid="true"
     inkscape:zoom="15.916667"
     inkscape:cx="24"
     inkscape:cy="18.973822"
     inkscape:window-width="1920"
     inkscape:window-height="996"
     inkscape:window-x="0"
     inkscape:window-y="0"
     inkscape:window-maximized="1"
     inkscape:current-layer="svg16">
    <inkscape:grid
       id="grid16"
       units="px"
       originx="0"
       originy="0"
       spacingx="1"
       spacingy="1"
       empcolor="#0099e5"
       empopacity="0.30196078"
       color="#0099e5"
       opacity="0.14901961"
       empspacing="5"
       dotted="false"
       gridanglex="30"
       gridanglez="30"
       visible="true" />
  </sodipodi:namedview>
  <linearGradient
     id="a">
    <stop
       offset="0"
       stop-color="#4d4d4d"
       id="stop1" />
    <stop
       offset="1"
       stop-color="#536161"
       id="stop2" />
  </linearGradient>
  <linearGradient
     id="b"
     gradientUnits="userSpaceOnUse"
     x1="24"
     x2="24"
     y1="44"
     y2="4">
    <stop
       offset="0"
       stop-color="#afb0b3"
       id="stop3" />
    <stop
       offset="1"
       stop-color="#bdc3c7"
       id="stop4" />
  </linearGradient>
  <linearGradient
     id="d"
     gradientUnits="userSpaceOnUse"
     x1="24"
     x2="24"
     y1="32.602"
     y2="15.721">
    <stop
       offset="0"
       stop-color="#eff1f1"
       id="stop5" />
    <stop
       offset="1"
       stop-color="#fcfcfc"
       id="stop6" />
  </linearGradient>
  <linearGradient
     id="g"
     gradientUnits="userSpaceOnUse"
     x1="24"
     x2="24"
     xlink:href="#a"
     y1="31.214"
     y2="17.22" />
  <linearGradient
     id="e"
     gradientUnits="userSpaceOnUse"
     x1="24"
     x2="24"
     xlink:href="#a"
     y1="34"
     y2="14" />
  <linearGradient
     id="f"
     gradientUnits="userSpaceOnUse"
     x1="24"
     x2="42"
     y1="26"
     y2="44">
    <stop
       offset="0"
       stop-color="#232629"
       id="stop7" />
    <stop
       offset="1"
       stop-opacity="0"
       id="stop8" />
  </linearGradient>
  <linearGradient
     id="c"
     gradientUnits="userSpaceOnUse"
     x1="24"
     x2="24"
     y1="43"
     y2="5">
    <stop
       offset="0"
       stop-color="#c0392b"
       id="stop9" />
    <stop
       offset="1"
       stop-color="#e74c3c"
       id="stop10" />
  </linearGradient>
  <path
     d="M 4,7.004 C 3.9884403,5.1177963 5.1040467,3.9355034 7.011,4 H 41 c 1.971289,0.04695 2.961848,0.9244707 3,2.9528796 V 44 H 4 Z"
     fill="url(#b)"
     id="path10"
     sodipodi:nodetypes="ccccccc" />
  <path
     d="M25 37h18v6H25zM5 37h18v6H5zm0-8h8v6H5zm30 0h8v6h-8zm-20 0h18v6H15zM5 21h18v6H5zm20 0h18v6H25zm10-8h8v6h-8zM5 13h8v6H5zm10 0h18v6H15zm10-8h18v6H25zM5 5h18v6H5z"
     fill="url(#c)"
     id="path11" />
  <path
     d="M15.25 19L24 15.25 32.75 19v5L29 29l-3.75 3.75h-2.5L19 29l-3.75-5z"
     fill="url(#d)"
     id="path12" />
  <path
     d="M4 43h40v1H4z"
     fill="#232629"
     opacity=".3"
     id="path13" />
  <path
     d="M24 14s-2.5 3.323-10 4.156c0 0 0 11.667 10 15.844 10-4.177 10-15.844 10-15.844C26.5 17.323 24 14 24 14zm0 1.72c1.984 1.682 4.846 2.803 8.557 3.368-.202 1.806-.395 3.166-.862 4.48-.981 2.762-2.126 4.44-3.152 5.649-1.59 1.872-3.034 2.63-4.543 3.385-1.509-.754-2.953-1.513-4.543-3.385-1.026-1.208-2.17-2.887-3.152-5.649-.467-1.314-.66-2.674-.862-4.48 3.711-.565 6.573-1.686 8.557-3.367z"
     fill="url(#e)"
     id="path14" />
  <path
     d="M34 18.156s-.009 1.774-.598 4.178l-2.316-2.314-10.268 8.884 4.477 4.477c-.414.219-.84.43-1.295.619a14.898 14.898 0 0 1-5.057-3.463l-.017.016L32.373 44H44V28.156zm-.623 4.278zm-.416 1.431zm-.55 1.487zm-.68 1.45zm-.866 1.483zm-.996 1.36c-.091.11-.19.218-.285.328.095-.11.194-.218.285-.328zm-1.039 1.134z"
     fill="url(#f)"
     opacity=".2"
     id="path15" />
  <path
     d="M24 17.22c-2.18 1.513-4.628 2.28-7.085 2.8 1.164 6.603 3.67 9.426 7.085 11.194 3.415-1.768 5.921-4.591 7.085-11.193-2.457-.522-4.906-1.288-7.085-2.8z"
     fill="url(#g)"
     id="path16" />
</svg>
