<?xml version="1.0" encoding="UTF-8" standalone="no"?>
<svg
   width="22"
   height="22"
   version="1"
   id="svg5"
   sodipodi:docname="freecad.svg"
   inkscape:version="1.3.2 (091e20ef0f, 2023-11-25)"
   xmlns:inkscape="http://www.inkscape.org/namespaces/inkscape"
   xmlns:sodipodi="http://sodipodi.sourceforge.net/DTD/sodipodi-0.dtd"
   xmlns="http://www.w3.org/2000/svg"
   xmlns:svg="http://www.w3.org/2000/svg">
  <defs
     id="defs5" />
  <sodipodi:namedview
     id="namedview5"
     pagecolor="#ffffff"
     bordercolor="#000000"
     borderopacity="0.25"
     inkscape:showpageshadow="2"
     inkscape:pageopacity="0.0"
     inkscape:pagecheckerboard="0"
     inkscape:deskcolor="#d1d1d1"
     inkscape:zoom="17.318182"
     inkscape:cx="10.018373"
     inkscape:cy="12.299213"
     inkscape:window-width="1920"
     inkscape:window-height="994"
     inkscape:window-x="0"
     inkscape:window-y="0"
     inkscape:window-maximized="1"
     inkscape:current-layer="svg5" />
  <rect
     fill="#4f4f4f"
     width="17.142866"
     height="17.142866"
     x="2.4285715"
     y="2.328084"
     rx="0.85714275"
     ry="0.85714275"
     id="rect1"
     style="stroke-width:0.85714" />
  <path
     fill="#ffffff"
     opacity="0.1"
     d="m 3.2857144,2.328084 c -0.474857,0 -0.8571429,0.3822859 -0.8571429,0.8571429 v 0.4285708 c 0,-0.4748571 0.3822859,-0.8571426 0.8571429,-0.8571426 H 18.714289 c 0.474854,0 0.85714,0.3822855 0.85714,0.8571426 V 3.1852269 c -10e-7,-0.474857 -0.382287,-0.8571429 -0.85714,-0.8571429 z"
     id="path1"
     style="stroke-width:0.85714" />
  <path
     opacity="0.2"
     d="m 3.2857144,19.899511 c -0.474857,0 -0.8571429,-0.382283 -0.8571429,-0.85714 v -0.42857 c 0,0.474854 0.3822859,0.85714 0.8571429,0.85714 H 18.714289 c 0.474854,0 0.85714,-0.382286 0.85714,-0.85714 v 0.42857 c 0,0.474857 -0.382286,0.85714 -0.85714,0.85714 z"
     id="path2"
     style="stroke-width:0.85714" />
  <path
     opacity="0.2"
     d="M 7.5714283,5.3280834 H 14.428566 V 7.8995115 H 9.2858847 V 9.6137971 H 11.857061 V 11.328083 H 9.2858847 v 5.142862 H 7.571599 Z"
     id="path3"
     style="stroke-width:0.85714" />
  <path
     fill="#ff6363"
     d="M 7.5714283,4.8995125 H 14.428566 V 7.4709408 H 9.2858847 l 8.56e-5,1.7142857 H 11.85714 V 10.899513 H 9.2859703 v 5.142861 H 7.5716846 Z"
     id="path4"
     style="stroke-width:0.85714" />
  <circle
     fill="#3f92e7"
     cx="16.142855"
     cy="16.042368"
     r="4.2857165"
     id="circle4"
     style="stroke-width:0.85714" />
  <path
     fill="#ffffff"
     d="m 15.476861,13.470936 -0.05669,0.677313 a 2.0204565,2.0204565 0 0 0 -0.590492,0.341523 l -0.6156,-0.289872 -0.642862,1.113514 0.5589,0.388168 a 2.0204565,2.0204565 0 0 0 -0.0309,0.340792 2.0204565,2.0204565 0 0 0 0.02945,0.342238 l -0.557575,0.387 0.642863,1.11352 0.614144,-0.289143 a 2.0204565,2.0204565 0 0 0 0.591894,0.339363 l 0.0567,0.678724 h 1.285721 l 0.05668,-0.677314 a 2.0204565,2.0204565 0 0 0 0.590472,-0.341522 l 0.615601,0.289862 0.642863,-1.113513 -0.5589,-0.388153 a 2.0204565,2.0204565 0 0 0 0.0309,-0.340804 2.0204565,2.0204565 0 0 0 -0.02945,-0.342242 l 0.557489,-0.386718 -0.642861,-1.11352 -0.61414,0.289154 a 2.0204565,2.0204565 0 0 0 -0.59187,-0.33857 l -0.05668,-0.678737 h -1.285727 z m 0.642848,1.836685 a 0.73469988,0.73469988 0 0 1 0.73457,0.734573 0.73469988,0.73469988 0 0 1 -0.73457,0.734579 0.73469988,0.73469988 0 0 1 -0.73457,-0.734579 0.73469988,0.73469988 0 0 1 0.73457,-0.734573 z"
     id="path5"
     style="stroke-width:0.85714" />
</svg>
