<?xml version="1.0" encoding="UTF-8" standalone="no"?>
<svg
   width="48"
   height="48"
   version="1.1"
   id="svg29"
   sodipodi:docname="org.gnome.Polari.svg"
   inkscape:version="1.4.1 (unknown)"
   xmlns:inkscape="http://www.inkscape.org/namespaces/inkscape"
   xmlns:sodipodi="http://sodipodi.sourceforge.net/DTD/sodipodi-0.dtd"
   xmlns:xlink="http://www.w3.org/1999/xlink"
   xmlns="http://www.w3.org/2000/svg"
   xmlns:svg="http://www.w3.org/2000/svg"
   xmlns:rdf="http://www.w3.org/1999/02/22-rdf-syntax-ns#"
   xmlns:cc="http://creativecommons.org/ns#"
   xmlns:dc="http://purl.org/dc/elements/1.1/">
  <metadata
     id="metadata33">
    <rdf:RDF>
      <cc:Work
         rdf:about="">
        <dc:format>image/svg+xml</dc:format>
        <dc:type
           rdf:resource="http://purl.org/dc/dcmitype/StillImage" />
      </cc:Work>
    </rdf:RDF>
  </metadata>
  <sodipodi:namedview
     pagecolor="#ffffff"
     bordercolor="#666666"
     borderopacity="1"
     objecttolerance="10"
     gridtolerance="10"
     guidetolerance="10"
     inkscape:pageopacity="0"
     inkscape:pageshadow="2"
     inkscape:window-width="1920"
     inkscape:window-height="998"
     id="namedview31"
     showgrid="true"
     inkscape:zoom="11.42"
     inkscape:cx="26.926445"
     inkscape:cy="20.884413"
     inkscape:window-x="0"
     inkscape:window-y="0"
     inkscape:window-maximized="1"
     inkscape:current-layer="svg29"
     inkscape:showpageshadow="2"
     inkscape:pagecheckerboard="0"
     inkscape:deskcolor="#d1d1d1">
    <inkscape:grid
       id="grid1"
       units="px"
       originx="0"
       originy="0"
       spacingx="1"
       spacingy="1"
       empcolor="#0099e5"
       empopacity="0.30196078"
       color="#0099e5"
       opacity="0.14901961"
       empspacing="5"
       enabled="true"
       visible="true" />
  </sodipodi:namedview>
  <defs
     id="defs17">
    <linearGradient
       inkscape:collect="always"
       id="linearGradient4580">
      <stop
         style="stop-color:#ffffff;stop-opacity:1;"
         offset="0"
         id="stop4576" />
      <stop
         style="stop-color:#77c154;stop-opacity:1"
         offset="1"
         id="stop4578" />
    </linearGradient>
    <linearGradient
       inkscape:collect="always"
       id="linearGradient4572">
      <stop
         style="stop-color:#57a12b;stop-opacity:1"
         offset="0"
         id="stop4568" />
      <stop
         style="stop-color:#a0e07b;stop-opacity:1"
         offset="1"
         id="stop4570" />
    </linearGradient>
    <linearGradient
       inkscape:collect="always"
       id="linearGradient4559">
      <stop
         style="stop-color:#000000;stop-opacity:1;"
         offset="0"
         id="stop4555" />
      <stop
         style="stop-color:#000000;stop-opacity:0;"
         offset="1"
         id="stop4557" />
    </linearGradient>
    <linearGradient
       inkscape:collect="always"
       xlink:href="#linearGradient4559"
       id="linearGradient4561"
       x1="17.074766"
       y1="11.643701"
       x2="35.911217"
       y2="30.48015"
       gradientUnits="userSpaceOnUse" />
    <linearGradient
       inkscape:collect="always"
       xlink:href="#linearGradient4572"
       id="linearGradient4574"
       x1="16.959721"
       y1="40.287216"
       x2="16.959721"
       y2="4.3852892"
       gradientUnits="userSpaceOnUse" />
    <linearGradient
       inkscape:collect="always"
       xlink:href="#linearGradient4580"
       id="linearGradient4582"
       x1="25.535902"
       y1="6.0402803"
       x2="26"
       y2="31"
       gradientUnits="userSpaceOnUse" />
  </defs>
  <g
     id="g1"
     transform="matrix(1.05,0,0,1.05,-1.2,-1.2)">
    <path
       inkscape:connector-curvature="0"
       style="fill:url(#linearGradient4574);fill-opacity:1;fill-rule:evenodd"
       id="path19"
       d="M 44,7.8095238 V 34 H 24 L 13,44 V 34 H 4 V 8.7619048 C 4,5.9403065 5.9047619,4 8.7619048,4 H 39.238095 C 42.095238,4 44,5.9370085 44,7.8095238 Z"
       sodipodi:nodetypes="cccccccccc" />
    <path
       style="opacity:0.2;vector-effect:none;fill:url(#linearGradient4561);fill-opacity:1;stroke:none;stroke-width:2.2174;stroke-linecap:round;stroke-linejoin:round;stroke-miterlimit:4;stroke-dasharray:none;stroke-dashoffset:0;stroke-opacity:1"
       d="M 23,7 21.082031,8.9179688 20.515625,15.0625 19.15625,14.675781 12,16 18.275391,22.275391 17.9375,23.285156 16.082031,23.609375 11,24 l 6,6 -1,1 5.380859,5.380859 L 24,34 H 44 V 19.955078 L 31.333984,7.2890625 31.042969,7 29.623047,8.0917969 28.505859,12.505859 24.810547,8.8105469 Z"
       id="rect4542" />
    <path
       style="opacity:1;vector-effect:none;fill:url(#linearGradient4582);fill-opacity:1;stroke:none;stroke-width:1.9333;stroke-linecap:round;stroke-linejoin:round;stroke-miterlimit:4;stroke-dasharray:none;stroke-dashoffset:0;stroke-opacity:1"
       d="m 21,7 -1.458984,7 H 12.5 L 12,16 h 7.125 l -1.25,6 H 11.5 L 11,24 h 6.458984 L 16,31 h 2 l 1.458984,-7 h 6 L 24,31 h 2 l 1.458984,-7 H 35 l 0.5,-2 h -7.625 l 1.25,-6 H 36 l 0.5,-2 H 29.541016 L 31,7 h -2 l -1.458984,7 h -6 L 23,7 Z m 0.125,9 h 6 l -1.25,6 h -6 z"
       id="rect4514"
       inkscape:connector-curvature="0" />
    <path
       style="opacity:0.2;fill:#000000;fill-opacity:1;fill-rule:evenodd"
       d="m 4,33 v 1 h 9 v -1 z m 20,0 -11,10 v 1 L 24,34 h 20 v -1 z"
       id="path4563" />
  </g>
</svg>
