<?xml version="1.0" encoding="UTF-8" standalone="no"?>
<svg
   viewBox="0 0 64 64"
   version="1.1"
   id="svg4"
   sodipodi:docname="folder-build.svg"
   inkscape:version="1.4.2 (unknown)"
   xmlns:inkscape="http://www.inkscape.org/namespaces/inkscape"
   xmlns:sodipodi="http://sodipodi.sourceforge.net/DTD/sodipodi-0.dtd"
   xmlns="http://www.w3.org/2000/svg"
   xmlns:svg="http://www.w3.org/2000/svg">
  <sodipodi:namedview
     id="namedview4"
     pagecolor="#ffffff"
     bordercolor="#000000"
     borderopacity="0.25"
     inkscape:showpageshadow="2"
     inkscape:pageopacity="0.0"
     inkscape:pagecheckerboard="0"
     inkscape:deskcolor="#d1d1d1"
     inkscape:zoom="11.890625"
     inkscape:cx="31.95795"
     inkscape:cy="32"
     inkscape:current-layer="svg4" />
  <defs
     id="defs3051">
    <style
       type="text/css"
       id="current-color-scheme">
      .ColorScheme-Text {
      color:#232629;
      }
      .ColorScheme-Accent {
      color:#3daee9;
      }
    </style>
  </defs>
  <path
     style="fill:currentColor"
     d="m 9,6.000034 c -3,0 -5,2 -4.992,5.197014 L 4,20 c -0.5255187,0 -1,0.363715 -1,1 l 0.008,0.197048 H 3.01 c -5e-5,0.004 -0.002,0.008 -0.002,0.01172 L 3,53 c 0,3 2,5 5,5 v 0 h 48 v 0 c 3,0 5,-2 5,-5 l 0.008,-31.791232 v -0.01172 L 61,17 c 0,-0.484427 -0.416433,-1 -1,-1 v 0 0 l 0.008,-0.802952 C 60,12 58,10 55,10 H 32 C 32,8 30,6 28,6.000034 Z"
     class="ColorScheme-Accent"
     id="path1" />
  <path
     style="fill-opacity:0.33"
     d="M 9,6 C 6,6 4,8 4.0000003,11 v 9 H 22 l 4,-4 h 34 v -1 0 0 c 0,-3 -2,-5 -5,-5 L 32,9.9999657 C 32,8 30,6 28,5.9999657 Z"
     id="path2" />
  <path
     style="fill-opacity:0.2"
     d="m 26,16 -6,3 H 4 v 1 H 22 Z M 5,57 c 0,0.416776 2,1 3,1 h 2 42 3 c 2.476706,0 4,-0.558829 4,-1 H 52 10 Z"
     class="ColorScheme-Text"
     id="path4" />
  <path
     style="color:#232629;fill:#e5e5e5;fill-opacity:1;stroke:none;stroke-width:0.999991"
     d="m 39.711301,25 -0.309262,1.058748 c -0.633383,-0.05291 -1.271468,0.01705 -1.878957,0.20473 l -0.527122,-0.967107 -1.748635,0.957359 0.527122,0.967107 c -0.486988,0.411302 -0.889685,0.911015 -1.18845,1.474059 l -1.052293,-0.30807 -0.560185,1.914716 1.056176,0.310021 c -0.05279,0.634921 0.01504,1.276504 0.202294,1.885469 l -0.964763,0.5284 0.955034,1.752882 0.964764,-0.530349 c 0.410304,0.488171 0.910757,0.893795 1.472435,1.193286 l -0.309271,1.054849 1.91202,0.561546 0.309273,-1.058748 c 0.633382,0.05291 1.271466,-0.01705 1.878956,-0.20473 l 0.529064,0.967107 1.746693,-0.957359 -0.527122,-0.967107 c 0.486988,-0.411302 0.889684,-0.911015 1.18845,-1.474059 L 44.439815,33.67082 45,31.756104 43.943813,31.446083 c 0.05279,-0.634921 -0.01504,-1.276504 -0.202283,-1.88547 l 0.964764,-0.528399 -0.955045,-1.752882 -0.964763,0.530349 C 42.37618,27.32151 41.875738,26.915886 41.314059,26.616395 l 0.309262,-1.054849 z m -0.984214,2.045354 c 0.197654,-0.01291 0.39709,-0.01088 0.595202,0.0059 0.264137,0.0223 0.527629,0.07036 0.785812,0.146236 0.993894,0.292503 1.835886,0.961508 2.345778,1.865972 0.529812,0.938406 0.658699,2.053263 0.35595,3.088504 -0.291795,0.996308 -0.959177,1.840344 -1.861449,2.351476 -0.936132,0.531098 -2.048288,0.6603 -3.081021,0.356816 -0.993893,-0.292503 -1.837827,-0.961508 -2.34772,-1.865972 -0.529811,-0.938406 -0.658698,-2.053263 -0.355949,-3.088505 0.291795,-0.996308 0.959177,-1.840343 1.861449,-2.351475 0.526574,-0.298743 1.108998,-0.470186 1.701948,-0.508901 z m -13.275229,2.916921 -1.982044,0.194981 0.10698,1.097745 c -0.607491,0.187682 -1.172983,0.489747 -1.666942,0.891065 l -0.851948,-0.699983 -1.264309,1.542303 0.850004,0.699982 c -0.298765,0.564043 -0.484684,1.180355 -0.552405,1.815277 L 19,35.610885 l 0.194509,1.98686 1.095084,-0.10724 c 0.187226,0.608965 0.488559,1.175831 0.888906,1.67099 l -0.698287,0.854018 1.538565,1.267379 0.698286,-0.852068 c 0.562676,0.299491 1.177495,0.485862 1.810879,0.553747 l 0.10698,1.093845 1.982044,-0.194981 -0.106979,-1.097745 c 0.607489,-0.187681 1.172981,-0.489747 1.66694,-0.891065 l 0.85195,0.699983 1.264305,-1.542303 -0.850002,-0.699982 c 0.298767,-0.564042 0.484685,-1.180355 0.552403,-1.815277 l 1.091201,-0.10724 -0.194516,-1.986859 -1.095082,0.107239 c -0.187227,-0.608965 -0.488559,-1.175831 -0.888906,-1.67099 l 0.698287,-0.854018 -1.538564,-1.267379 -0.698287,0.852068 C 26.80704,31.310376 26.192222,31.124005 25.558838,31.056121 Z m -0.02722,2.082401 c 0.76288,0.07361 1.494654,0.368093 2.102641,0.854018 0.841524,0.672857 1.375645,1.657513 1.480213,2.731689 0.10158,1.034243 -0.203675,2.067255 -0.850005,2.879875 -0.671226,0.843567 -1.655441,1.378986 -2.727013,1.483808 -1.031738,0.101827 -2.060301,-0.204169 -2.870951,-0.852069 -0.841524,-0.672857 -1.375645,-1.659463 -1.480213,-2.733638 -0.101581,-1.034244 0.203674,-2.065306 0.850004,-2.877926 0.671227,-0.843567 1.653497,-1.378986 2.72507,-1.483808 0.257933,-0.02551 0.515962,-0.02649 0.770254,-0.002 z m 8.581731,3.97567 v 1.103594 c -0.623424,0.127783 -1.215887,0.373927 -1.746694,0.72533 l -0.778035,-0.779925 -1.408242,1.411665 0.778035,0.779926 c -0.351547,0.532096 -0.598995,1.125994 -0.727464,1.750932 h -1.097031 v 1.996609 h 1.100925 c 0.127474,0.624939 0.373019,1.218836 0.72357,1.750933 l -0.778035,0.779925 1.408242,1.411665 0.778035,-0.779925 c 0.530807,0.352402 1.12327,0.600449 1.746694,0.729231 V 48 h 1.991771 v -1.103595 c 0.623424,-0.127783 1.215876,-0.373927 1.746682,-0.72533 L 38.522858,46.951 39.93111,45.539335 39.153074,44.75941 c 0.351547,-0.532097 0.598986,-1.125994 0.727454,-1.750933 h 1.097038 V 41.011868 H 39.876644 C 39.749172,40.38693 39.503626,39.793032 39.153074,39.260936 L 39.93111,38.48101 38.522858,37.069345 37.744822,37.84927 C 37.214016,37.496869 36.621564,37.248821 35.99814,37.12004 v -1.099694 z m 0.995885,1.996609 c 1.036717,0 2.031716,0.40517 2.775642,1.128941 0.771812,0.751724 1.207899,1.78511 1.207899,2.864277 0,1.039235 -0.40419,2.03665 -1.126207,2.782383 -0.749901,0.773686 -1.780782,1.210835 -2.857334,1.210835 -1.036717,0 -2.031715,-0.405171 -2.775642,-1.128942 -0.771811,-0.751723 -1.2079,-1.785109 -1.2079,-2.864276 0,-1.039235 0.40419,-2.03665 1.126207,-2.782384 0.749902,-0.773686 1.780782,-1.210834 2.857335,-1.210834 z"
     class="ColorScheme-Text"
     id="path1935" />
</svg>
