<?xml version="1.0" encoding="UTF-8" standalone="no"?>
<svg
   width="48"
   height="48"
   version="1.1"
   id="svg26"
   sodipodi:docname="copyq.svg"
   inkscape:version="1.4.1 (unknown)"
   xmlns:inkscape="http://www.inkscape.org/namespaces/inkscape"
   xmlns:sodipodi="http://sodipodi.sourceforge.net/DTD/sodipodi-0.dtd"
   xmlns:xlink="http://www.w3.org/1999/xlink"
   xmlns="http://www.w3.org/2000/svg"
   xmlns:svg="http://www.w3.org/2000/svg"
   xmlns:rdf="http://www.w3.org/1999/02/22-rdf-syntax-ns#"
   xmlns:cc="http://creativecommons.org/ns#"
   xmlns:dc="http://purl.org/dc/elements/1.1/">
  <metadata
     id="metadata32">
    <rdf:RDF>
      <cc:Work
         rdf:about="">
        <dc:format>image/svg+xml</dc:format>
        <dc:type
           rdf:resource="http://purl.org/dc/dcmitype/StillImage" />
      </cc:Work>
    </rdf:RDF>
  </metadata>
  <defs
     id="defs30">
    <linearGradient
       inkscape:collect="always"
       id="linearGradient953">
      <stop
         style="stop-color:#000000;stop-opacity:1;"
         offset="0"
         id="stop949" />
      <stop
         style="stop-color:#000000;stop-opacity:0;"
         offset="1"
         id="stop951" />
    </linearGradient>
    <linearGradient
       inkscape:collect="always"
       id="linearGradient937">
      <stop
         style="stop-color:#ffffff;stop-opacity:1;"
         offset="0"
         id="stop933" />
      <stop
         style="stop-color:#ffffff;stop-opacity:0;"
         offset="1"
         id="stop935" />
    </linearGradient>
    <linearGradient
       inkscape:collect="always"
       id="linearGradient912">
      <stop
         style="stop-color:#1f8f4a;stop-opacity:1"
         offset="0"
         id="stop908" />
      <stop
         style="stop-color:#61dc59;stop-opacity:1"
         offset="1"
         id="stop910" />
    </linearGradient>
    <linearGradient
       inkscape:collect="always"
       xlink:href="#linearGradient912"
       id="linearGradient914"
       x1="16.470697"
       y1="23.55711"
       x2="11.645522"
       y2="7.1235433"
       gradientUnits="userSpaceOnUse" />
    <linearGradient
       inkscape:collect="always"
       xlink:href="#linearGradient912"
       id="linearGradient926"
       gradientUnits="userSpaceOnUse"
       x1="16.470697"
       y1="23.55711"
       x2="11.645522"
       y2="7.1235433"
       gradientTransform="translate(20.000328)" />
    <radialGradient
       inkscape:collect="always"
       xlink:href="#linearGradient937"
       id="radialGradient939"
       cx="24"
       cy="25"
       fx="24"
       fy="25"
       r="2.0000009"
       gradientUnits="userSpaceOnUse"
       gradientTransform="matrix(1.7070974,-3.2596505e-7,2.9999987e-7,1.5711163,-16.970344,-14.277898)" />
    <linearGradient
       inkscape:collect="always"
       xlink:href="#linearGradient953"
       id="linearGradient955"
       x1="22.585787"
       y1="23.585787"
       x2="30.878027"
       y2="31.878027"
       gradientUnits="userSpaceOnUse" />
  </defs>
  <sodipodi:namedview
     pagecolor="#ffffff"
     bordercolor="#666666"
     borderopacity="1"
     objecttolerance="10"
     gridtolerance="10"
     guidetolerance="10"
     inkscape:pageopacity="0"
     inkscape:pageshadow="2"
     inkscape:window-width="1920"
     inkscape:window-height="998"
     id="namedview28"
     showgrid="false"
     inkscape:snap-object-midpoints="true"
     inkscape:zoom="11.42"
     inkscape:cx="22.197898"
     inkscape:cy="25.394046"
     inkscape:window-x="0"
     inkscape:window-y="0"
     inkscape:window-maximized="1"
     inkscape:current-layer="svg26"
     inkscape:showpageshadow="2"
     inkscape:pagecheckerboard="0"
     inkscape:deskcolor="#d1d1d1">
    <inkscape:grid
       type="xygrid"
       id="grid867"
       originx="0"
       originy="0"
       spacingy="1"
       spacingx="1"
       units="px"
       visible="false" />
  </sodipodi:namedview>
  <g
     id="g1"
     transform="matrix(1.05,0,0,1.05,-1.2,-1.2)">
    <path
       sodipodi:nodetypes="ccccsc"
       inkscape:connector-curvature="0"
       id="path890"
       d="m 30.432497,19.464636 c 0.837183,0.0017 1.672829,0.06866 2.498668,0.200076 L 18.881373,44 c -2.495944,-2.695159 -3.876365,-6.170037 -3.881537,-9.770842 3.2e-5,-5.474669 6.765713,-14.513024 11.392148,-17.062512 2.264346,-1.247811 1.239739,2.298019 4.040513,2.29799 z"
       style="opacity:1;fill:#b4b4b4;fill-opacity:1;stroke:none;stroke-width:0.522725;stroke-linecap:round;stroke-linejoin:round;stroke-miterlimit:4;stroke-dasharray:none;stroke-dashoffset:0;stroke-opacity:1;paint-order:normal" />
    <path
       sodipodi:nodetypes="ccccc"
       inkscape:connector-curvature="0"
       id="path837"
       d="m 32.391139,19.599609 c 0.180117,0.02244 0.361738,0.03592 0.541016,0.06445 L 18.881373,44 c 5.14e-4,0 0,-1 0,-1 z"
       style="opacity:0.4;fill:#ffffff;fill-opacity:1;stroke:none;stroke-width:0.522725;stroke-linecap:round;stroke-linejoin:round;stroke-miterlimit:4;stroke-dasharray:none;stroke-dashoffset:0;stroke-opacity:1;paint-order:normal" />
    <path
       style="opacity:1;fill:#c7c7c7;fill-opacity:1;stroke:none;stroke-width:0.522725;stroke-linecap:round;stroke-linejoin:round;stroke-miterlimit:4;stroke-dasharray:none;stroke-dashoffset:0;stroke-opacity:1;paint-order:normal"
       d="m 17.567503,19.464636 c -0.837183,0.0017 -1.672828,0.06866 -2.498667,0.200076 L 29.118627,44 c 2.495944,-2.695159 3.876364,-6.170037 3.881537,-9.770842 -3.1e-5,-5.474669 -6.765714,-14.513024 -11.392149,-17.062512 -2.264344,-1.247811 -1.239739,2.298019 -4.040512,2.29799 z"
       id="circle852"
       inkscape:connector-curvature="0"
       sodipodi:nodetypes="ccccsc" />
    <path
       style="opacity:0.4;fill:#ffffff;fill-opacity:1;stroke:none;stroke-width:0.522725;stroke-linecap:round;stroke-linejoin:round;stroke-miterlimit:4;stroke-dasharray:none;stroke-dashoffset:0;stroke-opacity:1;paint-order:normal"
       d="m 15.609375,19.599609 c -0.180117,0.02244 -0.361738,0.03592 -0.541016,0.06445 L 29.119141,44 c -5.14e-4,0 0,-1 0,-1 z"
       id="path832"
       inkscape:connector-curvature="0"
       sodipodi:nodetypes="ccccc" />
    <path
       style="opacity:1;fill:url(#linearGradient914);fill-opacity:1;stroke:none;stroke-width:0.34629;stroke-linecap:round;stroke-linejoin:round;stroke-miterlimit:4;stroke-dasharray:none;stroke-dashoffset:0;stroke-opacity:1;paint-order:normal"
       d="M 14,4 A 10,10 0 0 0 4,14 10,10 0 0 0 14,24 10,10 0 0 0 24,14 10,10 0 0 0 14,4 Z m 0,5 a 5.0000008,5.0000008 0 0 1 5,5 5.0000008,5.0000008 0 0 1 -5,5 5.0000008,5.0000008 0 0 1 -5,-5 5.0000008,5.0000008 0 0 1 5,-5 z"
       id="path962" />
    <path
       style="opacity:1;fill:url(#linearGradient926);fill-opacity:1;stroke:none;stroke-width:0.34629;stroke-linecap:round;stroke-linejoin:round;stroke-miterlimit:4;stroke-dasharray:none;stroke-dashoffset:0;stroke-opacity:1;paint-order:normal"
       d="M 34,4 A 10,10 0 0 0 24,14 10,10 0 0 0 34,24 10,10 0 0 0 44,14 10,10 0 0 0 34,4 Z m 0,5 a 5.0000008,5.0000008 0 0 1 5,5 5.0000008,5.0000008 0 0 1 -5,5 5.0000008,5.0000008 0 0 1 -5,-5 5.0000008,5.0000008 0 0 1 5,-5 z"
       id="path924" />
    <path
       style="opacity:0.2;fill:url(#linearGradient955);fill-opacity:1;stroke:none;stroke-width:1.12376;stroke-linecap:round;stroke-linejoin:round;stroke-miterlimit:4;stroke-dasharray:none;stroke-dashoffset:0;stroke-opacity:1;paint-order:normal"
       d="m 25.523438,23.707031 a 2,2 0 0 1 -0.109376,2.707031 2,2 0 0 1 -2.80664,0.01953 L 32.783203,36.609375 C 32.918142,35.826493 32.998847,35.031152 33,34.228516 c -7e-6,-1.167856 -0.320298,-2.501878 -0.849609,-3.896485 z"
       id="rect941" />
    <path
       style="opacity:1;fill:url(#radialGradient939);fill-opacity:1;stroke:none;stroke-width:2.145;stroke-linecap:round;stroke-linejoin:round;stroke-miterlimit:4;stroke-dasharray:none;stroke-dashoffset:0;stroke-opacity:1;paint-order:normal"
       d="m 22.585786,23.585786 a 2,2 0 0 0 0,2.828428 2,2 0 0 0 2.828428,0 2,2 0 0 0 0,-2.828428 2,2 0 0 0 -2.828428,0 z m 0.487517,0.926697 0.43918,-0.43918 1.414214,1.414214 -0.43918,0.43918 z"
       id="path928"
       inkscape:connector-curvature="0" />
  </g>
</svg>
