<?xml version="1.0" encoding="UTF-8" standalone="no"?>
<svg
   width="48"
   height="48"
   version="1.1"
   id="svg10"
   sodipodi:docname="diffuse.svg"
   inkscape:version="1.4.1 (unknown)"
   xmlns:inkscape="http://www.inkscape.org/namespaces/inkscape"
   xmlns:sodipodi="http://sodipodi.sourceforge.net/DTD/sodipodi-0.dtd"
   xmlns="http://www.w3.org/2000/svg"
   xmlns:svg="http://www.w3.org/2000/svg">
  <sodipodi:namedview
     id="namedview10"
     pagecolor="#ffffff"
     bordercolor="#000000"
     borderopacity="0.25"
     inkscape:showpageshadow="2"
     inkscape:pageopacity="0.0"
     inkscape:pagecheckerboard="0"
     inkscape:deskcolor="#d1d1d1"
     inkscape:zoom="16.145833"
     inkscape:cx="24"
     inkscape:cy="24"
     inkscape:window-width="1920"
     inkscape:window-height="998"
     inkscape:window-x="0"
     inkscape:window-y="0"
     inkscape:window-maximized="1"
     inkscape:current-layer="svg10" />
  <defs
     id="defs6">
    <linearGradient
       id="a"
       y1="543.8"
       y2="503.8"
       x2="0"
       gradientUnits="userSpaceOnUse">
      <stop
         stop-color="#faae2a"
         id="stop1" />
      <stop
         offset="1"
         stop-color="#ffc35a"
         id="stop2" />
    </linearGradient>
    <linearGradient
       id="b"
       y1="34"
       y2="13"
       x2="0"
       gradientUnits="userSpaceOnUse">
      <stop
         stop-color="#2a2c2f"
         id="stop3" />
      <stop
         offset="1"
         stop-color="#424649"
         id="stop4" />
    </linearGradient>
    <linearGradient
       id="c"
       y1="13"
       x1="13"
       y2="31"
       x2="31"
       gradientUnits="userSpaceOnUse">
      <stop
         stop-color="#383e51"
         id="stop5" />
      <stop
         offset="1"
         stop-color="#655c6f"
         stop-opacity="0"
         id="stop6" />
    </linearGradient>
  </defs>
  <g
     transform="matrix(1.05,0,0,1.05,-404.9985,-525.99)"
     id="g10">
    <path
       fill="url(#a)"
       fill-rule="evenodd"
       d="m 388.57,523.8 20,20 20,-20 -20,-20 z"
       id="path6"
       style="fill:url(#a)" />
    <path
       stroke-opacity="0.55"
       fill="url(#b)"
       stroke-width="2.8"
       d="m 25,13 v 6.986 l -4,4 L 21.014,24 H 21 v 10 h 2 v -9.186 l 2,-2 V 34 h 2 V 13 Z"
       transform="translate(384.57,499.8)"
       id="path7"
       style="fill:url(#b)" />
    <g
       fill-rule="evenodd"
       transform="translate(384.57,499.8)"
       id="g9">
      <path
         fill="#e78220"
         d="M 4.5,23.5 4,24 24,44 44,24 43.5,23.5 24,43 Z"
         id="path8" />
      <path
         opacity="0.2"
         fill="url(#c)"
         d="m 27,13 v 21 h -2 l 0.012,-11.207 -2.01,2 v 9.205 h -2 l 6.5,6.5 13.5,-13.5 z"
         id="path9"
         style="fill:url(#c)" />
    </g>
  </g>
</svg>
