<?xml version="1.0" encoding="UTF-8" standalone="no"?>
<svg
   width="48"
   height="48"
   version="1"
   id="svg14"
   sodipodi:docname="fluxgui.svg"
   inkscape:version="1.4.1 (unknown)"
   xmlns:inkscape="http://www.inkscape.org/namespaces/inkscape"
   xmlns:sodipodi="http://sodipodi.sourceforge.net/DTD/sodipodi-0.dtd"
   xmlns:xlink="http://www.w3.org/1999/xlink"
   xmlns="http://www.w3.org/2000/svg"
   xmlns:svg="http://www.w3.org/2000/svg"
   xmlns:rdf="http://www.w3.org/1999/02/22-rdf-syntax-ns#"
   xmlns:cc="http://creativecommons.org/ns#"
   xmlns:dc="http://purl.org/dc/elements/1.1/">
  <metadata
     id="metadata20">
    <rdf:RDF>
      <cc:Work
         rdf:about="">
        <dc:format>image/svg+xml</dc:format>
        <dc:type
           rdf:resource="http://purl.org/dc/dcmitype/StillImage" />
      </cc:Work>
    </rdf:RDF>
  </metadata>
  <defs
     id="defs18">
    <linearGradient
       inkscape:collect="always"
       id="linearGradient882">
      <stop
         style="stop-color:#ef483b;stop-opacity:1"
         offset="0"
         id="stop878" />
      <stop
         style="stop-color:#ff853c;stop-opacity:1"
         offset="1"
         id="stop880" />
    </linearGradient>
    <linearGradient
       inkscape:collect="always"
       id="linearGradient873">
      <stop
         style="stop-color:#000000;stop-opacity:1;"
         offset="0"
         id="stop869" />
      <stop
         style="stop-color:#000000;stop-opacity:0;"
         offset="1"
         id="stop871" />
    </linearGradient>
    <linearGradient
       inkscape:collect="always"
       id="linearGradient859">
      <stop
         style="stop-color:#4067a7;stop-opacity:1"
         offset="0"
         id="stop855" />
      <stop
         style="stop-color:#99b1d7;stop-opacity:1"
         offset="1"
         id="stop857" />
    </linearGradient>
    <linearGradient
       inkscape:collect="always"
       id="linearGradient844">
      <stop
         style="stop-color:#ffa103;stop-opacity:1"
         offset="0"
         id="stop840" />
      <stop
         style="stop-color:#ffe2aa;stop-opacity:1"
         offset="1"
         id="stop842" />
    </linearGradient>
    <linearGradient
       inkscape:collect="always"
       xlink:href="#linearGradient844"
       id="linearGradient846"
       x1="27.961679"
       y1="31.228661"
       x2="21"
       y2="1"
       gradientUnits="userSpaceOnUse" />
    <linearGradient
       inkscape:collect="always"
       xlink:href="#linearGradient859"
       id="linearGradient861"
       x1="23.475164"
       y1="41.516304"
       x2="19.47393"
       y2="23.708849"
       gradientUnits="userSpaceOnUse" />
    <linearGradient
       inkscape:collect="always"
       xlink:href="#linearGradient873"
       id="linearGradient875"
       x1="31.388672"
       y1="20.734375"
       x2="41.589394"
       y2="30.935097"
       gradientUnits="userSpaceOnUse" />
    <linearGradient
       inkscape:collect="always"
       xlink:href="#linearGradient882"
       id="linearGradient884"
       x1="29.665165"
       y1="19.509335"
       x2="33.754669"
       y2="32.693497"
       gradientUnits="userSpaceOnUse" />
  </defs>
  <sodipodi:namedview
     pagecolor="#ffffff"
     bordercolor="#666666"
     borderopacity="1"
     objecttolerance="10"
     gridtolerance="10"
     guidetolerance="10"
     inkscape:pageopacity="0"
     inkscape:pageshadow="2"
     inkscape:window-width="1920"
     inkscape:window-height="998"
     id="namedview16"
     showgrid="false"
     inkscape:zoom="13.152186"
     inkscape:cx="21.099154"
     inkscape:cy="29.576832"
     inkscape:window-x="0"
     inkscape:window-y="0"
     inkscape:window-maximized="1"
     inkscape:current-layer="svg14"
     inkscape:showpageshadow="2"
     inkscape:pagecheckerboard="0"
     inkscape:deskcolor="#d1d1d1">
    <inkscape:grid
       type="xygrid"
       id="grid850"
       originx="0"
       originy="0"
       spacingy="1"
       spacingx="1"
       units="px"
       visible="false" />
  </sodipodi:namedview>
  <g
     id="g1"
     transform="matrix(1.05,0,0,1.05,-1.2,-1.2)">
    <path
       style="opacity:1;fill:url(#linearGradient846);fill-opacity:1;stroke:none;stroke-width:2.29157;stroke-linecap:round;stroke-linejoin:round;stroke-miterlimit:4;stroke-dasharray:none;stroke-dashoffset:0;stroke-opacity:1;paint-order:normal"
       d="m 44,24 c 0,4.35783 -1.393755,8.390131 -3.75982,11.675459 -3.631147,5.04192 -9.091131,4.942527 -15.778996,4.942527 -8.47192,0 -16.1747185,-1.885545 -19.0895018,-9.324136 C 4.4861689,29.034 4,26.573776 4,24 4,12.954305 12.954305,4 24,4 35.045695,4 44,12.954305 44,24 Z"
       id="path838"
       inkscape:connector-curvature="0"
       sodipodi:nodetypes="sssssss" />
    <path
       style="opacity:0.3;fill:url(#linearGradient875);fill-opacity:1;stroke:none;stroke-width:2;stroke-linecap:round;stroke-linejoin:round;stroke-miterlimit:4;stroke-dasharray:none;stroke-dashoffset:0;stroke-opacity:1;paint-order:normal"
       d="m 31.388672,20.734375 -8.169922,6.84375 12.556641,12.556641 a 20,20 0 0 0 7.390625,-10.457032 l -8.007813,-8.009765 z"
       id="rect863" />
    <circle
       cx="31"
       cy="26"
       r="6"
       id="circle12"
       style="fill:url(#linearGradient884);fill-opacity:1" />
    <path
       style="opacity:1;fill:url(#linearGradient861);fill-opacity:1;stroke:none;stroke-width:1.86423;stroke-linecap:round;stroke-linejoin:round;stroke-miterlimit:4;stroke-dasharray:none;stroke-dashoffset:0;stroke-opacity:1;paint-order:normal"
       d="M 17.654297,23.001953 A 26.980007,17.762179 52.632447 0 0 9.1796875,26.089844 26.980007,17.762179 52.632447 0 0 5.5507812,31.675781 20,20 0 0 0 24,44 20,20 0 0 0 40.046875,35.896484 26.980007,17.762179 52.632447 0 0 39.53125,35.21875 26.980007,17.762179 52.632447 0 0 17.654297,23.001953 Z"
       id="path848" />
    <path
       d="M 4.0117,23.5 C 4.0076,23.667 4,23.832 4,24 4,35.08 12.92,44 24,44 35.08,44 44,35.08 44,24 44,23.832 43.992,23.667 43.988,23.5 43.724,34.346 34.912,43 24,43 13.088,43 4.276,34.346 4.012,23.5 Z"
       id="path8"
       inkscape:connector-curvature="0"
       style="opacity:0.2" />
  </g>
</svg>
