<?xml version="1.0" encoding="UTF-8" standalone="no"?>
<!-- Created with Inkscape (http://www.inkscape.org/) -->

<svg
   width="48"
   height="48"
   viewBox="0 0 12.7 12.7"
   version="1.1"
   id="svg4522"
   inkscape:version="1.4.1 (unknown)"
   sodipodi:docname="preferences-activities.svg"
   xmlns:inkscape="http://www.inkscape.org/namespaces/inkscape"
   xmlns:sodipodi="http://sodipodi.sourceforge.net/DTD/sodipodi-0.dtd"
   xmlns:xlink="http://www.w3.org/1999/xlink"
   xmlns="http://www.w3.org/2000/svg"
   xmlns:svg="http://www.w3.org/2000/svg"
   xmlns:rdf="http://www.w3.org/1999/02/22-rdf-syntax-ns#"
   xmlns:cc="http://creativecommons.org/ns#"
   xmlns:dc="http://purl.org/dc/elements/1.1/">
  <defs
     id="defs4516">
    <linearGradient
       inkscape:collect="always"
       id="linearGradient5254">
      <stop
         style="stop-color:#79b83c;stop-opacity:1"
         offset="0"
         id="stop5250" />
      <stop
         style="stop-color:#217537;stop-opacity:1"
         offset="1"
         id="stop5252" />
    </linearGradient>
    <linearGradient
       inkscape:collect="always"
       xlink:href="#linearGradient5254"
       id="linearGradient4520"
       x1="24.001953"
       y1="4.0078125"
       x2="24.001953"
       y2="45.306507"
       gradientUnits="userSpaceOnUse"
       gradientTransform="matrix(0.27847324,0,0,0.27847324,-0.05565833,284.24436)" />
  </defs>
  <sodipodi:namedview
     id="base"
     pagecolor="#ffffff"
     bordercolor="#666666"
     borderopacity="1.0"
     inkscape:pageopacity="0.0"
     inkscape:pageshadow="2"
     inkscape:zoom="9.95"
     inkscape:cx="19.19598"
     inkscape:cy="24.522613"
     inkscape:document-units="px"
     inkscape:current-layer="layer1"
     showgrid="false"
     units="px"
     inkscape:window-width="1920"
     inkscape:window-height="998"
     inkscape:window-x="0"
     inkscape:window-y="0"
     inkscape:window-maximized="1"
     inkscape:showpageshadow="2"
     inkscape:pagecheckerboard="0"
     inkscape:deskcolor="#d1d1d1" />
  <metadata
     id="metadata4519">
    <rdf:RDF>
      <cc:Work
         rdf:about="">
        <dc:format>image/svg+xml</dc:format>
        <dc:type
           rdf:resource="http://purl.org/dc/dcmitype/StillImage" />
      </cc:Work>
    </rdf:RDF>
  </metadata>
  <g
     inkscape:label="Layer 1"
     inkscape:groupmode="layer"
     id="layer1"
     transform="translate(0,-284.29999)">
    <g
       id="g1"
       transform="translate(-0.27757638,-0.2777557)">
      <path
         style="color:#000000;fill:url(#linearGradient4520);fill-opacity:1;stroke-width:0.835417;stroke-linejoin:round"
         d="m 6.628242,285.36039 c -0.190404,-3.3e-4 -0.3808638,0.009 -0.5705438,0.0289 l -0.1327098,0.86305 c -0.3514657,0.0521 -0.6960113,0.14431 -1.02687,0.2741 L 4.3531378,285.847 c -0.3481553,0.15625 -0.6792867,0.34754 -0.9882534,0.57149 l 0.316002,0.811 c -0.2789498,0.22109 -0.5318539,0.47277 -0.7543797,0.7505 l -0.8055055,-0.31428 c -0.2237117,0.30931 -0.4152104,0.64129 -0.5710875,0.98985 l 0.6744274,0.54003 c -0.065979,0.1656 -0.1227759,0.3346 -0.1696949,0.50648 -0.044069,0.17213 -0.07834,0.34664 -0.1027942,0.52265 l -0.8615265,0.13262 c -0.039602,0.37922 -0.040138,0.76174 -0.00155,1.14119 l 0.8631579,0.13214 c 0.05264,0.3514 0.144935,0.69592 0.2746661,1.02686 l -0.6798663,0.54438 c 0.156279,0.3482 0.3481789,0.67991 0.5721755,0.98881 l 0.8104006,-0.31652 c 0.2210171,0.27892 0.4728248,0.53247 0.750572,0.75487 l -0.3138299,0.80557 c 0.3093992,0.22367 0.640806,0.41521 0.9893416,0.57113 l 0.5406294,-0.67454 c 0.1654791,0.0668 0.3345077,0.12224 0.5063643,0.16912 0.1721208,0.044 0.3466998,0.0786 0.5226808,0.10263 l 0.1321666,0.8621 c 0.379248,0.0397 0.7617265,0.0397 1.1410873,0.002 l 0.1321659,-0.86315 c 0.3514915,-0.0521 0.6959809,-0.14433 1.0268701,-0.2741 l 0.5444367,0.67927 c 0.3481549,-0.1567 0.6798303,-0.34807 0.9887971,-0.57218 L 9.574037,294.62666 c 0.2789494,-0.22107 0.532399,-0.47278 0.754927,-0.7505 l 0.805507,0.31374 c 0.223706,-0.30932 0.415208,-0.64129 0.571087,-0.98986 l -0.674432,-0.54002 c 0.06604,-0.1656 0.122234,-0.3346 0.169152,-0.50648 0.04407,-0.17214 0.07841,-0.34664 0.102757,-0.52265 l 0.861532,-0.13211 c 0.03952,-0.37938 0.04071,-0.76173 0.0021,-1.14122 l -0.863705,-0.13209 c -0.05265,-0.35141 -0.144391,-0.69593 -0.274121,-1.02687 l 0.679868,-0.5449 c -0.156281,-0.34821 -0.348182,-0.67938 -0.572178,-0.98828 l -0.810398,0.31599 c -0.221016,-0.27913 -0.472834,-0.53206 -0.750551,-0.75444 l 0.3138328,-0.80556 c -0.3094002,-0.22376 -0.641321,-0.41534 -0.9898726,-0.57121 l -0.5400853,0.67454 c -0.1656207,-0.0668 -0.3343596,-0.12223 -0.5063643,-0.16928 -0.1721208,-0.044 -0.3466999,-0.0787 -0.5226812,-0.10231 l -0.1321649,-0.86218 c -0.1896238,-0.0188 -0.3795956,-0.0302 -0.5699995,-0.0305 z m -5.437e-4,2.78252 a 2.7847315,2.7847315 0 0 1 2.7847315,2.78478 2.7847315,2.7847315 0 0 1 -2.7847315,2.78478 2.7847315,2.7847315 0 0 1 -2.7847319,-2.78478 2.7847315,2.7847315 0 0 1 2.7847319,-2.78478 z"
         id="path32" />
      <path
         style="color:#000000;opacity:0.2;fill:#080808;fill-opacity:1;stroke-width:0.835417;stroke-linejoin:round"
         d="m 3.4497319,286.36014 c -0.028112,0.0189 -0.057098,0.0383 -0.084854,0.0574 l 0.2349617,0.6027 c 0.027133,-0.0226 0.05339,-0.0459 0.081047,-0.0688 z m 6.3548448,0.003 -0.2289788,0.58749 c 0.027639,0.0215 0.053922,0.0456 0.081043,0.0693 l 0.2327867,-0.59773 c -0.027823,-0.0192 -0.056669,-0.0388 -0.084854,-0.0574 z m -3.1768784,1.50398 a 2.7847315,2.7847315 0 0 0 -2.7847319,2.7842 2.7847315,2.7847315 0 0 0 0.0059,0.16215 2.7847315,2.7847315 0 0 1 2.7787491,-2.67058 2.7847315,2.7847315 0 0 1 2.7787493,2.62262 2.7847315,2.7847315 0 0 0 0.0059,-0.11419 2.7847315,2.7847315 0 0 0 -2.7847321,-2.78462 z m 4.9853237,0.58731 -0.58414,0.4684 c 0.02773,0.0712 0.05312,0.14191 0.07716,0.21363 l 0.602634,-0.48285 c -0.03013,-0.068 -0.06294,-0.13323 -0.09578,-0.19918 z m -9.9673832,0.002 c -0.032768,0.0661 -0.065598,0.13218 -0.095724,0.19955 l 0.5961064,0.47762 c 0.024737,-0.0724 0.050196,-0.14321 0.078319,-0.21378 z m 10.5455422,2.32406 c -0.0035,0.14776 -0.01135,0.29549 -0.02658,0.44267 l -0.86153,0.13228 c -0.0245,0.17585 -0.05874,0.35049 -0.102768,0.52263 -0.04689,0.17188 -0.103189,0.3409 -0.169149,0.50632 l 0.07838,0.063 c 0.03323,-0.0962 0.06383,-0.19436 0.09089,-0.29322 0.04413,-0.17214 0.0784,-0.34662 0.10278,-0.52264 l 0.861531,-0.13211 c 0.02495,-0.23879 0.03258,-0.4788 0.02658,-0.71851 z m -11.1275078,0.0199 c -0.00559,0.23279 0.0014,0.46588 0.025018,0.69785 l 0.8631576,0.13212 c 0.041386,0.27641 0.1080844,0.54801 0.1974332,0.81255 l 0.077232,-0.0621 C 2.0967853,292.05052 2.0044905,291.706 1.9518503,291.35444 l -0.8631576,-0.13199 c -0.014235,-0.14013 -0.021454,-0.28083 -0.025019,-0.4215 z m 10.5466298,2.32297 c -0.136778,0.27582 -0.295389,0.54054 -0.475907,0.7903 l -0.805506,-0.31388 c -0.222527,0.27774 -0.4759748,0.52959 -0.7549238,0.75053 l 0.081045,0.20785 c 0.2466958,-0.20462 0.4734138,-0.43241 0.6738818,-0.68259 l 0.805505,0.31379 c 0.223709,-0.30934 0.415207,-0.64129 0.571087,-0.98985 z m -9.9679275,0.002 -0.095723,0.077 c 0.1562783,0.34811 0.3481783,0.6798 0.5721749,0.9888 l 0.8104006,-0.31662 c 0.1990255,0.25126 0.4241131,0.48058 0.6695321,0.6864 l 0.081047,-0.20772 c -0.2777479,-0.22249 -0.5295558,-0.47588 -0.7505729,-0.75479 l -0.8104008,0.31651 c -0.1806661,-0.25041 -0.3393978,-0.51488 -0.4764526,-0.79036 z m 6.7149025,1.92874 c -0.3308897,0.12963 -0.6753788,0.22139 -1.0268701,0.27412 l -0.1321663,0.86314 c -0.3793603,0.0377 -0.7618391,0.0376 -1.1410872,-0.002 l -0.132166,-0.8618 c -0.1759808,-0.0249 -0.3505601,-0.058 -0.5226811,-0.10309 -0.1718564,-0.0467 -0.3408852,-0.10278 -0.5063642,-0.16911 l -0.5406298,0.67449 c -0.3171927,-0.14329 -0.6193521,-0.31602 -0.9044937,-0.51429 l -0.084854,0.21814 c 0.3093991,0.22367 0.6408059,0.4151 0.9893414,0.57099 l 0.5406297,-0.67424 c 0.1654793,0.0668 0.334508,0.12223 0.5063645,0.16912 0.1721208,0.044 0.3467,0.0786 0.5226809,0.10263 l 0.1321662,0.86211 c 0.379248,0.0397 0.7617268,0.0397 1.1410872,0.002 l 0.1321663,-0.86314 c 0.351491,-0.0521 0.6959808,-0.14433 1.0268701,-0.2741 l 0.5444365,0.67927 c 0.3481548,-0.1567 0.6798307,-0.34811 0.988797,-0.57219 l -0.084853,-0.21729 c -0.2848795,0.1985 -0.5870697,0.37128 -0.9039498,0.51395 z"
         id="path4509" />
    </g>
  </g>
</svg>
