<?xml version="1.0" encoding="UTF-8" standalone="no"?>
<svg
   width="48"
   height="48"
   version="1"
   id="svg12"
   sodipodi:docname="system-suspend.svg"
   inkscape:version="1.4.1 (unknown)"
   xmlns:inkscape="http://www.inkscape.org/namespaces/inkscape"
   xmlns:sodipodi="http://sodipodi.sourceforge.net/DTD/sodipodi-0.dtd"
   xmlns:xlink="http://www.w3.org/1999/xlink"
   xmlns="http://www.w3.org/2000/svg"
   xmlns:svg="http://www.w3.org/2000/svg"
   xmlns:rdf="http://www.w3.org/1999/02/22-rdf-syntax-ns#"
   xmlns:cc="http://creativecommons.org/ns#"
   xmlns:dc="http://purl.org/dc/elements/1.1/">
  <metadata
     id="metadata18">
    <rdf:RDF>
      <cc:Work
         rdf:about="">
        <dc:format>image/svg+xml</dc:format>
        <dc:type
           rdf:resource="http://purl.org/dc/dcmitype/StillImage" />
      </cc:Work>
    </rdf:RDF>
  </metadata>
  <defs
     id="defs16">
    <linearGradient
       inkscape:collect="always"
       id="linearGradient921">
      <stop
         style="stop-color:#ffffff;stop-opacity:1;"
         offset="0"
         id="stop917" />
      <stop
         style="stop-color:#ffffff;stop-opacity:0;"
         offset="1"
         id="stop919" />
    </linearGradient>
    <linearGradient
       inkscape:collect="always"
       id="linearGradient881">
      <stop
         style="stop-color:#000000;stop-opacity:1;"
         offset="0"
         id="stop877" />
      <stop
         style="stop-color:#000000;stop-opacity:0;"
         offset="1"
         id="stop879" />
    </linearGradient>
    <linearGradient
       inkscape:collect="always"
       id="linearGradient842">
      <stop
         style="stop-color:#125a72;stop-opacity:1"
         offset="0"
         id="stop838" />
      <stop
         style="stop-color:#53b3d3;stop-opacity:1"
         offset="1"
         id="stop840" />
    </linearGradient>
    <linearGradient
       inkscape:collect="always"
       xlink:href="#linearGradient842"
       id="linearGradient844"
       x1="32.260868"
       y1="40.95652"
       x2="26.282608"
       y2="5.9565215"
       gradientUnits="userSpaceOnUse" />
    <linearGradient
       inkscape:collect="always"
       xlink:href="#linearGradient881"
       id="linearGradient883"
       x1="16.09375"
       y1="10.097656"
       x2="40.438885"
       y2="34.442791"
       gradientUnits="userSpaceOnUse" />
    <linearGradient
       inkscape:collect="always"
       xlink:href="#linearGradient881"
       id="linearGradient885"
       x1="29"
       y1="12"
       x2="43.362061"
       y2="26.362061"
       gradientUnits="userSpaceOnUse" />
    <linearGradient
       inkscape:collect="always"
       xlink:href="#linearGradient881"
       id="linearGradient887"
       x1="19"
       y1="18"
       x2="38.717297"
       y2="37.717297"
       gradientUnits="userSpaceOnUse" />
    <linearGradient
       inkscape:collect="always"
       xlink:href="#linearGradient921"
       id="linearGradient923"
       x1="20.076855"
       y1="3.7787485"
       x2="30.727749"
       y2="43.528427"
       gradientUnits="userSpaceOnUse" />
  </defs>
  <sodipodi:namedview
     pagecolor="#ffffff"
     bordercolor="#666666"
     borderopacity="1"
     objecttolerance="10"
     gridtolerance="10"
     guidetolerance="10"
     inkscape:pageopacity="0"
     inkscape:pageshadow="2"
     inkscape:window-width="1920"
     inkscape:window-height="998"
     id="namedview14"
     showgrid="false"
     inkscape:zoom="10.564175"
     inkscape:cx="22.860279"
     inkscape:cy="36.207275"
     inkscape:window-x="0"
     inkscape:window-y="0"
     inkscape:window-maximized="1"
     inkscape:current-layer="svg12"
     inkscape:showpageshadow="2"
     inkscape:pagecheckerboard="0"
     inkscape:deskcolor="#d1d1d1">
    <inkscape:grid
       type="xygrid"
       id="grid846"
       originx="0"
       originy="0"
       spacingy="1"
       spacingx="1"
       units="px"
       visible="false" />
  </sodipodi:namedview>
  <g
     id="g1"
     transform="matrix(1.05,0,0,1.05,-1.2,-1.2)">
    <circle
       fill="#41a5c7"
       cx="24"
       cy="24"
       r="20"
       id="circle2"
       style="fill:url(#linearGradient844);fill-opacity:1" />
    <path
       d="M 43.979,23.418 A 20,20 0 0 1 24,43 20,20 0 0 1 4.022,23.582 20,20 0 0 0 4,24 20,20 0 0 0 24,44 20,20 0 0 0 44,24 20,20 0 0 0 43.979,23.418 Z"
       id="path10"
       inkscape:connector-curvature="0"
       style="opacity:0.2" />
    <path
       style="opacity:0.2;fill:url(#linearGradient885);fill-opacity:1;stroke:none;stroke-width:2.82843;stroke-linecap:round;stroke-linejoin:round;stroke-miterlimit:4;stroke-dasharray:none;stroke-dashoffset:0;stroke-opacity:1;paint-order:normal"
       d="m 37,12 v 1.414062 L 36.414062,14 l -4,4 H 37 v 2 H 29 L 41.888672,32.888672 A 20,20 0 0 0 44,24 20,20 0 0 0 43.082031,18.082031 Z m -8,2 2.292969,2.292969 L 33.585938,14 Z"
       id="rect851" />
    <path
       style="opacity:0.2;fill:url(#linearGradient887);fill-opacity:1;stroke:none;stroke-width:2.82843;stroke-linecap:round;stroke-linejoin:round;stroke-miterlimit:4;stroke-dasharray:none;stroke-dashoffset:0;stroke-opacity:1;paint-order:normal"
       d="m 27,18 v 1.414062 L 26.414062,20 l -4,4 H 27 v 2 h -8 l 15.185547,15.185547 a 20,20 0 0 0 7.703125,-8.296875 z m -8,2 2.292969,2.292969 L 23.585938,20 Z"
       id="path861" />
    <path
       style="opacity:1;fill:url(#linearGradient923);fill-opacity:1;stroke-width:2"
       d="M 16.09375,10.097656 A 15.99,16 0 0 0 8,24 a 15.99,16 0 0 0 15.988281,16 15.99,16 0 0 0 13.875,-8.085938 15.99,16 0 0 0 0.02148,-0.01172 L 36.40625,30.425781 A 13.992,14 0 0 1 36.398438,30.4375 13.992,14 0 0 1 29.984375,32 13.992,14 0 0 1 15.996094,18 13.992,14 0 0 1 17.566406,11.574219 Z M 29,12 v 2 h 4.585938 l -4,4 L 29,18.585938 V 20 h 8 v -2 h -4.585938 l 4,-4 L 37,13.414062 V 12 H 35.585938 Z M 14.605469,13.640625 A 15.99,16 0 0 0 13.996094,18 15.99,16 0 0 0 29.984375,34 15.99,16 0 0 0 34.359375,33.373047 13.992,14 0 0 1 23.988281,38 13.992,14 0 0 1 10,24 13.992,14 0 0 1 14.605469,13.640625 Z M 19,18 v 2 h 4.585938 l -4,4 L 19,24.585938 V 26 h 8 v -2 h -4.585938 l 4,-4 L 27,19.414062 V 18 h -1.414062 z"
       id="path904" />
    <path
       style="opacity:0.2;fill:url(#linearGradient883);fill-opacity:1;stroke:none;stroke-width:2.82843;stroke-linecap:round;stroke-linejoin:round;stroke-miterlimit:4;stroke-dasharray:none;stroke-dashoffset:0;stroke-opacity:1;paint-order:normal"
       d="M 17.566406,11.574219 A 13.992,14 0 0 0 15.996094,18 a 13.992,14 0 0 0 13.988281,14 13.992,14 0 0 0 6.414063,-1.5625 13.992,14 0 0 0 0.0078,-0.01172 l 1.478516,1.476563 a 15.99,16 0 0 1 -0.02148,0.01172 A 15.99,16 0 0 1 23.988281,40 15.99,16 0 0 1 13.105469,35.703125 l 8.072265,8.072266 A 20,20 0 0 0 24,44 20,20 0 0 0 40.802734,34.810547 Z m 3.583985,26.130859 a 13.992,14 0 0 0 1.927734,0.25 z"
       id="rect857" />
  </g>
</svg>
