<?xml version="1.0" encoding="UTF-8" standalone="no"?>
<svg
   style="isolation:isolate"
   viewBox="0 0 16 16"
   width="16pt"
   height="16pt"
   version="1.1"
   id="svg9"
   sodipodi:docname="lutris.svg"
   inkscape:version="1.4.2 (unknown)"
   xmlns:inkscape="http://www.inkscape.org/namespaces/inkscape"
   xmlns:sodipodi="http://sodipodi.sourceforge.net/DTD/sodipodi-0.dtd"
   xmlns="http://www.w3.org/2000/svg"
   xmlns:svg="http://www.w3.org/2000/svg"
   xmlns:rdf="http://www.w3.org/1999/02/22-rdf-syntax-ns#"
   xmlns:cc="http://creativecommons.org/ns#"
   xmlns:dc="http://purl.org/dc/elements/1.1/">
  <metadata
     id="metadata15">
    <rdf:RDF>
      <cc:Work
         rdf:about="">
        <dc:format>image/svg+xml</dc:format>
        <dc:type
           rdf:resource="http://purl.org/dc/dcmitype/StillImage" />
      </cc:Work>
    </rdf:RDF>
  </metadata>
  <defs
     id="defs13">
    <linearGradient
       id="_lgradient_25"
       x1="0.16668417"
       y1="0.19247989"
       x2="0.99440718"
       y2="0.72161746"
       gradientTransform="matrix(50.905351,-29.66348,34.144715,45.959579,-13.706692,28.930685)"
       gradientUnits="userSpaceOnUse"
       spreadMethod="pad">
      <stop
         offset="0%"
         stop-opacity="1"
         style="stop-color:#ff0087;stop-opacity:1"
         id="stop858" />
      <stop
         offset="98.69565217391305%"
         stop-opacity="1"
         style="stop-color:#ffe031;stop-opacity:1"
         id="stop860" />
    </linearGradient>
  </defs>
  <sodipodi:namedview
     pagecolor="#ffffff"
     bordercolor="#666666"
     borderopacity="1"
     objecttolerance="10"
     gridtolerance="10"
     guidetolerance="10"
     inkscape:pageopacity="0"
     inkscape:pageshadow="2"
     inkscape:window-width="1600"
     inkscape:window-height="841"
     id="namedview11"
     showgrid="false"
     inkscape:zoom="14.274718"
     inkscape:cx="7.1104732"
     inkscape:cy="16.392618"
     inkscape:window-x="0"
     inkscape:window-y="0"
     inkscape:window-maximized="1"
     inkscape:current-layer="svg9"
     inkscape:document-rotation="0"
     inkscape:showpageshadow="2"
     inkscape:pagecheckerboard="0"
     inkscape:deskcolor="#d1d1d1"
     inkscape:document-units="pt" />
  <linearGradient
     id="_lgradient_0"
     x1="0"
     y1="0.5"
     x2="1"
     y2="0.5"
     gradientTransform="matrix(46,0,0,46,1,1)"
     gradientUnits="userSpaceOnUse">
    <stop
       offset="0%"
       stop-opacity="1"
       style="stop-color:rgb(88,0,226)"
       id="stop2" />
    <stop
       offset="100%"
       stop-opacity="1"
       style="stop-color:rgb(255,0,230)"
       id="stop4" />
  </linearGradient>
  <path
     id="path7-3-5-2"
     style="isolation:isolate;fill:#f2f2f2;fill-opacity:1;stroke-width:0.696185;stroke-miterlimit:4;stroke-dasharray:none"
     d="M 8.0561328,2.0015335 C 7.628442,1.9892767 7.1973751,2.0508895 6.6732133,2.1722644 4.6882869,2.6318982 2.9739143,4.163943 2.3241302,6.1195608 1.9791959,7.1527171 1.9975879,8.3936424 2.2376266,9.4586763 c 0.4534486,2.0119947 1.862056,3.5257747 3.7913625,4.1844227 1.0192543,0.34964 2.2770322,0.47361 3.3277333,0.230297 1.3944676,-0.439134 2.4988296,-1.136582 3.1888726,-2.104163 0.680065,-0.995694 0.856637,-2.4317889 0.753113,-3.3633967 -0.04061,-0.2652874 -0.314075,-0.454539 -0.610458,-0.4222744 -0.296383,0.032265 -0.504094,0.2740368 -0.463629,0.5391302 0.333789,1.9853969 -0.709102,3.4079599 -2.222157,4.0880549 -0.7075062,0.222685 -1.4589315,0.23928 -2.2024273,0.0083 C 5.6783772,11.918327 4.6040308,9.6257477 5.4693713,7.563944 6.4054363,5.9483577 7.5595363,5.6621883 8.3357522,5.6517589 10.264388,5.6984026 11.194387,6.3462085 12.605161,6.8263869 13.178888,6.9984216 13.90449,6.6524586 13.939138,5.9438982 13.942243,5.6525512 13.869714,5.3964546 13.736917,5.1740921 13.861608,4.9931398 13.664967,4.8538319 13.680006,4.5822253 13.74061,3.4877411 13.28588,3.3577519 13.042991,3.1932346 11.594784,2.2123159 11.013913,2.9113547 10.971457,2.644999 c 0,0 -0.359896,-0.6335449 -0.597179,-0.034526 C 10.249336,2.9258899 10.026117,2.6407406 9.4178061,2.2747028 8.9081778,2.0998837 8.4838238,2.0137904 8.0561328,2.0015335 Z M 7.5648076,3.0520971 C 8.2554174,3.0307512 8.9804617,3.1857881 9.6188891,3.4049408 11.224463,3.9550045 10.048936,1.9029325 11.548148,4.1068342 9.1271018,3.8420739 5.6218305,4.9754873 4.7682368,7.3393377 4.0883941,9.5174036 4.961757,11.679012 6.4808565,12.749228 6.4343744,12.734721 6.3861365,12.721899 6.3408573,12.706356 4.7335345,12.155691 3.5663721,10.915687 3.1884075,9.2386233 2.9885631,8.3518988 2.9597044,7.2984478 3.2479736,6.4356025 3.7912281,4.8063573 5.2357317,3.5194431 6.8902312,3.1363243 7.1083346,3.0858193 7.3346045,3.0592124 7.5648076,3.0520971 Z"
     sodipodi:nodetypes="scccccccsccccccccsscscsscccccscss" />
  <g
     id="g1082"
     transform="matrix(0.25900498,0,0,0.25900498,1.793347,1.8569814)"
     style="stroke-width:3.86093">
    <ellipse
       style="fill:#151515;fill-opacity:1;stroke:none;stroke-width:0.842003;stroke-miterlimit:4;stroke-dasharray:none"
       id="path3026-6-2-4"
       cx="39.471931"
       cy="10.636346"
       rx="1.6870697"
       ry="1.7043319" />
    <path
       style="fill:#151515;fill-opacity:1;stroke:none;stroke-width:0.841995;stroke-miterlimit:4;stroke-dasharray:none"
       id="path3950-2-5-9"
       d="m 45.30747,13.491734 c 0,0 -0.218999,0.382379 -0.691343,0.611526 -0.193949,0.09409 -0.534557,-0.141942 -0.854239,0.186162 -0.678797,1.376467 0.979388,2.525671 1.7521,2.493145 0.772711,-0.0325 1.382316,-0.819055 1.350122,-1.502099 -0.03221,-1.05708 -1.55664,-1.788734 -1.55664,-1.788734 z" />
    <ellipse
       style="fill:#151515;fill-opacity:1;stroke:none;stroke-width:0.842003;stroke-miterlimit:4;stroke-dasharray:none"
       id="path3026-4-1-7-7"
       cx="45.78212"
       cy="11.842481"
       rx="0.8745473"
       ry="1.0990138" />
  </g>
</svg>
