<?xml version="1.0" encoding="UTF-8" standalone="no"?>
<svg
   width="48"
   height="48"
   version="1.1"
   id="svg12"
   sodipodi:docname="kfontview.svg"
   inkscape:version="1.4.1 (unknown)"
   xmlns:inkscape="http://www.inkscape.org/namespaces/inkscape"
   xmlns:sodipodi="http://sodipodi.sourceforge.net/DTD/sodipodi-0.dtd"
   xmlns:xlink="http://www.w3.org/1999/xlink"
   xmlns="http://www.w3.org/2000/svg"
   xmlns:svg="http://www.w3.org/2000/svg">
  <sodipodi:namedview
     id="namedview12"
     pagecolor="#ffffff"
     bordercolor="#000000"
     borderopacity="0.25"
     inkscape:showpageshadow="2"
     inkscape:pageopacity="0.0"
     inkscape:pagecheckerboard="0"
     inkscape:deskcolor="#d1d1d1"
     inkscape:zoom="11.416828"
     inkscape:cx="28.99229"
     inkscape:cy="38.670986"
     inkscape:window-width="1920"
     inkscape:window-height="998"
     inkscape:window-x="0"
     inkscape:window-y="0"
     inkscape:window-maximized="1"
     inkscape:current-layer="svg12" />
  <defs
     id="defs6">
    <linearGradient
       id="a"
       y1="543.8"
       y2="503.8"
       gradientUnits="userSpaceOnUse"
       x2="0"
       gradientTransform="matrix(1.01818,0,0,1,-466.41694,-517.38968)">
      <stop
         stop-color="#197cf1"
         id="stop1" />
      <stop
         offset="1"
         stop-color="#21c9fb"
         id="stop2" />
    </linearGradient>
    <linearGradient
       id="b"
       y1="524.8"
       y2="531.8"
       x1="401.57"
       gradientUnits="userSpaceOnUse"
       x2="408.57"
       gradientTransform="matrix(1.42857 0 0 1.42265-159.1-232.81)">
      <stop
         stop-color="#292c2f"
         id="stop3" />
      <stop
         offset="1"
         stop-opacity="0"
         id="stop4" />
    </linearGradient>
    <linearGradient
       xlink:href="#b"
       id="c"
       y1="9"
       x1="9"
       y2="23"
       x2="23"
       gradientUnits="userSpaceOnUse"
       gradientTransform="translate(-67.502483,53.353868)" />
    <linearGradient
       id="d"
       x1="391.74"
       x2="409.4"
       gradientUnits="userSpaceOnUse">
      <stop
         stop-color="#7cbaf8"
         id="stop5" />
      <stop
         offset="1"
         stop-color="#f4fcff"
         id="stop6" />
    </linearGradient>
    <linearGradient
       xlink:href="#d"
       id="e"
       y1="538.08"
       x1="409.41"
       y2="523.62"
       gradientUnits="userSpaceOnUse"
       x2="391.57"
       gradientTransform="matrix(1.3610328,0,0,1.3487854,-594.96272,-650.78513)" />
    <linearGradient
       id="b-3"
       y1="543.79999"
       y2="503.79999"
       gradientUnits="userSpaceOnUse"
       x2="0"
       gradientTransform="matrix(1.01818,0,0,1,-423.635,-443.8)">
      <stop
         stop-color="#197cf1"
         id="stop2-6" />
      <stop
         offset="1"
         stop-color="#21c9fb"
         id="stop4-7" />
    </linearGradient>
    <linearGradient
       id="c-5"
       y1="523.396"
       y2="531.12903"
       x1="401.569"
       gradientUnits="userSpaceOnUse"
       x2="408.569"
       gradientTransform="matrix(1.42857,0,0,1.42265,-579.67,-676.61)">
      <stop
         stop-color="#292c2f"
         id="stop7" />
      <stop
         offset="1"
         stop-opacity="0"
         id="stop9" />
    </linearGradient>
    <linearGradient
       id="d-3"
       y1="532.78998"
       y2="514.79999"
       x2="0"
       gradientUnits="userSpaceOnUse"
       gradientTransform="translate(-420.57,-443.8)">
      <stop
         stop-color="#7cbaf8"
         id="stop12" />
      <stop
         offset="1"
         stop-color="#f4fcff"
         id="stop14" />
    </linearGradient>
    <linearGradient
       id="d-2"
       x1="391.73999"
       x2="409.39999"
       gradientUnits="userSpaceOnUse">
      <stop
         stop-color="#7cbaf8"
         id="stop5-9" />
      <stop
         offset="1"
         stop-color="#f4fcff"
         id="stop6-1" />
    </linearGradient>
    <linearGradient
       inkscape:collect="always"
       xlink:href="#d-2"
       id="linearGradient13-2"
       gradientUnits="userSpaceOnUse"
       x1="391.73999"
       x2="409.39999"
       gradientTransform="matrix(1.35913,0,0,1.32697,-519.58812,-681.67203)" />
    <linearGradient
       id="linearGradient2"
       x1="391.73999"
       x2="409.39999"
       gradientUnits="userSpaceOnUse">
      <stop
         stop-color="#7cbaf8"
         id="stop1-7" />
      <stop
         offset="1"
         stop-color="#f4fcff"
         id="stop2-0" />
    </linearGradient>
    <linearGradient
       inkscape:collect="always"
       xlink:href="#b"
       id="linearGradient14"
       gradientUnits="userSpaceOnUse"
       gradientTransform="translate(7.121879,10.99797)"
       x1="9"
       y1="9"
       x2="23"
       y2="23" />
    <linearGradient
       inkscape:collect="always"
       xlink:href="#d"
       id="linearGradient15"
       gradientUnits="userSpaceOnUse"
       gradientTransform="matrix(1.3610328,0,0,1.3487854,-520.33836,-693.14103)"
       x1="409.41"
       y1="538.08"
       x2="391.57"
       y2="523.62" />
  </defs>
  <g
     id="g14"
     transform="translate(38.895484,-56.000021)">
    <path
       d="m -23,60 c -0.693,0 -1.35,0.11 -1.95,0.313 a 5.212,5.212 0 0 0 -1.59,0.857 c -0.45,0.361 -0.815,0.79 -1.067,1.27 A 3.33,3.33 0 0 0 -28,64 v 32 c 0,0.554 0.14,1.082 0.393,1.56 0.252,0.48 0.616,0.909 1.068,1.27 0.452,0.362 0.991,0.656 1.59,0.858 A 6.102,6.102 0 0 0 -23,100 h 22 c 0.693,0 1.35,-0.11 1.95,-0.313 A 5.212,5.212 0 0 0 2.54,98.83 C 2.99,98.469 3.355,98.04 3.607,97.56 A 3.33,3.33 0 0 0 4,96 V 70 L -6,60 Z"
       id="path24"
       style="fill:url(#b-3)"
       inkscape:connector-curvature="0" />
    <path
       d="m -6,60 v 8 c 0,0.554 0.335,1.055 0.877,1.416 C -4.581,69.778 -3.831,70 -3,70 H 4 L 3.234,69.234 -5.234,60.766 Z"
       id="path26"
       inkscape:connector-curvature="0"
       style="fill:#313437;fill-rule:evenodd" />
    <path
       d="M -6,68 4,79 v -9 z"
       id="path28"
       style="opacity:0.2;fill:url(#c-5);fill-rule:evenodd"
       inkscape:connector-curvature="0" />
  </g>
  <g
     id="g15"
     transform="translate(2.053604,-0.007991)">
    <path
       opacity="0.2"
       fill="url(#c)"
       d="m 18.841879,18.00797 -5.999999,14 12,12 16,-17 -5,-6 v 4 l -3,1 -11.684,-10 z"
       id="path9-3"
       style="fill:url(#linearGradient14);fill-rule:evenodd" />
    <path
       fill="url(#e)"
       d="m 17.309003,25.470283 2.71826,-7.627423 2.454589,7.627423 z m 7.586664,6.531346 h 1.946274 L 21.158059,15.998371 h -2.299648 l -6.015509,16.003258 h 1.946274 l 1.924528,-5.06239 h 6.413734 z"
       id="path10-6"
       style="fill:url(#linearGradient15);stroke-width:1.34295" />
    <path
       d="m 31.579868,30.632196 c -1.126719,0 -1.965302,-0.53875 -1.965302,-1.832545 0,-1.617576 0.993524,-2.135095 4.350575,-2.56636 0.02175,0 1.081868,-0.151274 1.081868,-0.151274 v 2.84635 c -0.773345,1.035036 -2.341781,1.703829 -3.467141,1.703829 m 3.511992,-0.151274 0.26503,1.272564 h 1.480093 v -8.496589 c 0,-2.587591 -1.833467,-3.342637 -4.173887,-3.342637 -1.678526,0 -3.246963,0.410034 -4.152144,0.883762 l 0.508316,1.380049 c 0.971778,-0.452497 2.385272,-0.776278 3.688679,-0.776278 1.633674,0 2.34178,0.733815 2.34178,2.135095 v 1.315027 l -1.191957,0.128716 c -3.048529,0.431266 -6.050847,0.841299 -6.050847,3.881387 0,2.156327 1.656779,3.147573 3.600336,3.147573 1.236809,0 2.650303,-0.388802 3.688679,-1.531323"
       id="path11-0"
       style="fill:url(#linearGradient13-2);stroke-width:1.34295" />
  </g>
</svg>
