<?xml version="1.0" encoding="UTF-8" standalone="no"?>
<svg
   width="48"
   height="48"
   version="1.1"
   id="svg14"
   sodipodi:docname="leonflix.svg"
   inkscape:version="1.4.1 (unknown)"
   xmlns:inkscape="http://www.inkscape.org/namespaces/inkscape"
   xmlns:sodipodi="http://sodipodi.sourceforge.net/DTD/sodipodi-0.dtd"
   xmlns:xlink="http://www.w3.org/1999/xlink"
   xmlns="http://www.w3.org/2000/svg"
   xmlns:svg="http://www.w3.org/2000/svg"
   xmlns:rdf="http://www.w3.org/1999/02/22-rdf-syntax-ns#"
   xmlns:cc="http://creativecommons.org/ns#"
   xmlns:dc="http://purl.org/dc/elements/1.1/">
  <metadata
     id="metadata20">
    <rdf:RDF>
      <cc:Work
         rdf:about="">
        <dc:format>image/svg+xml</dc:format>
        <dc:type
           rdf:resource="http://purl.org/dc/dcmitype/StillImage" />
      </cc:Work>
    </rdf:RDF>
  </metadata>
  <defs
     id="defs18">
    <linearGradient
       inkscape:collect="always"
       id="linearGradient857">
      <stop
         style="stop-color:#000000;stop-opacity:1;"
         offset="0"
         id="stop853" />
      <stop
         style="stop-color:#000000;stop-opacity:0;"
         offset="1"
         id="stop855" />
    </linearGradient>
    <linearGradient
       inkscape:collect="always"
       id="linearGradient839">
      <stop
         style="stop-color:#15913c;stop-opacity:1"
         offset="0"
         id="stop835" />
      <stop
         style="stop-color:#62e9d1;stop-opacity:1"
         offset="1"
         id="stop837" />
    </linearGradient>
    <linearGradient
       inkscape:collect="always"
       xlink:href="#a"
       id="linearGradient833"
       x1="33.328289"
       y1="43.678333"
       x2="23.375591"
       y2="2.6187322"
       gradientUnits="userSpaceOnUse"
       gradientTransform="matrix(1.05,0,0,1.05,-0.19999999,-0.19999999)" />
    <linearGradient
       inkscape:collect="always"
       xlink:href="#linearGradient839"
       id="linearGradient841"
       x1="27.025352"
       y1="40.605888"
       x2="21.949028"
       y2="5.5331073"
       gradientUnits="userSpaceOnUse"
       gradientTransform="matrix(1.05,0,0,1.05,-0.19999999,-0.19999999)" />
    <linearGradient
       inkscape:collect="always"
       xlink:href="#linearGradient857"
       id="linearGradient859"
       x1="25.107449"
       y1="18.543863"
       x2="40.246574"
       y2="33.682991"
       gradientUnits="userSpaceOnUse"
       gradientTransform="matrix(1.05,0,0,1.05,-0.19999999,-0.19999999)" />
    <linearGradient
       id="a"
       y1="785.71002"
       y2="727.71002"
       gradientUnits="userSpaceOnUse"
       x2="0"
       gradientTransform="matrix(0.72727,0,0,0.68966,-433.17398,-484.28383)">
      <stop
         stop-color="#2a2c2f"
         id="stop2" />
      <stop
         offset="1"
         stop-color="#424649"
         id="stop4" />
    </linearGradient>
  </defs>
  <sodipodi:namedview
     pagecolor="#ffffff"
     bordercolor="#666666"
     borderopacity="1"
     objecttolerance="10"
     gridtolerance="10"
     guidetolerance="10"
     inkscape:pageopacity="0"
     inkscape:pageshadow="2"
     inkscape:window-width="1920"
     inkscape:window-height="998"
     id="namedview16"
     showgrid="false"
     inkscape:zoom="11.33"
     inkscape:cx="19.0203"
     inkscape:cy="20.829656"
     inkscape:window-x="0"
     inkscape:window-y="0"
     inkscape:window-maximized="1"
     inkscape:current-layer="svg14"
     inkscape:showpageshadow="2"
     inkscape:pagecheckerboard="0"
     inkscape:deskcolor="#d1d1d1" />
  <g
     id="g1"
     transform="translate(-1,-1)">
    <path
       inkscape:connector-curvature="0"
       style="fill:url(#linearGradient833);fill-opacity:1;stroke-width:1.05"
       d="M 25,4 A 21,21 0 0 0 4,25 21,21 0 0 0 25,46 21,21 0 0 0 46,25 21,21 0 0 0 25,4 Z"
       id="path4" />
    <path
       style="opacity:0.3;fill:url(#linearGradient859);fill-opacity:1;stroke:none;stroke-width:3.15;stroke-linecap:round;stroke-linejoin:round;stroke-miterlimit:4;stroke-dasharray:none;stroke-dashoffset:0;stroke-opacity:1;paint-order:normal"
       d="m 29.9875,12.374413 5.261212,2.245409 3.730795,5.11886 -0.697761,5.516806 -2.648837,9.213484 -9.659349,1.411359 -13.06317,0.74592 9.142629,9.144059 C 23.028746,45.916001 24.013496,45.992758 25,46 36.597975,46 46,36.597975 46,25 45.992,24.007188 45.91273,23.016234 45.764151,22.034561 l -9.455394,-9.455393 z"
       id="rect843"
       inkscape:connector-curvature="0"
       sodipodi:nodetypes="ccccccccccccc" />
    <path
       inkscape:connector-curvature="0"
       style="fill:url(#linearGradient841);fill-opacity:1;stroke-width:1.05"
       d="M 25,8.2 A 16.8,16.8 0 0 0 8.2,25 16.8,16.8 0 0 0 25,41.8 16.8,16.8 0 0 0 41.8,25 16.8,16.8 0 0 0 25,8.2 Z m 8.574316,8.4 H 36.55 v 3.168458 h -1.521679 c -0.550338,0 -0.933246,0.09996 -1.150483,0.30147 C 33.660582,20.264258 33.4,20.605857 33.4,21.09531 V 21.85 h 3.15 V 25 H 33.4 v 8.4 H 29.2 V 25 h -2.1 v -3.15 h 2.1 v -1.384279 c 0,-1.317219 0.202696,-2.289983 0.941304,-2.916204 C 30.879933,16.916102 32.024653,16.6 33.574316,16.6 Z M 14.5,18.7 h 4.2 V 30.25 H 25 V 33.4 H 14.5 Z"
       id="path10" />
    <path
       style="opacity:0.2;fill:#000000;fill-opacity:1;stroke-width:1.05"
       d="M 4.0225584,24.388869 A 21,21 0 0 0 4,25 21,21 0 0 0 25,46 21,21 0 0 0 46,25 21,21 0 0 0 45.977436,24.561131 21,21 0 0 1 25,44.95 21,21 0 0 1 4.0225584,24.388869 Z"
       id="path826" />
  </g>
</svg>
