<?xml version="1.0" encoding="UTF-8" standalone="no"?>
<svg
   width="48"
   height="48"
   viewBox="0 0 48 48"
   version="1.1"
   id="svg12"
   sodipodi:docname="git-gui.svg"
   inkscape:version="1.3.2 (091e20ef0f, 2023-11-25)"
   xmlns:inkscape="http://www.inkscape.org/namespaces/inkscape"
   xmlns:sodipodi="http://sodipodi.sourceforge.net/DTD/sodipodi-0.dtd"
   xmlns:xlink="http://www.w3.org/1999/xlink"
   xmlns="http://www.w3.org/2000/svg"
   xmlns:svg="http://www.w3.org/2000/svg">
  <sodipodi:namedview
     id="namedview12"
     pagecolor="#ffffff"
     bordercolor="#999999"
     borderopacity="1"
     inkscape:showpageshadow="2"
     inkscape:pageopacity="0"
     inkscape:pagecheckerboard="0"
     inkscape:deskcolor="#d1d1d1"
     showgrid="true"
     inkscape:zoom="15.916667"
     inkscape:cx="24"
     inkscape:cy="24"
     inkscape:window-width="1920"
     inkscape:window-height="996"
     inkscape:window-x="0"
     inkscape:window-y="0"
     inkscape:window-maximized="1"
     inkscape:current-layer="svg12">
    <inkscape:grid
       id="grid12"
       units="px"
       originx="0"
       originy="0"
       spacingx="1"
       spacingy="1"
       empcolor="#0099e5"
       empopacity="0.30196078"
       color="#0099e5"
       opacity="0.14901961"
       empspacing="5"
       dotted="false"
       gridanglex="30"
       gridanglez="30"
       visible="true" />
  </sodipodi:namedview>
  <defs
     id="defs4">
    <linearGradient
       id="darker-shadow-6">
      <stop
         offset="0"
         style="stop-color:#31363b;stop-opacity:0.404"
         id="stop1" />
      <stop
         offset="1"
         style="stop-color:#31363b;stop-opacity:0;"
         id="stop2" />
    </linearGradient>
    <linearGradient
       id="shadow-3">
      <stop
         style="stop-color:#31363b;stop-opacity:0.208"
         offset="0"
         id="stop3" />
      <stop
         style="stop-color:#31363b;stop-opacity:0;"
         offset="1"
         id="stop4" />
    </linearGradient>
    <linearGradient
       xlink:href="#shadow-3"
       id="linearGradient4199"
       x1="23"
       y1="1034.362"
       x2="37"
       y2="1048.362"
       gradientUnits="userSpaceOnUse" />
    <linearGradient
       xlink:href="#shadow-3"
       id="linearGradient4203"
       gradientUnits="userSpaceOnUse"
       x1="23"
       y1="1034.362"
       x2="36"
       y2="1047.362"
       gradientTransform="translate(0,-8)" />
    <linearGradient
       xlink:href="#shadow-3"
       id="linearGradient4215"
       gradientUnits="userSpaceOnUse"
       gradientTransform="translate(0,-19)"
       x1="23"
       y1="1034.362"
       x2="36"
       y2="1047.362" />
    <linearGradient
       xlink:href="#shadow-3"
       id="linearGradient4227"
       gradientUnits="userSpaceOnUse"
       gradientTransform="translate(-6,-22)"
       x1="23"
       y1="1034.362"
       x2="36"
       y2="1047.362" />
    <linearGradient
       xlink:href="#darker-shadow-6"
       id="linearGradient4235"
       gradientUnits="userSpaceOnUse"
       gradientTransform="translate(-10,0)"
       x1="23"
       y1="1034.362"
       x2="30"
       y2="1041.362" />
    <linearGradient
       xlink:href="#darker-shadow-6"
       id="linearGradient4239"
       gradientUnits="userSpaceOnUse"
       gradientTransform="translate(-5,3)"
       x1="23"
       y1="1034.362"
       x2="28"
       y2="1039.362" />
  </defs>
  <g
     transform="translate(0,-1004.3622)"
     id="g12">
    <rect
       style="fill:#eff0f1;fill-opacity:1;stroke:none;stroke-width:1;stroke-linecap:round;stroke-linejoin:round;stroke-miterlimit:4;stroke-dasharray:none;stroke-opacity:1"
       width="40"
       height="40"
       x="4"
       y="1008.36"
       id="rect4"
       ry="3.0157068"
       rx="2.9528797" />
    <path
       style="fill:url(#linearGradient4199);fill-rule:evenodd;stroke:none;stroke-width:1px;stroke-linecap:butt;stroke-linejoin:miter;stroke-opacity:1;fill-opacity:1"
       d="m 8,1044.3622 4,4 25,0 -14,-14 0,10 z"
       id="path5" />
    <path
       d="m 8,1029.3622 7,7 8,-2 14,14 0,-8 -14,-14 0,3 z"
       style="fill:url(#linearGradient4203);fill-opacity:1;fill-rule:evenodd;stroke:none;stroke-width:1px;stroke-linecap:butt;stroke-linejoin:miter;stroke-opacity:1"
       id="path6" />
    <path
       style="fill:url(#linearGradient4215);fill-opacity:1;fill-rule:evenodd;stroke:none;stroke-width:1px;stroke-linecap:butt;stroke-linejoin:miter;stroke-opacity:1"
       d="m 8,1018.3622 8,8 7,0 14,14 0,-11 -14,-14 0,3 -6,0 0,3 -3,0 0,-3 z"
       id="path7" />
    <path
       style="fill:url(#linearGradient4227);fill-opacity:1;fill-rule:evenodd;stroke:none;stroke-width:1px;stroke-linecap:butt;stroke-linejoin:miter;stroke-opacity:1"
       d="m 20,1015.3622 -3,-3 0,3 z"
       id="path8" />
    <path
       style="fill:url(#linearGradient4235);fill-opacity:1;fill-rule:evenodd;stroke:none;stroke-width:1px;stroke-linecap:butt;stroke-linejoin:miter;stroke-opacity:1"
       d="m 11,1037.3622 0,4 6,0 -2,-2 0,-3 -2,-2 0,3 z"
       id="path9" />
    <path
       style="fill:#ed1515;fill-opacity:1;stroke:none;stroke-width:1;stroke-linecap:round;stroke-linejoin:round;stroke-miterlimit:4;stroke-dasharray:none;stroke-opacity:1"
       d="m 14,1012.3622 0,3 -6,0 0,3 6,0 0,3 3,0 0,-3 6,0 0,-3 -6,0 0,-3 z"
       id="path10" />
    <rect
       style="fill:#11d116;fill-opacity:1;stroke:none;stroke-width:1;stroke-linecap:round;stroke-linejoin:round;stroke-miterlimit:4;stroke-dasharray:none;stroke-opacity:1"
       width="15"
       height="3"
       x="8"
       y="1026.36"
       id="rect10" />
    <path
       style="fill:#31363b;fill-opacity:1;fill-rule:evenodd;stroke:none;stroke-width:1px;stroke-linecap:butt;stroke-linejoin:miter;stroke-opacity:1"
       d="m 8,1034.3622 0,10 15,0 0,-10 -8,0 0,5 3,0 0,-2 2,0 0,4 -9,0 0,-4 2,0 0,-3 z"
       id="path11" />
    <path
       d="m 15,1039.3622 2,2 3,0 0,-4 -2,0 0,2 z"
       style="fill:url(#linearGradient4239);fill-opacity:1;fill-rule:evenodd;stroke:none;stroke-width:1px;stroke-linecap:butt;stroke-linejoin:miter;stroke-opacity:1"
       id="path12" />
  </g>
</svg>
