<?xml version="1.0" encoding="UTF-8" standalone="no"?>
<svg
   viewBox="0 0 48 48"
   version="1.1"
   id="svg13"
   sodipodi:docname="kimagemapeditor.svg"
   inkscape:version="1.4.1 (unknown)"
   xmlns:inkscape="http://www.inkscape.org/namespaces/inkscape"
   xmlns:sodipodi="http://sodipodi.sourceforge.net/DTD/sodipodi-0.dtd"
   xmlns="http://www.w3.org/2000/svg"
   xmlns:svg="http://www.w3.org/2000/svg">
  <defs
     id="defs13" />
  <sodipodi:namedview
     id="namedview13"
     pagecolor="#ffffff"
     bordercolor="#000000"
     borderopacity="0.25"
     inkscape:showpageshadow="2"
     inkscape:pageopacity="0.0"
     inkscape:pagecheckerboard="0"
     inkscape:deskcolor="#d1d1d1"
     inkscape:zoom="8.0729167"
     inkscape:cx="21.739355"
     inkscape:cy="25.827097"
     inkscape:window-width="1920"
     inkscape:window-height="998"
     inkscape:window-x="0"
     inkscape:window-y="0"
     inkscape:window-maximized="1"
     inkscape:current-layer="svg13" />
  <linearGradient
     id="a"
     gradientUnits="userSpaceOnUse"
     x1="4"
     x2="4"
     y1="3"
     y2="45">
    <stop
       offset="0"
       stop-color="#27ae60"
       id="stop1" />
    <stop
       offset="1"
       stop-color="#2ecc71"
       id="stop2" />
  </linearGradient>
  <linearGradient
     id="b"
     gradientUnits="userSpaceOnUse"
     x1="4"
     x2="4"
     y1="3"
     y2="45">
    <stop
       offset="0"
       stop-color="#21c9fb"
       id="stop3" />
    <stop
       offset="1"
       stop-color="#197cf1"
       id="stop4" />
  </linearGradient>
  <path
     d="M 10 4 C 6.7 4 4 6.7 4 10 L 4 38 C 4 41.324 6.7 44 10 44 L 38 44 C 41.3 44 44 41.324 44 38 L 44 10 C 44 6.7 41.3 4 38 4 L 10 4 z "
     style="fill:#34495e"
     id="path4" />
  <path
     d="m10 3.9997556c-3.3 0-6 2.7-6 6.0001501v26.9999013c0 3.324 2.676139 6 6 6.00015h27.999717c3.3 0 6-2.7 6.000128-6.00015v-26.9999013c0-3.3-2.67614-6-6-6"
     fill="#34495e"
     id="path5" />
  <path
     style="fill:url(#a)"
     d="M 10 4 C 6.7 4 4 6.7 4 10 L 4 37 C 4 40.324 6.7 43 10 43 L 38 43 C 41.3 43 44 40.324 44 37 L 44 10 C 44 6.7 41.3 4 38 4 L 10 4 z "
     id="path6" />
  <path
     d="m 10,23.50004 c -3.3,0 -6,2.7 -6,6.00015 v 13.49995 h 39.999969 v -13.5 -3.3 -2.67614 -6 -6 -6"
     fill="#ffffff"
     fill-opacity="0.1"
     id="path7" />
  <path
     d="m24 3.9997556v39.0002014h13.999599c3.3 0 6-2.7 6-6.00015v-26.9999024c0-3.3239999-2.67614-6.0001501-6-6.0001501h-13.999599z"
     fill="#34495e"
     fill-opacity="0.1"
     id="path8" />
  <path
     d="M 13 13 L 13 35 L 35 35 L 35 13 L 13 13 z "
     style="fill:#f5a83b"
     id="path9" />
  <path
     style="fill:url(#b)"
     d="M 15 15 L 15 33 L 33 33 L 33 15 L 15 15 z "
     id="path26" />
  <path
     fill="#f1f2f3"
     d="M 18.5 16 A 2.5 2.5 0 0 0 16 18.5 A 2.5 2.5 0 0 0 18.5 21 A 2.5 2.5 0 0 0 21 18.5 A 2.5 2.5 0 0 0 18.5 16 z M 27 26 L 21 32 L 33 32 L 27 26 z M 20 27 L 15 32 L 19 32 L 22 29 L 20 27 z "
     id="path10" />
  <path
     d="M 38.9 7 C 37.8 7 36.7 7.4 35.9 8.2 C 34.7 9.4 32 16 32 16 L 33 17 C 33 17 40.2 15.7 41.8 14 C 43.4 12.45 43.4 9.8 41.8 8.2 C 41 7.4 39.9 7 38.8 7 z "
     style="fill:#0c69cf"
     id="path11" />
  <path
     d="M 38 6.9 A 3.5 3.5 0 0 0 34.6 10.4 A 3.5 3.5 0 0 0 38 13.9 A 3.5 3.5 0 0 0 41.6 10.4 A 3.5 3.5 0 0 0 38 6.9 z "
     style="fill:#ffffff"
     id="path12" />
  <path
     d="M 37.9 6 C 36.8 6 35.7 6.4 34.9 7.2 C 33.3 8.8 32 16 32 16 C 32 16 39.2 14.7 40.8 13 C 42.4 11.45 42.4 8.8 40.8 7.2 C 40 6.4 38.9 6 37.8 6 z M 37.8 7 A 3.1 3.1 0 0 1 40 7.95 A 3.1 3.1 0 0 1 40 12.3 A 3.1 3.1 0 0 1 37.9 13.2 A 3.1 3.1 0 0 1 35.7 12.3 A 3.1 3.1 0 0 1 35.7 7.95 A 3.1 3.1 0 0 1 37.8 7 z "
     style="fill:#1b91f4"
     id="path13" />
</svg>
