<?xml version="1.0" encoding="UTF-8" standalone="no"?>
<svg
   width="32"
   version="1.1"
   height="32"
   id="svg20"
   sodipodi:docname="preferences-desktop-locale.svg"
   inkscape:version="1.3.2 (091e20ef0f, 2023-11-25)"
   xmlns:inkscape="http://www.inkscape.org/namespaces/inkscape"
   xmlns:sodipodi="http://sodipodi.sourceforge.net/DTD/sodipodi-0.dtd"
   xmlns:xlink="http://www.w3.org/1999/xlink"
   xmlns="http://www.w3.org/2000/svg"
   xmlns:svg="http://www.w3.org/2000/svg"
   xmlns:rdf="http://www.w3.org/1999/02/22-rdf-syntax-ns#"
   xmlns:cc="http://creativecommons.org/ns#"
   xmlns:dc="http://purl.org/dc/elements/1.1/">
  <sodipodi:namedview
     pagecolor="#ffffff"
     bordercolor="#666666"
     borderopacity="1"
     objecttolerance="10"
     gridtolerance="10"
     guidetolerance="10"
     inkscape:pageopacity="0"
     inkscape:pageshadow="2"
     inkscape:window-width="1920"
     inkscape:window-height="994"
     id="namedview22"
     showgrid="true"
     inkscape:zoom="9.8125"
     inkscape:cx="19.821656"
     inkscape:cy="37.095541"
     inkscape:window-x="0"
     inkscape:window-y="0"
     inkscape:window-maximized="1"
     inkscape:current-layer="layer1"
     inkscape:showpageshadow="2"
     inkscape:pagecheckerboard="0"
     inkscape:deskcolor="#d1d1d1">
    <inkscape:grid
       type="xygrid"
       id="grid847"
       originx="0"
       originy="0"
       spacingy="1"
       spacingx="1"
       units="px"
       visible="true" />
  </sodipodi:namedview>
  <defs
     id="defs5455">
    <linearGradient
       inkscape:collect="always"
       xlink:href="#linearGradient4143"
       id="linearGradient4327"
       y1="545.79797"
       y2="517.79797"
       x2="0"
       gradientUnits="userSpaceOnUse" />
    <linearGradient
       inkscape:collect="always"
       id="linearGradient4143">
      <stop
         style="stop-color:#197cf1"
         id="stop4145" />
      <stop
         offset="1"
         style="stop-color:#20bcfa"
         id="stop4147" />
    </linearGradient>
    <linearGradient
       inkscape:collect="always"
       xlink:href="#linearGradient4290"
       id="linearGradient4783"
       y1="545.79797"
       y2="517.79797"
       gradientUnits="userSpaceOnUse"
       x2="0"
       gradientTransform="matrix(0.42857143,0,0,0.42857143,224.39796,298.98418)" />
    <linearGradient
       inkscape:collect="always"
       id="linearGradient4227">
      <stop
         style="stop-color:#292c2f"
         id="stop4229" />
      <stop
         offset="1"
         style="stop-opacity:0"
         id="stop4231" />
    </linearGradient>
    <linearGradient
       inkscape:collect="always"
       xlink:href="#linearGradient4227"
       id="linearGradient4996"
       y1="516.69788"
       x1="401.57144"
       y2="530.69788"
       x2="415.57144"
       gradientUnits="userSpaceOnUse"
       gradientTransform="translate(-12.5,3.099609)" />
    <linearGradient
       inkscape:collect="always"
       id="linearGradient4290">
      <stop
         style="stop-color:#7cbaf8"
         id="stop4292" />
      <stop
         offset="1"
         style="stop-color:#f4fcff"
         id="stop4294" />
    </linearGradient>
  </defs>
  <metadata
     id="metadata5458">
    <rdf:RDF>
      <cc:Work
         rdf:about="">
        <dc:format>image/svg+xml</dc:format>
        <dc:type
           rdf:resource="http://purl.org/dc/dcmitype/StillImage" />
      </cc:Work>
    </rdf:RDF>
  </metadata>
  <g
     inkscape:label="Capa 1"
     inkscape:groupmode="layer"
     id="layer1"
     transform="translate(-384.57143,-515.798)">
    <path
       inkscape:connector-curvature="0"
       style="fill:url(#linearGradient4327)"
       id="rect4304"
       d="m 414.57143,520.798 v 15 c 0,2 -1,3 -2.78158,3 h -4.21842 v 7 l -7,-7 h -10.93907 c -2.06093,0 -3.06093,-1 -3.06093,-3 v -15 c 0,-2 1,-3 3.14379,-3 h 21.78019 c 2.07602,0 3.07602,1 3.07602,3 z"
       sodipodi:nodetypes="cccccccccccc" />
    <path
       style="opacity:0.2;fill:url(#linearGradient4996);fill-rule:evenodd"
       id="path4905"
       d="m 402.97182,519.798 -1.90039,11 h -3 -3 -6 l 9,9 1,1 v -2.90039 h 7 v -15 l -3,-3 z" />
    <path
       inkscape:connector-curvature="0"
       style="fill:url(#linearGradient4783)"
       id="path4781"
       d="m 403.07143,519.89761 v 10.9 h -5 v 3 l -3,-3 h -6 v -10.9 z" />
    <path
       style="display:inline;opacity:0.1;stroke-width:0.497561"
       d="m 406.61516,528.61347 v 0.99512 h -2.39451 v 0.9961 h 0.40427 v -9.8e-4 h 2.98536 v 10e-4 h 1.38384 c -0.25523,0.88608 -0.81988,1.74128 -1.37023,2.3916 -0.69056,-0.80566 -0.89046,-1.22077 -0.95042,-1.39747 h -1.01456 c 0.0745,0.22773 0.35278,0.83474 1.38287,2.02425 -0.44467,0.44795 -0.78133,0.7133 -0.78133,0.7133 l 0.31098,0.95917 c 0,0 0.47005,-0.39864 1.05829,-1.01359 0.59023,0.63067 1.35212,1.38871 2.33717,2.29248 l 0.64042,-0.6307 c -1.05484,-0.94306 -1.82816,-1.69128 -2.39646,-2.29248 0.76172,-0.88804 1.5352,-2.02492 1.69871,-3.04853 h 1.68024 v 0.002 h 0.002 v -0.99609 h -3.98146 v -0.99512 z"
       id="path4" />
    <path
       style="display:inline;fill:#edf0f2;stroke-width:0.497561;fill-opacity:1"
       d="m 406.61516,528.11591 v 0.99512 h -2.39451 v 0.99609 h 0.40427 v -9.7e-4 h 2.98536 v 0.001 h 1.38384 c -0.25523,0.88608 -0.81988,1.74128 -1.37023,2.39159 -0.69056,-0.80565 -0.89046,-1.22076 -0.95042,-1.39747 h -1.01456 c 0.0745,0.22773 0.35278,0.83475 1.38287,2.02426 -0.44467,0.44795 -0.78133,0.7133 -0.78133,0.7133 l 0.31098,0.95917 c 0,0 0.47005,-0.39864 1.05829,-1.01359 0.59023,0.63067 1.35212,1.38871 2.33717,2.29247 l 0.64042,-0.63069 c -1.05484,-0.94306 -1.82816,-1.69128 -2.39646,-2.29248 0.76172,-0.88804 1.5352,-2.02492 1.69871,-3.04853 h 1.68024 v 0.002 h 0.002 v -0.99609 h -3.98146 v -0.99512 z"
       id="path5" />
    <path
       d="m 396.76441,528.5651 -0.44996,-1.49268 h -2.44882 l -0.44996,1.49268 h -1.31099 l 2.18061,-5.97073 h 1.60085 l 2.18927,5.97073 z m -0.71159,-2.4878 -0.96279,-2.55859 -0.94536,2.55859 z"
       id="path9"
       style="font-size:40px;line-height:1.25;display:inline;opacity:0.2;stroke-width:0.212219" />
    <path
       style="font-size:40px;line-height:1.25;display:inline;fill:#343434;stroke-width:0.212219;fill-opacity:1"
       d="m 396.76441,528.06753 -0.44996,-1.49268 h -2.44882 l -0.44996,1.49268 h -1.31099 l 2.18061,-5.97073 h 1.60085 l 2.18927,5.97073 z m -0.71159,-2.4878 -0.96279,-2.55859 -0.94536,2.55859 z"
       id="path10" />
  </g>
</svg>
