<?xml version="1.0" encoding="UTF-8" standalone="no"?>
<svg
   width="64"
   height="64"
   version="1.1"
   viewBox="0 0 16.933 16.933"
   id="svg144"
   sodipodi:docname="preferences-desktop-keyboard-shortcuts.svg"
   inkscape:version="1.4.1 (unknown)"
   xmlns:inkscape="http://www.inkscape.org/namespaces/inkscape"
   xmlns:sodipodi="http://sodipodi.sourceforge.net/DTD/sodipodi-0.dtd"
   xmlns:xlink="http://www.w3.org/1999/xlink"
   xmlns="http://www.w3.org/2000/svg"
   xmlns:svg="http://www.w3.org/2000/svg">
  <sodipodi:namedview
     id="namedview144"
     pagecolor="#ffffff"
     bordercolor="#000000"
     borderopacity="0.25"
     inkscape:showpageshadow="2"
     inkscape:pageopacity="0.0"
     inkscape:pagecheckerboard="0"
     inkscape:deskcolor="#d1d1d1"
     inkscape:zoom="24.21875"
     inkscape:cx="26.405161"
     inkscape:cy="33.630968"
     inkscape:window-width="1920"
     inkscape:window-height="998"
     inkscape:window-x="0"
     inkscape:window-y="0"
     inkscape:window-maximized="1"
     inkscape:current-layer="svg144" />
  <defs
     id="defs4">
    <linearGradient
       id="c">
      <stop
         stop-color="#fcfcfc"
         offset="0"
         id="stop1" />
      <stop
         stop-color="#e3e3e3"
         offset="1"
         id="stop2" />
    </linearGradient>
    <linearGradient
       id="b"
       x1="-241.22"
       x2="-241.22"
       y1="231.54"
       y2="240.93"
       gradientTransform="matrix(.31498 0 0 .31498 91.172 198.65)"
       gradientUnits="userSpaceOnUse">
      <stop
         stop-color="#e5e5e5"
         offset="0"
         id="stop3" />
      <stop
         stop-color="#b2b2b2"
         offset="1"
         id="stop4" />
    </linearGradient>
    <linearGradient
       id="a"
       x1="-230.59"
       x2="-128.89"
       y1="205.2"
       y2="247.06"
       gradientUnits="userSpaceOnUse"
       xlink:href="#c" />
  </defs>
  <g
     transform="translate(0 -280.07)"
     id="g144">
    <g
       transform="matrix(.5035 0 0 .50116 -.059227 148.3)"
       stroke-width="1.9907"
       id="g143">
      <rect
         x=".31629"
         y="270.52"
         width="33.234"
         height="18.603"
         ry=".70999"
         fill="url(#b)"
         stroke="#808080"
         stroke-linecap="round"
         stroke-linejoin="round"
         stroke-width=".26336"
         id="rect4" />
      <g
         transform="matrix(.31498 0 0 .31498 73.43 210.79)"
         opacity=".25"
         id="g73">
        <rect
           x="-230.59"
           y="201.44"
           width="6.5692"
           height="3.7538"
           ry=".54973"
           opacity="1"
           id="rect5" />
        <rect
           x="-222.96"
           y="201.44"
           width="6.5692"
           height="3.7538"
           ry=".54973"
           opacity="1"
           id="rect6" />
        <rect
           x="-215.24"
           y="201.44"
           width="6.5692"
           height="3.7538"
           ry=".54973"
           opacity="1"
           id="rect7" />
        <rect
           x="-207.61"
           y="201.44"
           width="6.5692"
           height="3.7538"
           ry=".54973"
           opacity="1"
           id="rect8" />
        <rect
           x="-199.89"
           y="201.44"
           width="6.5692"
           height="3.7538"
           ry=".54973"
           opacity="1"
           id="rect9" />
        <rect
           x="-192.27"
           y="201.44"
           width="6.5692"
           height="3.7538"
           ry=".54973"
           opacity="1"
           id="rect10" />
        <rect
           x="-184.55"
           y="201.44"
           width="6.5692"
           height="3.7538"
           ry=".54973"
           opacity="1"
           id="rect11" />
        <rect
           x="-176.92"
           y="201.44"
           width="6.5692"
           height="3.7538"
           ry=".54973"
           opacity="1"
           id="rect12" />
        <rect
           x="-169.2"
           y="201.44"
           width="6.5692"
           height="3.7538"
           ry=".54973"
           opacity="1"
           id="rect13" />
        <rect
           x="-161.58"
           y="201.44"
           width="6.5692"
           height="3.7538"
           ry=".54973"
           opacity="1"
           id="rect14" />
        <rect
           x="-153.86"
           y="201.44"
           width="6.5692"
           height="3.7538"
           ry=".54973"
           opacity="1"
           id="rect15" />
        <rect
           x="-146.23"
           y="201.44"
           width="6.5692"
           height="3.7538"
           ry=".54973"
           opacity="1"
           id="rect16" />
        <rect
           x="-132.82"
           y="201.44"
           width="4.5534"
           height="3.7538"
           ry=".54973"
           opacity="1"
           id="rect17" />
        <rect
           x="-230.59"
           y="206.34"
           width="7.0971"
           height="7.3317"
           ry=".78043"
           opacity="1"
           id="rect18" />
        <rect
           x="-222.12"
           y="206.34"
           width="7.0971"
           height="7.3317"
           ry=".78043"
           opacity="1"
           id="rect19" />
        <rect
           x="-213.65"
           y="206.34"
           width="7.0971"
           height="7.3317"
           ry=".78043"
           opacity="1"
           id="rect20" />
        <rect
           x="-205.19"
           y="206.34"
           width="7.0971"
           height="7.3317"
           ry=".78043"
           opacity="1"
           id="rect21" />
        <rect
           x="-196.72"
           y="206.34"
           width="7.0971"
           height="7.3317"
           ry=".78043"
           opacity="1"
           id="rect22" />
        <rect
           x="-188.25"
           y="206.34"
           width="7.0971"
           height="7.3317"
           ry=".78043"
           opacity="1"
           id="rect23" />
        <rect
           x="-179.79"
           y="206.34"
           width="7.0971"
           height="7.3317"
           ry=".78043"
           opacity="1"
           id="rect24" />
        <rect
           x="-171.32"
           y="206.34"
           width="7.0971"
           height="7.3317"
           ry=".78043"
           opacity="1"
           id="rect25" />
        <rect
           x="-163.16"
           y="206.34"
           width="7.0971"
           height="7.3317"
           ry=".78043"
           opacity="1"
           id="rect26" />
        <rect
           x="-154.7"
           y="206.34"
           width="7.0971"
           height="7.3317"
           ry=".78043"
           opacity="1"
           id="rect27" />
        <rect
           x="-146.23"
           y="206.34"
           width="7.0971"
           height="7.3317"
           ry=".78043"
           opacity="1"
           id="rect28" />
        <rect
           x="-137.78"
           y="206.34"
           width="9.5077"
           height="7.3317"
           ry=".78043"
           opacity="1"
           id="rect29" />
        <rect
           x="-138.44"
           y="201.44"
           width="4.5534"
           height="3.7538"
           ry=".54973"
           opacity="1"
           id="rect30" />
        <rect
           x="-230.35"
           y="214.78"
           width="10.264"
           height="7.2144"
           ry=".76795"
           opacity="1"
           id="rect31" />
        <rect
           x="-218.5"
           y="214.78"
           width="6.7805"
           height="7.214"
           ry=".7679"
           opacity="1"
           id="rect32" />
        <rect
           x="-210.38"
           y="214.78"
           width="6.7805"
           height="7.214"
           ry=".7679"
           opacity="1"
           id="rect33" />
        <rect
           x="-201.84"
           y="214.78"
           width="6.7805"
           height="7.214"
           ry=".7679"
           opacity="1"
           id="rect34" />
        <rect
           x="-193.72"
           y="214.78"
           width="6.7805"
           height="7.214"
           ry=".7679"
           opacity="1"
           id="rect35" />
        <rect
           x="-185.18"
           y="214.78"
           width="6.7805"
           height="7.214"
           ry=".7679"
           opacity="1"
           id="rect36" />
        <rect
           x="-177.06"
           y="214.78"
           width="6.7805"
           height="7.214"
           ry=".7679"
           opacity="1"
           id="rect37" />
        <rect
           x="-168.53"
           y="214.78"
           width="6.7805"
           height="7.214"
           ry=".7679"
           opacity="1"
           id="rect38" />
        <rect
           x="-160.41"
           y="214.78"
           width="6.7805"
           height="7.214"
           ry=".7679"
           opacity="1"
           id="rect39" />
        <rect
           x="-152.03"
           y="214.78"
           width="6.7805"
           height="7.214"
           ry=".7679"
           opacity="1"
           id="rect40" />
        <rect
           x="-143.91"
           y="214.78"
           width="6.7805"
           height="7.214"
           ry=".7679"
           opacity="1"
           id="rect41" />
        <rect
           x="-135.58"
           y="214.78"
           width="6.7805"
           height="7.214"
           ry=".7679"
           opacity="1"
           id="rect42" />
        <rect
           x="-230.35"
           y="223.18"
           width="12.732"
           height="7.2144"
           ry=".76795"
           opacity="1"
           id="rect43" />
        <rect
           x="-216.15"
           y="223.18"
           width="6.7805"
           height="7.214"
           ry=".7679"
           opacity="1"
           id="rect44" />
        <rect
           x="-208.09"
           y="223.18"
           width="6.7805"
           height="7.214"
           ry=".7679"
           opacity="1"
           id="rect45" />
        <rect
           x="-199.56"
           y="223.18"
           width="6.7805"
           height="7.214"
           ry=".7679"
           opacity="1"
           id="rect46" />
        <rect
           x="-191.44"
           y="223.18"
           width="6.7805"
           height="7.214"
           ry=".7679"
           opacity="1"
           id="rect47" />
        <rect
           x="-182.9"
           y="223.18"
           width="6.7805"
           height="7.214"
           ry=".7679"
           opacity="1"
           id="rect48" />
        <rect
           x="-174.78"
           y="223.18"
           width="6.7805"
           height="7.214"
           ry=".7679"
           opacity="1"
           id="rect49" />
        <rect
           x="-166.24"
           y="223.18"
           width="6.7805"
           height="7.214"
           ry=".7679"
           opacity="1"
           id="rect50" />
        <rect
           x="-158.12"
           y="223.18"
           width="6.7805"
           height="7.214"
           ry=".7679"
           opacity="1"
           id="rect51" />
        <rect
           x="-149.74"
           y="223.18"
           width="6.7805"
           height="7.214"
           ry=".7679"
           opacity="1"
           id="rect52" />
        <rect
           x="-141.2"
           y="223.18"
           width="13.063"
           height="7.214"
           ry=".7679"
           opacity="1"
           id="rect53" />
        <rect
           x="-230.35"
           y="231.45"
           width="15.175"
           height="7.2144"
           ry=".76795"
           opacity="1"
           id="rect54" />
        <rect
           x="-213.59"
           y="231.45"
           width="6.7805"
           height="7.214"
           ry=".7679"
           opacity="1"
           id="rect55" />
        <rect
           x="-205.47"
           y="231.45"
           width="6.7805"
           height="7.214"
           ry=".7679"
           opacity="1"
           id="rect56" />
        <rect
           x="-196.93"
           y="231.45"
           width="6.7805"
           height="7.214"
           ry=".7679"
           opacity="1"
           id="rect57" />
        <rect
           x="-188.81"
           y="231.45"
           width="6.7805"
           height="7.214"
           ry=".7679"
           opacity="1"
           id="rect58" />
        <rect
           x="-180.27"
           y="231.45"
           width="6.7805"
           height="7.214"
           ry=".7679"
           opacity="1"
           id="rect59" />
        <rect
           x="-172.15"
           y="231.45"
           width="6.7805"
           height="7.214"
           ry=".7679"
           opacity="1"
           id="rect60" />
        <rect
           x="-163.77"
           y="231.45"
           width="6.7805"
           height="7.214"
           ry=".7679"
           opacity="1"
           id="rect61" />
        <rect
           x="-147"
           y="231.45"
           width="18.862"
           height="7.214"
           ry=".7679"
           opacity="1"
           id="rect62" />
        <rect
           x="-155.41"
           y="231.45"
           width="6.7805"
           height="7.214"
           ry=".7679"
           opacity="1"
           id="rect63" />
        <rect
           x="-230.25"
           y="239.85"
           width="6.7805"
           height="7.214"
           ry=".7679"
           opacity="1"
           id="rect64" />
        <rect
           x="-222.13"
           y="239.85"
           width="6.7805"
           height="7.214"
           ry=".7679"
           opacity="1"
           id="rect65" />
        <rect
           x="-213.59"
           y="239.85"
           width="6.7805"
           height="7.214"
           ry=".7679"
           opacity="1"
           id="rect66" />
        <rect
           x="-205.47"
           y="239.85"
           width="6.7805"
           height="7.214"
           ry=".7679"
           opacity="1"
           id="rect67" />
        <rect
           x="-197.1"
           y="239.85"
           width="32.258"
           height="7.214"
           ry=".7679"
           opacity="1"
           id="rect68" />
        <rect
           x="-163.77"
           y="239.85"
           width="6.7805"
           height="7.214"
           ry=".7679"
           opacity="1"
           id="rect69" />
        <rect
           x="-155.41"
           y="239.85"
           width="6.7805"
           height="7.214"
           ry=".7679"
           opacity="1"
           id="rect70" />
        <rect
           x="-141.59"
           y="239.85"
           width="6.7805"
           height="7.214"
           ry=".7679"
           opacity="1"
           id="rect71" />
        <rect
           x="-134.28"
           y="243.08"
           width="5.3845"
           height="3.9857"
           ry=".42426"
           opacity="1"
           id="rect72" />
        <rect
           x="-147.5"
           y="243.08"
           width="5.3845"
           height="3.9857"
           ry=".42426"
           opacity="1"
           id="rect73" />
      </g>
      <g
         transform="matrix(.31498 0 0 .31498 73.43 210.55)"
         fill="url(#a)"
         stroke="#808080"
         stroke-linecap="round"
         stroke-linejoin="round"
         stroke-width=".65364"
         id="g142">
        <rect
           x="-230.59"
           y="201.44"
           width="6.5692"
           height="3.7538"
           ry=".54973"
           id="rect74" />
        <rect
           x="-222.96"
           y="201.44"
           width="6.5692"
           height="3.7538"
           ry=".54973"
           id="rect75" />
        <rect
           x="-215.24"
           y="201.44"
           width="6.5692"
           height="3.7538"
           ry=".54973"
           id="rect76" />
        <rect
           x="-207.61"
           y="201.44"
           width="6.5692"
           height="3.7538"
           ry=".54973"
           id="rect77" />
        <rect
           x="-199.89"
           y="201.44"
           width="6.5692"
           height="3.7538"
           ry=".54973"
           id="rect78" />
        <rect
           x="-192.27"
           y="201.44"
           width="6.5692"
           height="3.7538"
           ry=".54973"
           id="rect79" />
        <rect
           x="-184.55"
           y="201.44"
           width="6.5692"
           height="3.7538"
           ry=".54973"
           id="rect80" />
        <rect
           x="-176.92"
           y="201.44"
           width="6.5692"
           height="3.7538"
           ry=".54973"
           id="rect81" />
        <rect
           x="-169.2"
           y="201.44"
           width="6.5692"
           height="3.7538"
           ry=".54973"
           id="rect82" />
        <rect
           x="-161.58"
           y="201.44"
           width="6.5692"
           height="3.7538"
           ry=".54973"
           id="rect83" />
        <rect
           x="-153.86"
           y="201.44"
           width="6.5692"
           height="3.7538"
           ry=".54973"
           id="rect84" />
        <rect
           x="-146.23"
           y="201.44"
           width="6.5692"
           height="3.7538"
           ry=".54973"
           id="rect85" />
        <rect
           x="-132.82"
           y="201.44"
           width="4.5534"
           height="3.7538"
           ry=".54973"
           id="rect86" />
        <rect
           x="-230.59"
           y="206.34"
           width="7.0971"
           height="7.3317"
           ry=".78043"
           id="rect87" />
        <rect
           x="-222.12"
           y="206.34"
           width="7.0971"
           height="7.3317"
           ry=".78043"
           id="rect88" />
        <rect
           x="-213.65"
           y="206.34"
           width="7.0971"
           height="7.3317"
           ry=".78043"
           id="rect89" />
        <rect
           x="-205.19"
           y="206.34"
           width="7.0971"
           height="7.3317"
           ry=".78043"
           id="rect90" />
        <rect
           x="-196.72"
           y="206.34"
           width="7.0971"
           height="7.3317"
           ry=".78043"
           id="rect91" />
        <rect
           x="-188.25"
           y="206.34"
           width="7.0971"
           height="7.3317"
           ry=".78043"
           id="rect92"
           style="fill:#ff0000;fill-opacity:1" />
        <rect
           x="-179.79"
           y="206.34"
           width="7.0971"
           height="7.3317"
           ry=".78043"
           id="rect93" />
        <rect
           x="-171.32"
           y="206.34"
           width="7.0971"
           height="7.3317"
           ry=".78043"
           id="rect94" />
        <rect
           x="-163.16"
           y="206.34"
           width="7.0971"
           height="7.3317"
           ry=".78043"
           id="rect95" />
        <rect
           x="-154.7"
           y="206.34"
           width="7.0971"
           height="7.3317"
           ry=".78043"
           id="rect96" />
        <rect
           x="-146.23"
           y="206.34"
           width="7.0971"
           height="7.3317"
           ry=".78043"
           id="rect97" />
        <rect
           x="-137.78"
           y="206.34"
           width="9.5077"
           height="7.3317"
           ry=".78043"
           id="rect98" />
        <rect
           x="-138.44"
           y="201.44"
           width="4.5534"
           height="3.7538"
           ry=".54973"
           id="rect99" />
        <rect
           x="-230.35"
           y="214.78"
           width="10.264"
           height="7.2144"
           ry=".76795"
           id="rect100" />
        <rect
           x="-218.5"
           y="214.78"
           width="6.7805"
           height="7.214"
           ry=".7679"
           id="rect101" />
        <rect
           x="-210.38"
           y="214.78"
           width="6.7805"
           height="7.214"
           ry=".7679"
           id="rect102" />
        <rect
           x="-201.84"
           y="214.78"
           width="6.7805"
           height="7.214"
           ry=".7679"
           id="rect103" />
        <rect
           x="-193.72"
           y="214.78"
           width="6.7805"
           height="7.214"
           ry=".7679"
           id="rect104"
           style="fill:#ff0000;fill-opacity:1" />
        <rect
           x="-185.18"
           y="214.78"
           width="6.7805"
           height="7.214"
           ry=".7679"
           id="rect105" />
        <rect
           x="-177.06"
           y="214.78"
           width="6.7805"
           height="7.214"
           ry=".7679"
           id="rect106" />
        <rect
           x="-168.53"
           y="214.78"
           width="6.7805"
           height="7.214"
           ry=".7679"
           id="rect107" />
        <rect
           x="-160.41"
           y="214.78"
           width="6.7805"
           height="7.214"
           ry=".7679"
           id="rect108" />
        <rect
           x="-152.03"
           y="214.78"
           width="6.7805"
           height="7.214"
           ry=".7679"
           id="rect109" />
        <rect
           x="-143.91"
           y="214.78"
           width="6.7805"
           height="7.214"
           ry=".7679"
           id="rect110" />
        <rect
           x="-135.58"
           y="214.78"
           width="6.7805"
           height="7.214"
           ry=".7679"
           id="rect111" />
        <rect
           x="-230.35"
           y="223.18"
           width="12.732"
           height="7.2144"
           ry=".76795"
           id="rect112" />
        <rect
           x="-216.15"
           y="223.18"
           width="6.7805"
           height="7.214"
           ry=".7679"
           id="rect113" />
        <rect
           x="-208.09"
           y="223.18"
           width="6.7805"
           height="7.214"
           ry=".7679"
           id="rect114" />
        <rect
           x="-199.56"
           y="223.18"
           width="6.7805"
           height="7.214"
           ry=".7679"
           id="rect115" />
        <rect
           x="-191.44"
           y="223.18"
           width="6.7805"
           height="7.214"
           ry=".7679"
           id="rect116" />
        <rect
           x="-182.9"
           y="223.18"
           width="6.7805"
           height="7.214"
           ry=".7679"
           id="rect117" />
        <rect
           x="-174.78"
           y="223.18"
           width="6.7805"
           height="7.214"
           ry=".7679"
           id="rect118" />
        <rect
           x="-166.24"
           y="223.18"
           width="6.7805"
           height="7.214"
           ry=".7679"
           id="rect119" />
        <rect
           x="-158.12"
           y="223.18"
           width="6.7805"
           height="7.214"
           ry=".7679"
           id="rect120" />
        <rect
           x="-149.74"
           y="223.18"
           width="6.7805"
           height="7.214"
           ry=".7679"
           id="rect121" />
        <rect
           x="-141.2"
           y="223.18"
           width="13.063"
           height="7.214"
           ry=".7679"
           id="rect122" />
        <rect
           x="-230.35"
           y="231.45"
           width="15.175"
           height="7.2144"
           ry=".76795"
           id="rect123" />
        <rect
           x="-213.59"
           y="231.45"
           width="6.7805"
           height="7.214"
           ry=".7679"
           id="rect124" />
        <rect
           x="-205.47"
           y="231.45"
           width="6.7805"
           height="7.214"
           ry=".7679"
           id="rect125" />
        <rect
           x="-196.93"
           y="231.45"
           width="6.7805"
           height="7.214"
           ry=".7679"
           id="rect126" />
        <rect
           x="-188.81"
           y="231.45"
           width="6.7805"
           height="7.214"
           ry=".7679"
           id="rect127" />
        <rect
           x="-180.27"
           y="231.45"
           width="6.7805"
           height="7.214"
           ry=".7679"
           id="rect128" />
        <rect
           x="-172.15"
           y="231.45"
           width="6.7805"
           height="7.214"
           ry=".7679"
           id="rect129" />
        <rect
           x="-163.77"
           y="231.45"
           width="6.7805"
           height="7.214"
           ry=".7679"
           id="rect130" />
        <rect
           x="-147"
           y="231.45"
           width="18.862"
           height="7.214"
           ry=".7679"
           id="rect131" />
        <rect
           x="-155.41"
           y="231.45"
           width="6.7805"
           height="7.214"
           ry=".7679"
           id="rect132" />
        <rect
           x="-230.25"
           y="239.85"
           width="6.7805"
           height="7.214"
           ry=".7679"
           id="rect133" />
        <rect
           x="-222.13"
           y="239.85"
           width="6.7805"
           height="7.214"
           ry=".7679"
           id="rect134" />
        <rect
           x="-213.59"
           y="239.85"
           width="6.7805"
           height="7.214"
           ry=".7679"
           id="rect135" />
        <rect
           x="-205.47"
           y="239.85"
           width="6.7805"
           height="7.214"
           ry=".7679"
           id="rect136" />
        <rect
           x="-197.1"
           y="239.85"
           width="32.258"
           height="7.214"
           ry=".7679"
           id="rect137" />
        <rect
           x="-163.77"
           y="239.85"
           width="6.7805"
           height="7.214"
           ry=".7679"
           id="rect138" />
        <rect
           x="-155.41"
           y="239.85"
           width="6.7805"
           height="7.214"
           ry=".7679"
           id="rect139" />
        <rect
           x="-141.59"
           y="239.85"
           width="6.7805"
           height="7.214"
           ry=".7679"
           id="rect140" />
        <rect
           x="-134.28"
           y="243.08"
           width="5.3845"
           height="3.9857"
           ry=".42426"
           id="rect141" />
        <rect
           x="-147.5"
           y="243.08"
           width="5.3845"
           height="3.9857"
           ry=".42426"
           id="rect142" />
      </g>
    </g>
  </g>
</svg>
