<?xml version="1.0" encoding="UTF-8" standalone="no"?>
<svg
   width="16"
   height="16"
   version="1"
   id="svg3"
   sodipodi:docname="display.im6.svg"
   inkscape:version="1.3.2 (091e20ef0f, 2023-11-25)"
   xmlns:inkscape="http://www.inkscape.org/namespaces/inkscape"
   xmlns:sodipodi="http://sodipodi.sourceforge.net/DTD/sodipodi-0.dtd"
   xmlns="http://www.w3.org/2000/svg"
   xmlns:svg="http://www.w3.org/2000/svg">
  <defs
     id="defs3" />
  <sodipodi:namedview
     id="namedview3"
     pagecolor="#ffffff"
     bordercolor="#000000"
     borderopacity="0.25"
     inkscape:showpageshadow="2"
     inkscape:pageopacity="0.0"
     inkscape:pagecheckerboard="0"
     inkscape:deskcolor="#d1d1d1"
     inkscape:zoom="23.8125"
     inkscape:cx="17.154856"
     inkscape:cy="5.7532808"
     inkscape:window-width="1920"
     inkscape:window-height="994"
     inkscape:window-x="0"
     inkscape:window-y="0"
     inkscape:window-maximized="1"
     inkscape:current-layer="svg3" />
  <rect
     fill="#3e50b4"
     width="12"
     height="12"
     x="1.9999741"
     y="1.9996376"
     rx="0.60000026"
     ry="0.60000026"
     id="rect1"
     style="stroke-width:0.75" />
  <path
     fill="#ffbe4b"
     d="M 6.499991,7.2498586 7.195274,8.7312093 8.749949,8.9687569 7.624937,10.121867 7.890508,11.750001 6.499974,10.981286 5.10944,11.750001 5.375011,10.121867 4.249999,8.9687569 5.804675,8.7312093 Z"
     id="path1"
     style="stroke-width:0.839095" />
  <path
     fill="#ffbe4b"
     d="m 10.249992,3.4998583 0.695285,1.4813505 1.554671,0.2375479 -1.12501,1.1531079 L 11.640507,8 10.249975,7.2312838 8.859441,8 9.125012,6.3718646 8,5.2187567 9.554675,4.9812088 Z"
     id="path2"
     style="stroke-width:0.839095" />
  <path
     fill="#ffbe4b"
     d="m 10.249992,8.7498811 0.695285,1.4813499 1.554671,0.237551 -1.12501,1.153109 0.265569,1.628133 L 10.249975,12.481306 8.859441,13.250024 9.125012,11.621891 8,10.468782 9.554675,10.231231 Z"
     id="path3"
     style="stroke-width:0.839095" />
</svg>
