<?xml version="1.0" encoding="UTF-8" standalone="no"?>
<svg
   width="48"
   height="48"
   version="1"
   id="svg16"
   sodipodi:docname="fusion-icon.svg"
   inkscape:version="1.4.1 (unknown)"
   xmlns:inkscape="http://www.inkscape.org/namespaces/inkscape"
   xmlns:sodipodi="http://sodipodi.sourceforge.net/DTD/sodipodi-0.dtd"
   xmlns:xlink="http://www.w3.org/1999/xlink"
   xmlns="http://www.w3.org/2000/svg"
   xmlns:svg="http://www.w3.org/2000/svg"
   xmlns:rdf="http://www.w3.org/1999/02/22-rdf-syntax-ns#"
   xmlns:cc="http://creativecommons.org/ns#"
   xmlns:dc="http://purl.org/dc/elements/1.1/">
  <metadata
     id="metadata22">
    <rdf:RDF>
      <cc:Work
         rdf:about="">
        <dc:format>image/svg+xml</dc:format>
        <dc:type
           rdf:resource="http://purl.org/dc/dcmitype/StillImage" />
      </cc:Work>
    </rdf:RDF>
  </metadata>
  <defs
     id="defs20">
    <linearGradient
       inkscape:collect="always"
       id="linearGradient875">
      <stop
         style="stop-color:#000000;stop-opacity:1;"
         offset="0"
         id="stop871" />
      <stop
         style="stop-color:#000000;stop-opacity:0;"
         offset="1"
         id="stop873" />
    </linearGradient>
    <linearGradient
       inkscape:collect="always"
       id="linearGradient834">
      <stop
         style="stop-color:#d62e2e;stop-opacity:1;"
         offset="0"
         id="stop830" />
      <stop
         style="stop-color:#e16262;stop-opacity:1"
         offset="1"
         id="stop832" />
    </linearGradient>
    <linearGradient
       inkscape:collect="always"
       xlink:href="#linearGradient834"
       id="linearGradient836"
       x1="31"
       y1="45"
       x2="30"
       y2="3"
       gradientUnits="userSpaceOnUse" />
    <linearGradient
       inkscape:collect="always"
       xlink:href="#linearGradient875"
       id="linearGradient877"
       x1="24"
       y1="23"
       x2="42.569958"
       y2="33.721371"
       gradientUnits="userSpaceOnUse" />
    <linearGradient
       inkscape:collect="always"
       xlink:href="#linearGradient875"
       id="linearGradient879"
       x1="31"
       y1="26"
       x2="43.590084"
       y2="33.26889"
       gradientUnits="userSpaceOnUse" />
    <linearGradient
       inkscape:collect="always"
       xlink:href="#linearGradient875"
       id="linearGradient881"
       x1="25"
       y1="5"
       x2="43.172031"
       y2="15.491627"
       gradientUnits="userSpaceOnUse" />
  </defs>
  <sodipodi:namedview
     pagecolor="#ffffff"
     bordercolor="#666666"
     borderopacity="1"
     objecttolerance="10"
     gridtolerance="10"
     guidetolerance="10"
     inkscape:pageopacity="0"
     inkscape:pageshadow="2"
     inkscape:window-width="1920"
     inkscape:window-height="998"
     id="namedview18"
     showgrid="false"
     inkscape:zoom="13.94"
     inkscape:cx="23.995696"
     inkscape:cy="24.390244"
     inkscape:window-x="0"
     inkscape:window-y="0"
     inkscape:window-maximized="1"
     inkscape:current-layer="svg16"
     inkscape:showpageshadow="2"
     inkscape:pagecheckerboard="0"
     inkscape:deskcolor="#d1d1d1">
    <inkscape:grid
       type="xygrid"
       id="grid852"
       originx="0"
       originy="0"
       spacingy="1"
       spacingx="1"
       units="px"
       visible="false" />
  </sodipodi:namedview>
  <g
     id="g1"
     transform="matrix(1.0489496,0,0,1.0489496,-1.1747904,-1.1750611)">
    <rect
       fill="#4f4f4f"
       width="40"
       height="40"
       x="4"
       y="4"
       id="rect2"
       ry="3"
       rx="3" />
    <path
       style="opacity:0.2;fill:url(#linearGradient879);fill-opacity:1;stroke:none;stroke-width:2;stroke-linecap:round;stroke-linejoin:round;stroke-miterlimit:4;stroke-dasharray:none;stroke-dashoffset:0;stroke-opacity:1;paint-order:normal"
       d="m 31.544922,21.699219 -0.164063,2.83789 1.794922,10.138672 -2.083984,-0.554687 -3.896485,6.748047 -1.125,-0.650391 -0.01953,0.427734 L 17.474609,44 H 44 V 28.890625 Z"
       id="path850" />
    <path
       d="m 21.228516,3.984375 c -2.70425,-0.00683 -5.407844,-0.00921 -8.277344,0.025391 -11.7840001,13.604 -0.09205,22.376093 9.751953,24.496093 -10.419,-6.756 -1.937313,-19.3745773 6.804687,-24.5175774 -2.8695,0.0143 -5.575046,0.00292 -8.279296,-0.00391 z m 4.121093,15.509766 c 10.419,6.756 1.190391,20.051578 -12.099609,24.517578 5.7393,-0.02819 18.098891,0.04769 23.837891,-0.02148 v -0.002 c 8.062,-14.197 -1.894282,-22.37414 -11.738282,-24.49414 z m -3.365234,0.509765 a 4.8433279,2.9227168 45 0 0 -1.410156,0.572266 4.843405,2.9227633 45 0 0 6.849609,6.849609 4.8433279,2.9227168 45 0 0 -5.439453,-7.421875 z"
       id="path6"
       style="fill:url(#linearGradient836);fill-opacity:1" />
    <path
       style="opacity:0.2;fill:url(#linearGradient877);fill-opacity:1;stroke:none;stroke-width:0.92355;stroke-linecap:round;stroke-linejoin:round;stroke-miterlimit:4;stroke-dasharray:none;stroke-dashoffset:0;stroke-opacity:1;paint-order:normal"
       d="m 24.230469,20.574219 v 0.0039 a 4.8433279,2.9227168 45 0 1 0.09961,0.05273 z m 0.435547,0.251953 a 4.8433279,2.9227168 45 0 1 2.757812,6.599609 4.843405,2.9227633 45 0 1 -3.675781,-0.01563 L 44,39.101562 v -7.113281 z"
       id="rect844" />
    <path
       style="opacity:0.2;fill:url(#linearGradient881);fill-opacity:1;stroke:none;stroke-width:2;stroke-linecap:round;stroke-linejoin:round;stroke-miterlimit:4;stroke-dasharray:none;stroke-dashoffset:0;stroke-opacity:1;paint-order:normal"
       d="M 29.490234,4 C 20.754549,9.1496651 12.291219,21.754459 22.703125,28.505859 20.294334,27.987103 17.778585,27.064083 15.519531,25.775391 L 44,42.220703 V 12.355469 L 29.527344,4 Z"
       id="rect838" />
  </g>
</svg>
