<?xml version="1.0" encoding="UTF-8" standalone="no"?>
<svg
   width="48"
   height="48"
   viewBox="0 0 48 48"
   version="1.1"
   id="svg74"
   sodipodi:docname="gtk3-icon-browser.svg"
   inkscape:version="1.4.1 (unknown)"
   xmlns:inkscape="http://www.inkscape.org/namespaces/inkscape"
   xmlns:sodipodi="http://sodipodi.sourceforge.net/DTD/sodipodi-0.dtd"
   xmlns="http://www.w3.org/2000/svg"
   xmlns:svg="http://www.w3.org/2000/svg"
   xmlns:rdf="http://www.w3.org/1999/02/22-rdf-syntax-ns#"
   xmlns:cc="http://creativecommons.org/ns#"
   xmlns:dc="http://purl.org/dc/elements/1.1/">
  <metadata
     id="metadata78">
    <rdf:RDF>
      <cc:Work
         rdf:about="">
        <dc:format>image/svg+xml</dc:format>
        <dc:type
           rdf:resource="http://purl.org/dc/dcmitype/StillImage" />
      </cc:Work>
    </rdf:RDF>
  </metadata>
  <sodipodi:namedview
     pagecolor="#ffffff"
     bordercolor="#666666"
     borderopacity="1"
     objecttolerance="10"
     gridtolerance="10"
     guidetolerance="10"
     inkscape:pageopacity="0"
     inkscape:pageshadow="2"
     inkscape:window-width="1920"
     inkscape:window-height="998"
     id="namedview76"
     showgrid="false"
     inkscape:zoom="9.8333334"
     inkscape:cx="12.762712"
     inkscape:cy="15.762712"
     inkscape:window-x="0"
     inkscape:window-y="0"
     inkscape:window-maximized="1"
     inkscape:current-layer="svg74"
     inkscape:showpageshadow="2"
     inkscape:pagecheckerboard="0"
     inkscape:deskcolor="#d1d1d1" />
  <defs
     id="defs44">
    <linearGradient
       id="b"
       y1="544.72498"
       x1="401.90601"
       y2="515.20557"
       x2="400.92087"
       gradientUnits="userSpaceOnUse"
       gradientTransform="matrix(1.4998948,0,0,1.4998403,-575.81445,-772.61734)">
      <stop
         stop-color="#197cf1"
         id="stop7" />
      <stop
         offset="1"
         stop-color="#86dbfc"
         id="stop9" />
    </linearGradient>
    <linearGradient
       id="c"
       y1="30"
       y2="2"
       x2="0"
       gradientUnits="userSpaceOnUse"
       gradientTransform="matrix(1.4998948,0,0,1.4998403,1.0002103,1.0003566)">
      <stop
         stop-color="#7cbaf8"
         id="stop12" />
      <stop
         offset="1"
         stop-color="#f4fcff"
         id="stop14" />
    </linearGradient>
  </defs>
  <g
     id="g1"
     transform="translate(-1.0000355,-1.0000188)">
    <rect
       width="41.997063"
       x="4.0000114"
       y="4.0000196"
       rx="20.998531"
       height="41.995533"
       id="rect48"
       style="fill:url(#b);stroke-width:1.49985" />
    <path
       d="m 24.709053,4.0150365 c -1.607883,0.0225 -3.166283,0.230975 -4.666172,0.5924363 -0.394472,0.3539624 -0.977938,0.5339438 -1.631892,0.5159457 -0.233981,0.2234761 -0.179982,0.6419315 -0.307476,0.9493988 -0.107993,0.2579719 -0.485966,0.533943 -0.743946,0.5129453 -0.19049,-0.016499 -0.409472,-0.2849695 -0.409472,-0.46345 0,-0.2144777 0.298482,-0.334465 0.134987,-0.5744396 -1.670878,0.6779284 -3.226267,1.570333 -4.649668,2.6337203 0.380972,-0.1409851 0.802439,-0.3764602 1.148915,-0.3839592 0.05703,0 0.109495,0.0045 0.160487,0.017999 0.232489,0.061489 0.844444,0.7319222 0.334483,0.9493993 -0.04799,0.020998 -0.748448,0.097487 -0.869946,0.07649 C 13.030866,8.8115239 12.925873,8.5655519 12.74589,8.5340551 12.44441,8.4815601 12.061934,8.7950275 11.802459,8.6540424 8.9406549,10.9638 6.7208102,14.015973 5.3904031,17.518096 c 0.1214918,-0.0705 0.2474831,-0.143978 0.3569755,-0.202478 0.3749737,-0.194977 0.6914513,-0.509944 1.127921,-0.538442 0.217485,-0.0044 0.5324624,0.0585 0.7409481,0.101967 0.1934866,0.03897 0.3479761,0.169488 0.5159642,0.18148 0.473967,0.03605 0.586459,-0.332967 0.971932,-0.538443 0.398972,0.05704 0.6644537,-0.06749 1.0259341,-0.02694 0.245974,0.02694 0.422967,0.289466 0.614953,0.304467 0.160488,0.0165 0.304479,-0.149981 0.460464,-0.125987 0.151492,0.02402 0.412471,0.353968 0.436468,0.538443 0.03148,0.230979 -0.167988,0.437957 -0.101969,0.691424 0.241484,0.245976 0.680951,0.295475 1.025922,0.436451 0.224987,-0.184476 0.02998,-0.529435 0,-0.796409 -0.0044,-0.118486 0.0165,-0.221975 0,-0.331466 -0.021,-0.184475 -0.101969,-0.353964 -0.101969,-0.512943 -0.0044,-0.728926 0.587952,-1.070888 1.078418,-1.35886 0.211491,-0.125988 0.377975,-0.344961 0.562459,-0.436453 0.259484,-0.130486 0.452973,-0.160481 0.667461,-0.281966 0.388474,-0.217479 0.721444,-0.394465 1.025922,-0.641934 0.140995,-0.331464 0.01503,-0.77392 0.02701,-1.100885 0.140983,-0.08546 0.260978,0.03897 0.40947,0.02696 0.233984,-0.04952 0.253479,-0.380957 0.386965,-0.512942 0.07806,-0.07647 0.287988,-0.130491 0.383976,-0.205476 0.233983,-0.182984 0.308982,-0.460458 0.512969,-0.538443 0.07354,-0.02997 0.241485,-0.021 0.356976,-0.05249 0.151484,-0.04053 0.367476,-0.220477 0.614956,-0.304468 0.160489,-0.05547 0.530962,-0.06749 0.592453,-0.128986 0.075,-0.07647 0,-0.293969 0.02698,-0.409457 0.124482,-0.578943 0.995927,-0.701927 1.514893,-0.8969061 0.361471,-0.136486 0.730449,-0.3869588 1.127912,-0.3104672 -0.078,0.2744724 -0.44696,0.1784813 -0.383965,0.5129443 0.08702,0.463454 0.70645,-0.1334844 0.869929,-0.2024771 0.313518,-0.1319947 0.84898,-0.2114849 1.259947,-0.3599697 0.359967,-0.1319605 1.004925,-0.3329388 0.664446,-0.7438953 -0.283469,-0.016497 -0.418456,0.3314665 -0.66444,0.4364555 -0.170999,0.026992 -0.139501,-0.14099 -0.283493,-0.1559882 -0.137991,-0.016502 -0.21599,0.1259824 -0.356981,0.1019846 -0.141006,-0.024002 -0.338988,-0.2444795 -0.359986,-0.4094619 -0.05547,-0.4274547 0.361477,-0.6029365 0.53846,-0.9224016 -0.116987,-0.3869596 -0.652449,-0.079491 -0.97493,-0.230976 0.03151,-0.230975 0.269983,-0.3899586 0.538464,-0.4334534 0.220485,-0.037494 0.715445,-0.017999 0.84594,0.098994 0.07647,0.064491 0.0059,0.2264756 0.128989,0.3344642 0.130494,0.1184871 0.290981,0.1064891 0.460472,0.079489 0.06153,-0.2924685 -0.379477,-0.2204761 -0.331483,-0.4124557 0.34647,-0.2264757 0.908938,-0.038997 1.333409,-0.1019903 0.244482,-0.035999 0.500967,-0.2099781 0.718452,-0.3314648 0.205483,-0.1169876 0.472469,-0.3209655 0.69145,-0.128986 0.05997,0.2099771 -0.190483,0.2789703 -0.307478,0.3839589 -0.392981,0.3494628 -0.796441,0.7484206 -1.100921,1.1548767 0.187482,0.1829811 0.526458,0.091492 0.844433,0.1289868 0.122997,0.016496 0.278989,0.052495 0.409475,0.07649 0.152996,0.026994 0.316482,0.019495 0.436469,0.049496 0.215991,0.052495 0.27298,0.2834701 0.485972,0.2834701 0.350971,0 0.353964,-0.3809595 0.155987,-0.6179343 0.063,-0.2414748 0.160486,-0.3659614 0.07648,-0.5354429 -0.157478,-0.3164698 -0.737939,-0.016502 -0.767931,-0.4094593 -0.0195,-0.254973 0.214479,-0.2459741 0.307478,-0.4364537 -0.04201,-0.4934516 0.404955,-0.5294477 0.356961,-0.9719009 -0.021,-0.1844807 -0.178487,-0.1874802 -0.307479,-0.3599621 -0.06749,-0.088492 -0.09749,-0.2654719 -0.178487,-0.334464 -0.268495,-0.2264765 -0.812946,-0.1829807 -0.845948,-0.614935 -0.0043,-0.1469847 0.0165,-0.2774704 0.02998,-0.4154558 -0.247479,-0.012003 -0.49197,-0.034494 -0.740945,-0.037493 z m -9.989299,5.0304641 c 0.119987,0.016496 0.265481,0.1439856 0.409474,0.1559841 0.136489,0.0045 0.250478,-0.074991 0.334469,-0.052495 0.21449,0.056997 0.304482,0.3809604 0.101977,0.5384438 -0.167988,0.020998 -0.233983,-0.071989 -0.359974,-0.049496 -0.347981,0.059995 -0.481471,0.7409215 -0.740956,0.7184195 -0.245978,-0.021 -0.377973,-0.6194303 -0.128988,-0.796411 0.0165,-0.1559836 -0.11399,-0.1799807 -0.104991,-0.334464 0.07351,-0.09449 0.284984,-0.1964791 0.488972,-0.1784814 m -1.15492,0.079489 c 0.07198,0.00303 0.124488,0.019494 0.152986,0.049496 -0.03447,0.2729715 -0.248984,0.2564733 -0.460464,0.3839593 -0.364471,0.2204751 -0.575963,0.5549391 -0.691457,1.0258951 -0.03302,0.136485 -0.391472,0.499448 -0.565457,0.463446 -0.406475,-0.08546 0.112493,-0.835413 0.205483,-0.949395 0.101977,-0.1259966 0.239988,-0.2384822 0.359974,-0.3839631 0.116995,-0.1409851 0.194992,-0.3314646 0.307478,-0.4094564 0.122992,-0.085498 0.476969,-0.1874802 0.691457,-0.1784818 M 16.5991,10.050389 c 0.130493,0.0031 0.245985,0.02398 0.298481,0.0765 -0.08399,0.338967 -0.811443,0.248978 -1.078424,0.125989 0.01797,-0.127486 0.215988,-0.161982 0.383978,-0.178482 0.11849,-0.0045 0.26548,-0.02699 0.395965,-0.02398 m -1.660377,0.62394 c 0.08702,-0.003 0.175487,0.0165 0.266982,0.04053 -0.235487,0.197976 -0.491971,0.308968 -0.89694,0.436452 -0.194985,0.06152 -0.532466,0.137987 -0.565458,-0.0795 -0.04053,-0.266975 0.284976,-0.20398 0.463463,-0.227975 0.223486,-0.03156 0.469469,-0.161987 0.731953,-0.169481 m 25.753196,0.380957 c 0.01953,0.191981 0.02247,0.37496 -0.02997,0.583442 -0.07052,0.277465 -0.31948,0.529437 -0.307478,0.770911 0.0165,0.122992 0.151482,0.242978 0.181484,0.409457 0.0165,0.08849 -0.042,0.278971 0,0.359964 0.130488,0.251971 0.485969,0.03897 0.718446,0.07647 0.226488,0.03602 0.488973,0.361466 0.485964,0.614937 -0.003,0.176978 -0.169482,0.470952 -0.281977,0.641931 -0.223485,0.340469 -0.526462,0.355462 -0.845941,0.535444 -0.266981,0.151488 -0.382474,0.404956 -0.538458,0.667424 -0.169492,0.284976 -0.274486,0.457457 -0.205495,0.869911 -0.229476,0.45445 -0.57745,0.733426 -1.05142,0.949401 -0.140994,0.06299 -0.331481,0.08546 -0.460465,0.178484 -0.101986,0.0735 -0.161992,0.27297 -0.307477,0.436449 -0.179992,0.199481 -0.36898,0.283474 -0.463473,0.436451 -0.07353,0.118492 -0.09745,0.353968 -0.178487,0.512948 -0.109496,0.215979 -0.341976,0.320969 -0.485966,0.538442 -0.06602,0.1005 -0.109496,0.304468 -0.181485,0.436459 -0.161993,0.295463 -0.439467,0.50844 -0.409471,0.767916 0.02997,0.25047 0.314976,0.293966 0.334473,0.512941 0.0044,0.122987 -0.08097,0.199482 -0.07647,0.334471 0.0044,0.196478 0.136489,0.334464 0.152992,0.485946 0.03897,0.380962 -0.13049,0.533941 -0.202492,0.793415 -0.03447,0.12448 -0.01953,0.262473 -0.0525,0.359964 -0.063,0.190473 -0.328477,0.36296 -0.334474,0.589431 -0.003,0.160485 0.16499,0.287973 0.178489,0.512954 0.0044,0.154483 -0.07647,0.320962 -0.04952,0.463446 0.05403,0.278965 0.553462,0.602939 0.770947,0.820417 0.289479,0.289467 0.668951,0.514438 0.793445,0.820409 0.104991,0.259474 0.104991,0.598437 0.307477,0.793417 0.149988,0.143984 0.397469,0.233972 0.589458,0.383957 0.178484,0.139485 0.374973,0.260977 0.565462,0.409455 0.311981,0.244473 0.782945,0.731925 1.280913,0.694431 0.259479,-0.01953 0.526459,-0.232479 0.820437,-0.283469 0.302984,-0.05403 0.695953,-0.08097 1.001934,-0.04952 0.233983,0.02402 0.473964,0.163483 0.718445,0.152983 0.256483,-0.0165 0.551968,-0.206981 0.844443,-0.334464 0.461969,-0.200982 1.132422,-0.449957 1.80737,-0.412456 0.128993,-0.944901 0.218992,-1.9033 0.218992,-2.885694 0,-3.97308 -1.111427,-7.668685 -3.014789,-10.830349 -0.08849,-0.0059 -0.169492,-0.01797 -0.266984,-0.01504 -0.259483,0.0165 -0.686952,0.0165 -0.691452,-0.307467 -0.003,-0.265473 0.250483,-0.323964 0.553458,-0.343466 -0.566967,-0.866901 -1.201415,-1.681314 -1.886868,-2.452233 M 8.6421705,20.675272 c -0.4259711,0.02403 -0.7034518,0.04345 -0.9464345,0.152981 -0.5549611,0.251974 -0.4469684,1.003393 -1.00193,1.18037 -0.1919865,0.06153 -0.4544685,0.06299 -0.6644533,0.101977 -0.1814878,0.03301 -0.4034718,0.133487 -0.5924591,0.128985 -0.2219839,-0.0044 -0.6089571,-0.218976 -0.7409482,-0.359966 -0.091497,-0.09898 -0.2399832,-0.442448 -0.3374762,-0.670425 -0.1334903,0.737922 -0.2264837,1.489341 -0.2819803,2.252762 0.044995,0.0088 0.09299,0.021 0.131991,0.021 0.2429825,0.0014 0.5024652,-0.25048 0.7709459,-0.257979 0.6284558,-0.01797 0.9014371,0.79942 1.4084016,1.051393 0.1274908,0.06299 0.2954792,0.06602 0.4604682,0.101967 0.1319902,0.02997 0.2324835,0.08546 0.3599749,0.128985 0.2714803,0.09151 0.6029572,0.08252 0.820442,0.178482 0.3269773,0.145481 0.5654609,0.758919 0.8459411,0.9224 0.016496,0.164986 -0.029994,0.38846 0.026995,0.512942 0.1319902,0.179985 0.3209774,0.140987 0.5384622,0.257971 0.2609814,0.140987 0.3404759,0.503947 0.5894582,0.614941 0.08551,0.0375 0.301481,0.03447 0.436478,0.07647 0.34047,0.103506 0.449964,0.496448 0.740946,0.409458 0.190482,-0.05703 0.176984,-0.253477 0.208482,-0.43646 0.125991,-0.136487 0.262481,-0.353956 0.460474,-0.356964 0.317976,-0.0165 0.346466,0.329966 0.463462,0.638939 0.06602,0.175482 0.236981,0.328464 0.281976,0.512942 0.0795,0.317964 0.04053,1.271861 -0.02696,1.462347 -0.0795,0.233974 -0.397469,0.332966 -0.592453,0.592433 -0.09152,0.121493 -0.134997,0.29847 -0.205493,0.383965 -0.125991,0.152981 -0.313475,0.193474 -0.406471,0.334461 -0.05252,0.0795 -0.103508,0.25047 -0.155987,0.356962 -0.154492,0.326962 -0.361479,0.557937 -0.230985,0.949395 0.05403,0.160491 0.307478,0.269973 0.307478,0.460457 0,0.223475 -0.475467,0.422954 -0.512961,0.667428 -0.027,0.181479 0.146989,0.506945 0.205483,0.743919 0.042,0.17848 0.380973,0.29097 0.485966,0.409457 0.179991,0.202478 0.325476,0.487452 0.488962,0.740921 0.325478,0.499445 0.580461,1.106887 0.896941,1.591331 0.167989,0.253476 0.400476,0.481446 0.512962,0.743918 0.05703,0.131993 0.04952,0.29097 0.101976,0.409456 0.182992,0.41396 0.991433,0.845911 1.408406,1.051394 0.194984,0.09452 0.41247,0.128987 0.592453,0.227979 0.271486,0.151478 0.808445,0.557937 0.946439,0.796413 0.122987,0.214471 0.197982,0.734923 0.257979,1.075381 0.0795,0.449958 0.003,0.796414 0.02696,1.28237 0.0165,0.263968 0.09901,0.529439 0.101977,0.793415 0.0014,0.09297 -0.04795,0.160482 -0.05249,0.254971 -0.0044,0.319461 0.0795,0.679422 0.05249,1.001889 -0.0014,0.06899 -0.0088,0.121486 -0.021,0.18148 2.516818,1.061895 5.285628,1.649833 8.196926,1.649833 0.30448,0 0.601458,-0.03447 0.902939,-0.04649 0.0073,-0.04796 0.01348,-0.09601 0.02403,-0.134991 0.09298,-0.259465 0.331473,-0.346455 0.485966,-0.538442 0.116987,-0.145479 0.170987,-0.314968 0.281975,-0.460446 0.119995,-0.157486 0.227989,-0.29697 0.30748,-0.436452 0.075,-0.467951 -0.18598,-0.794919 -0.07647,-1.204375 0.122997,-0.460452 0.757457,-0.740922 1.204422,-0.949398 0.152987,-0.07052 0.31198,-0.187485 0.436467,-0.230976 0.308982,-0.107986 0.692951,-0.04952 0.974938,-0.152982 0.47996,-0.175483 0.530963,-0.689928 0.767942,-1.127882 0.112495,-0.20698 0.259483,-0.415454 0.281976,-0.562441 0.01953,-0.131983 -0.04796,-0.256475 -0.02695,-0.412453 0.02403,-0.154485 0.161993,-0.289469 0.205482,-0.46045 0.05702,-0.22198 0.0795,-0.545942 0.0795,-0.793424 0,-0.202478 -0.09448,-0.382451 -0.101967,-0.565437 -0.03302,-0.664429 0.239978,-0.739417 0.485963,-1.10088 0.122991,-0.179984 0.167989,-0.383959 0.254981,-0.512944 0.412472,-0.616437 1.129419,-0.913403 1.078429,-1.844809 -0.01797,-0.308961 -0.209986,-1.00639 -0.436472,-1.103877 -0.130489,-0.05703 -0.427466,-0.0044 -0.614962,-0.07647 -0.605949,-0.226477 -0.962924,-0.977905 -1.591387,-1.025896 -0.13349,-0.0165 -0.256475,0.05547 -0.40647,0.0525 -0.248976,-0.0165 -0.623952,-0.173981 -0.899932,-0.205478 -0.175489,-0.01953 -0.407978,0.0525 -0.512972,0 -0.160486,-0.07804 -0.176984,-0.371964 -0.307477,-0.460447 -0.103504,-0.07052 -0.302973,-0.09449 -0.460464,-0.155989 -0.251984,-0.09745 -0.452972,-0.211472 -0.743944,-0.230977 -0.09,-0.0044 -0.202489,0.04346 -0.307482,0.02696 -0.160494,-0.02696 -0.28798,-0.217469 -0.436475,-0.307465 -0.185987,-0.113986 -0.359973,-0.169478 -0.436464,-0.331465 0.167989,-0.551938 -0.296979,-0.706424 -0.409472,-1.025892 -0.05402,-0.149984 -0.02852,-0.32996 -0.07647,-0.463448 -0.06602,-0.190484 -0.256487,-0.299966 -0.46347,-0.460448 -0.370475,-0.284974 -0.700447,-0.553443 -1.229914,-0.617941 -0.232482,-0.02999 -0.46197,0.07052 -0.743944,0.05249 -0.298481,-0.01953 -0.673458,-0.280466 -0.896941,-0.535447 -0.217486,-0.248965 -0.323973,-0.47244 -0.512961,-0.592432 -0.178489,-0.115489 -0.416972,-0.112489 -0.538463,-0.227978 -0.054,-0.05098 -0.04502,-0.137979 -0.101966,-0.25797 -0.08998,-0.185982 -0.241484,-0.289465 -0.128992,-0.512941 -0.203989,-0.104991 -0.209984,0.193473 -0.433468,0.155979 -0.199486,-0.28347 -0.367475,-0.416958 -0.820447,-0.334462 -0.206986,0.03897 -0.323973,0.301463 -0.565458,0.307468 -0.197987,0.0165 -0.35398,-0.220478 -0.614955,-0.25798 -0.19799,-0.02697 -0.421474,0.05246 -0.562464,0.02698 -0.218986,-0.04346 -0.286482,-0.226484 -0.485971,-0.356965 -0.146988,-0.09602 -0.430466,-0.260976 -0.51296,-0.257971 -0.257978,0.0165 -0.44097,0.548942 -0.796442,0.359963 -0.172491,-0.218981 0.28048,-0.334469 0.07647,-0.538441 -0.155993,-0.155993 -0.286479,0.06896 -0.40947,0.155978 -0.142489,0.09906 -0.27598,0.196482 -0.433471,0.254973 -0.352474,0.131985 -0.571463,0.06299 -0.84594,0.205475 -0.254987,0.131991 -0.265486,0.352465 -0.409472,0.614936 -0.118491,0.214476 -0.388471,0.526448 -0.565462,0.538441 -0.214483,0.0165 -0.419975,-0.299969 -0.614956,-0.383956 -0.586457,-0.254975 -0.871443,0.224976 -1.358905,0.230971 -0.452968,0.0165 -1.0979286,-0.728917 -1.075433,-1.154877 0.00455,-0.259464 0.148494,-0.653928 0.178489,-0.974895 0.02701,-0.254973 0.202488,-0.407953 0.20549,-0.641926 0.0044,-0.311964 -0.4124855,-0.551935 -0.6149678,-0.589438 -0.4784664,-0.08849 -1.1444197,0.193484 -1.6933816,-0.02696 -0.1049929,-0.173979 0.1229915,-0.293967 0.1814872,-0.463447 0.033001,-0.09601 0.015002,-0.224977 0.049498,-0.331469 0.061492,-0.163481 0.2309838,-0.289468 0.3074784,-0.463447 0.056999,-0.131985 0.071989,-0.322469 0.1289909,-0.485947 0.067507,-0.185984 0.1904957,-0.305977 0.2054945,-0.436455 0.019495,-0.172486 -0.0465,-0.371963 -0.1814872,-0.48595 m 6.8545206,5.427925 c 0.17399,0.0165 0.194989,0.374955 0.01797,0.404955 -0.191988,0.02998 -0.287984,-0.299967 -0.101977,-0.386962 0.03149,-0.0165 0.05997,-0.01953 0.08546,-0.01797"
       id="path52"
       style="fill:url(#c);stroke-width:1.49985"
       inkscape:connector-curvature="0" />
    <path
       style="opacity:0.2;fill:#000000;fill-opacity:1;stroke-width:1.49985"
       d="M 4.0123048,24.475026 C 4.0080785,24.649196 4,24.822748 4,24.997976 c 0,11.632758 9.364784,20.997977 20.997976,20.997977 11.633183,0 21.000029,-9.365219 21.000029,-20.997977 0,-0.175236 -0.0098,-0.348771 -0.01433,-0.52295 -0.276321,11.388642 -9.527728,20.475027 -20.985668,20.475027 -11.45795,0 -20.70936,-9.08637 -20.9856729,-20.475027 z"
       id="rect4573" />
  </g>
</svg>
