<?xml version="1.0" encoding="UTF-8" standalone="no"?>
<svg
   width="48"
   height="48"
   version="1"
   id="svg4"
   sodipodi:docname="jamendo.svg"
   inkscape:version="1.4.2 (unknown)"
   xmlns:inkscape="http://www.inkscape.org/namespaces/inkscape"
   xmlns:sodipodi="http://sodipodi.sourceforge.net/DTD/sodipodi-0.dtd"
   xmlns="http://www.w3.org/2000/svg"
   xmlns:svg="http://www.w3.org/2000/svg">
  <defs
     id="defs4" />
  <sodipodi:namedview
     id="namedview4"
     pagecolor="#ffffff"
     bordercolor="#000000"
     borderopacity="0.25"
     inkscape:showpageshadow="2"
     inkscape:pageopacity="0.0"
     inkscape:pagecheckerboard="0"
     inkscape:deskcolor="#d1d1d1"
     inkscape:zoom="8.4852814"
     inkscape:cx="19.681139"
     inkscape:cy="27.812867"
     inkscape:window-width="1920"
     inkscape:window-height="996"
     inkscape:window-x="0"
     inkscape:window-y="0"
     inkscape:window-maximized="1"
     inkscape:current-layer="svg4" />
  <g
     id="g5"
     transform="matrix(0.73660715,0,0,0.73684211,0.55357134,0.05263159)"
     style="stroke-width:1.33333">
    <g
       id="g4"
       style="stroke-width:1.33333">
      <path
         style="opacity:0.2;stroke-width:1.33333"
         d="m 4.0507997,32.000415 c -0.0118,0.333995 -0.050799,0.66199 -0.050799,0.999985 C 4.0000004,48.512179 16.487822,61 31.9996,61 47.511378,61 59.9992,48.512179 59.9992,33.0004 c 0,-0.337675 -0.03904,-0.66527 -0.05078,-0.999985 C 59.420428,47.0422 47.172603,59.000029 31.99882,59.000029 16.824637,59.000029 4.5772122,47.0422 4.0492197,32.000415 Z"
         id="path1" />
      <rect
         style="fill:#7137c8;stroke-width:1.33333"
         width="56"
         height="56"
         x="4"
         y="4"
         rx="37.333332"
         ry="37.333332"
         id="rect1" />
      <path
         style="opacity:0.2;stroke-width:1.33333"
         d="M 31.9996,13.000686 A 19.999714,19.999714 0 0 0 11.999886,33.0004 19.999714,19.999714 0 0 0 31.9996,53.000114 19.999714,19.999714 0 0 0 51.999314,33.0004 19.999714,19.999714 0 0 0 31.9996,13.000686 Z m -6.726504,7.999886 a 1.2498221,1.3333209 0 0 1 0.593752,0.175777 l 17.499749,10.663848 a 1.2498221,1.3333209 0 0 1 0,2.320367 L 25.866848,44.824411 A 1.2498221,1.3333209 0 0 1 23.998874,43.664428 V 22.336733 a 1.2498221,1.3333209 0 0 1 1.273982,-1.335981 z"
         id="path2" />
      <path
         style="fill:#ffffff;stroke-width:1.33333"
         d="M 31.9996,12.000715 A 19.999714,19.999714 0 0 0 11.999886,32.000429 19.999714,19.999714 0 0 0 31.9996,52.000143 19.999714,19.999714 0 0 0 51.999314,32.000429 19.999714,19.999714 0 0 0 31.9996,12.000715 Z m -6.725904,7.999886 a 1.2498221,1.3333209 0 0 1 0.593992,0.175997 l 17.499749,10.663848 a 1.2498221,1.3333209 0 0 1 0,2.319966 L 25.867688,43.82426 A 1.2498221,1.3333209 0 0 1 23.999714,42.664277 V 21.336581 a 1.2498221,1.3333209 0 0 1 1.273982,-1.33598 z"
         id="path3" />
      <path
         style="opacity:0.1;fill:#ffffff;stroke-width:1.33333"
         d="M 32,4 C 16.488222,4 4,16.488222 4,32 4,32.113554 4.011285,32.224034 4.017578,32.335938 4.3691163,17.134398 16.710946,5 32,5 47.289054,5 59.630884,17.134398 59.982422,32.335938 59.988797,32.224034 60,32.113554 60,32 60,16.488222 47.511778,4 32,4 Z"
         id="path4" />
    </g>
  </g>
</svg>
