<?xml version="1.0" encoding="UTF-8" standalone="no"?>
<svg
   width="48"
   height="48"
   version="1.1"
   id="svg35"
   sodipodi:docname="knetattach.svg"
   inkscape:version="1.4.1 (unknown)"
   xmlns:inkscape="http://www.inkscape.org/namespaces/inkscape"
   xmlns:sodipodi="http://sodipodi.sourceforge.net/DTD/sodipodi-0.dtd"
   xmlns:xlink="http://www.w3.org/1999/xlink"
   xmlns="http://www.w3.org/2000/svg"
   xmlns:svg="http://www.w3.org/2000/svg"
   xmlns:rdf="http://www.w3.org/1999/02/22-rdf-syntax-ns#"
   xmlns:cc="http://creativecommons.org/ns#"
   xmlns:dc="http://purl.org/dc/elements/1.1/">
  <metadata
     id="metadata39">
    <rdf:RDF>
      <cc:Work
         rdf:about="">
        <dc:format>image/svg+xml</dc:format>
        <dc:type
           rdf:resource="http://purl.org/dc/dcmitype/StillImage" />
      </cc:Work>
    </rdf:RDF>
  </metadata>
  <sodipodi:namedview
     pagecolor="#ffffff"
     bordercolor="#666666"
     borderopacity="1"
     objecttolerance="10"
     gridtolerance="10"
     guidetolerance="10"
     inkscape:pageopacity="0"
     inkscape:pageshadow="2"
     inkscape:window-width="1920"
     inkscape:window-height="998"
     id="namedview37"
     showgrid="false"
     inkscape:zoom="4.9166667"
     inkscape:cx="2.1355932"
     inkscape:cy="56.644067"
     inkscape:window-x="0"
     inkscape:window-y="0"
     inkscape:window-maximized="1"
     inkscape:current-layer="svg35"
     inkscape:showpageshadow="2"
     inkscape:pagecheckerboard="0"
     inkscape:deskcolor="#d1d1d1" />
  <defs
     id="defs17">
    <linearGradient
       id="b"
       y1="543.8"
       y2="509.8"
       x2="0"
       gradientUnits="userSpaceOnUse"
       gradientTransform="translate(-480.57,-510.8)">
      <stop
         stop-color="#2f74c8"
         id="stop2" />
      <stop
         offset="1"
         stop-color="#4699d7"
         id="stop4" />
    </linearGradient>
    <linearGradient
       id="c"
       y1="17"
       x1="18"
       y2="32"
       x2="33"
       gradientUnits="userSpaceOnUse"
       gradientTransform="translate(-68.135592,35.288135)">
      <stop
         stop-color="#383e51"
         id="stop7" />
      <stop
         offset="1"
         stop-color="#655c6f"
         stop-opacity="0"
         id="stop9" />
    </linearGradient>
    <linearGradient
       id="a">
      <stop
         stop-color="#127bdc"
         id="stop12" />
      <stop
         offset="1"
         stop-color="#64b4f4"
         id="stop14" />
    </linearGradient>
    <linearGradient
       inkscape:collect="always"
       xlink:href="#c"
       id="linearGradient1"
       gradientUnits="userSpaceOnUse"
       gradientTransform="translate(2.499,3.002)"
       x1="18"
       y1="17"
       x2="33"
       y2="32" />
  </defs>
  <path
     style="color:#3daee9;fill:currentColor;fill-opacity:1;stroke:none;stroke-width:0.82721"
     d="m 0.830564,5.807743 v 0.826921 7.442261 0 c -0.430648,0.01776 -0.8466,0.417996 -0.827506,0.826929 h 0.0017 c -3.9e-5,0.0034 -0.0017,0.0065 -0.0017,0.0098 v 28.932268 c 0.0073,0.82646 0.811129,1.65878 1.655008,1.65377 v 0 h 44.685138 v 0 c 0.837292,0.0188 1.650386,-0.80412 1.655003,-1.65377 V 14.91347 14.90367 11.595987 c 0.04914,-0.487256 -0.337566,-0.832192 -0.827501,-0.826915 V 7.461394 c 0,-0.0024 -0.0018,0.0034 -0.0018,0 h 0.0018 v 0 C 47.165406,6.633924 46.381335,5.810891 45.5157,5.807557 H 24.000632 L 20.690621,2.500008 H 4.140573 C 2.454577,2.495708 0.860096,4.129301 0.830564,5.807682 Z"
     class="ColorScheme-Highlight "
     id="path1"
     sodipodi:nodetypes="ccccccsccccccccccscccccccc" />
  <path
     style="fill-opacity:0.33;fill-rule:evenodd;stroke-width:0.82721"
     d="m 0.855072,5.807743 -0.02454,0.826921 v 7.442261 h 14.895046 l 3.310007,-3.307668 H 47.1707 V 7.46158 c 0,-0.0024 -0.0018,0.0034 -0.0018,0 h 0.0018 C 47.1653,6.625341 46.339791,5.803049 45.515695,5.807743 H 24.00063 L 20.690619,2.500072 H 4.140573 C 2.479228,2.502172 0.825256,4.159863 0.855069,5.807743 Z"
     id="path2"
     sodipodi:nodetypes="ccccccsccccccc" />
  <path
     style="fill:#ffffff;fill-opacity:0.2;fill-rule:evenodd;stroke-width:0.82721"
     d="M 20.690621,2.500072 23.17313,6.634664 H 24.828135 45.5157 c 1.003709,-0.05284 1.659758,0.831803 1.655006,1.653837 V 7.46158 C 47.171203,6.640785 46.352552,5.813168 45.5157,5.807743 H 24.828135 24.000632 Z m -1.655005,8.269185 -3.31001,3.307668 H 0.003058 v 0.826929 h 16.550051 z"
     id="path3"
     sodipodi:nodetypes="cccccccccccccccc" />
  <path
     style="color:#31363b;fill-opacity:0.2;fill-rule:evenodd;stroke-width:0.82721"
     d="m 19.035616,10.769257 -4.96502,2.480755 H 0.830564 v 0.826913 H 15.725606 Z M 0.003058,43.846002 c 0.0056,0.83398 0.82237,1.65506 1.655008,1.65379 v 0 h 44.685138 v 0 0 c 0.829928,0.002 1.656107,-0.82654 1.655003,-1.65379 z"
     class="ColorScheme-Text"
     id="path4"
     sodipodi:nodetypes="cccccccccccccc" />
  <g
     id="g1">
    <path
       d="M 34.659,17.562 19.115,26.746 19.05,27.36 17.998,28.183 34.716,41.328 48.832,39.584 50.02,36.52 50.476,33.021 Z"
       id="path29-5"
       style="opacity:0.2;fill:url(#linearGradient1);fill-rule:evenodd"
       inkscape:connector-curvature="0" />
    <path
       d="m 33.5,17 a 2,2 0 0 0 -2,2 2,2 0 0 0 2,2 2,2 0 0 0 2,-2 2,2 0 0 0 -2,-2 M 30,20 A 0.5,0.5 0 0 0 29.5,20.5 0.5,0.5 0 0 0 30,21 0.5,0.5 0 0 0 30.5,20.5 0.5,0.5 0 0 0 30,20 m -3,2 A 0.5,0.5 0 0 0 26.5,22.5 0.5,0.5 0 0 0 27,23 0.5,0.5 0 0 0 27.5,22.5 0.5,0.5 0 0 0 27,22 m -3,2 A 0.5,0.5 0 0 0 23.5,24.5 0.5,0.5 0 0 0 24,25 0.5,0.5 0 0 0 24.5,24.5 0.5,0.5 0 0 0 24,24 m -4.5,1 a 2,2 0 0 0 -2,2 2,2 0 0 0 2,2 2,2 0 0 0 2,-2 2,2 0 0 0 -2,-2 M 24,29 A 0.5,0.5 0 0 0 23.5,29.5 0.5,0.5 0 0 0 24,30 0.5,0.5 0 0 0 24.5,29.5 0.5,0.5 0 0 0 24,29 m 3,2 A 0.5,0.5 0 0 0 26.5,31.5 0.5,0.5 0 0 0 27,32 0.5,0.5 0 0 0 27.5,31.5 0.5,0.5 0 0 0 27,31 m 3,2 A 0.5,0.5 0 0 0 29.5,33.5 0.5,0.5 0 0 0 30,34 0.5,0.5 0 0 0 30.5,33.5 0.5,0.5 0 0 0 30,33 m 3.5,0 a 2,2 0 0 0 -2,2 2,2 0 0 0 2,2 2,2 0 0 0 2,-2 2,2 0 0 0 -2,-2"
       id="path31-3"
       inkscape:connector-curvature="0"
       style="color:#000000;fill:#ffffff;fill-rule:evenodd" />
  </g>
</svg>
