<?xml version="1.0" encoding="UTF-8" standalone="no"?>
<svg
   width="48"
   height="48"
   version="1.1"
   id="svg43"
   sodipodi:docname="vpnui.svg"
   inkscape:version="1.4.1 (unknown)"
   xmlns:inkscape="http://www.inkscape.org/namespaces/inkscape"
   xmlns:sodipodi="http://sodipodi.sourceforge.net/DTD/sodipodi-0.dtd"
   xmlns:xlink="http://www.w3.org/1999/xlink"
   xmlns="http://www.w3.org/2000/svg"
   xmlns:svg="http://www.w3.org/2000/svg"
   xmlns:rdf="http://www.w3.org/1999/02/22-rdf-syntax-ns#"
   xmlns:cc="http://creativecommons.org/ns#"
   xmlns:dc="http://purl.org/dc/elements/1.1/">
  <metadata
     id="metadata47">
    <rdf:RDF>
      <cc:Work
         rdf:about="">
        <dc:format>image/svg+xml</dc:format>
        <dc:type
           rdf:resource="http://purl.org/dc/dcmitype/StillImage" />
      </cc:Work>
    </rdf:RDF>
  </metadata>
  <sodipodi:namedview
     pagecolor="#ffffff"
     bordercolor="#666666"
     borderopacity="1"
     objecttolerance="10"
     gridtolerance="10"
     guidetolerance="10"
     inkscape:pageopacity="0"
     inkscape:pageshadow="2"
     inkscape:window-width="1920"
     inkscape:window-height="998"
     id="namedview45"
     showgrid="false"
     inkscape:zoom="6.1198265"
     inkscape:cx="22.386256"
     inkscape:cy="27.124952"
     inkscape:window-x="0"
     inkscape:window-y="0"
     inkscape:window-maximized="1"
     inkscape:current-layer="svg43"
     inkscape:showpageshadow="2"
     inkscape:pagecheckerboard="0"
     inkscape:deskcolor="#d1d1d1">
    <inkscape:grid
       type="xygrid"
       id="grid4509"
       originx="0"
       originy="0"
       spacingy="1"
       spacingx="1"
       units="px"
       visible="false" />
  </sodipodi:namedview>
  <defs
     id="defs23">
    <linearGradient
       inkscape:collect="always"
       id="linearGradient4523">
      <stop
         style="stop-color:#8dd264;stop-opacity:1"
         offset="0"
         id="stop4519" />
      <stop
         style="stop-color:#5aa230;stop-opacity:1"
         offset="1"
         id="stop4521" />
    </linearGradient>
    <linearGradient
       inkscape:collect="always"
       id="linearGradient4515">
      <stop
         style="stop-color:#2b7dbb;stop-opacity:1"
         offset="0"
         id="stop4511" />
      <stop
         style="stop-color:#63a7db;stop-opacity:1"
         offset="1"
         id="stop4513" />
    </linearGradient>
    <linearGradient
       id="a"
       y1="543.8"
       y2="503.8"
       x2="0"
       gradientUnits="userSpaceOnUse"
       gradientTransform="matrix(1.0499997,0,0,1.0499997,-403.99828,-524.98985)">
      <stop
         stop-color="#c6cdd1"
         id="stop2" />
      <stop
         offset="1"
         stop-color="#e0e5e7"
         id="stop4" />
    </linearGradient>
    <linearGradient
       inkscape:collect="always"
       xlink:href="#linearGradient4515"
       id="linearGradient4517"
       x1="32.595581"
       y1="38.765041"
       x2="15.787656"
       y2="9.6528606"
       gradientUnits="userSpaceOnUse"
       gradientTransform="matrix(1.0499997,0,0,1.0499997,-0.19989869,-0.19999809)" />
    <linearGradient
       inkscape:collect="always"
       xlink:href="#linearGradient4523"
       id="linearGradient4525"
       x1="21.758276"
       y1="9.3983641"
       x2="42.256569"
       y2="29.896656"
       gradientUnits="userSpaceOnUse"
       gradientTransform="matrix(1.0499997,0,0,1.0499997,-0.19989869,-0.19999809)" />
  </defs>
  <g
     id="g1"
     transform="translate(-0.99904148,-0.99998792)">
    <rect
       style="fill:url(#a);stroke-width:2.94;stroke-opacity:0.55"
       id="rect25"
       height="41.999973"
       rx="20.999987"
       y="3.9999878"
       x="4.0001097"
       width="41.999973" />
    <path
       style="opacity:1;fill:url(#linearGradient4517);fill-opacity:1;stroke-width:1.05"
       d="M 18.700096,10.299998 A 20.999994,20.999994 0 0 0 7.3100602,13.681738 C 5.2227011,16.94615 4.0001,20.821683 4.0001,24.999994 c 0,1.173447 0.099719,2.323248 0.2830074,3.443259 A 14.699996,14.699996 0 0 1 18.700096,16.599996 14.699996,14.699996 0 0 1 33.400091,31.299992 14.699996,14.699996 0 0 1 21.53017,45.712874 c 1.128431,0.186157 2.287156,0.287114 3.469924,0.287114 4.195492,0 8.086574,-1.231375 11.359275,-3.334567 A 20.999994,20.999994 0 0 0 39.70009,31.299992 20.999994,20.999994 0 0 0 18.700096,10.299998 Z"
       id="path4"
       inkscape:connector-curvature="0" />
    <path
       style="opacity:1;fill:url(#linearGradient4525);fill-opacity:1;stroke-width:1.05"
       d="m 25.000094,4.0000003 c -0.09988,0 -0.197852,0.00686 -0.297363,0.0082 A 20.999994,20.999994 0 0 0 18.700096,18.699996 20.999994,20.999994 0 0 0 39.70009,39.69999 20.999994,20.999994 0 0 0 40.024109,39.68357 c 1.975822,-2.021682 3.53272,-4.445414 4.565044,-7.136716 A 14.699996,14.699996 0 0 1 39.70009,33.39999 14.699996,14.699996 0 0 1 25.000094,18.699996 14.699996,14.699996 0 0 1 33.047355,5.5934573 C 30.570266,4.5701301 27.855311,4.0000003 25.000094,4.0000003 Z"
       id="path8"
       inkscape:connector-curvature="0" />
    <path
       d="m 4.0106,24.474994 c -0.0042,0.175354 -0.0126,0.3486 -0.0126,0.525 0,11.633997 9.365997,20.999994 20.999994,20.999994 11.633997,0 20.999994,-9.365997 20.999994,-20.999994 0,-0.1764 -0.0082,-0.349646 -0.0126,-0.525 -0.2772,11.38935 -9.533997,20.474994 -20.987394,20.474994 -11.457597,0 -20.7101941,-9.085644 -20.987394,-20.474994"
       id="path37"
       inkscape:connector-curvature="0"
       style="opacity:0.2;fill:#000000;fill-opacity:1;stroke-width:2.94;stroke-opacity:0.55" />
  </g>
</svg>
