<?xml version="1.0" encoding="UTF-8" standalone="no"?>
<svg
   viewBox="0 0 64 64"
   version="1.1"
   id="svg4"
   sodipodi:docname="folder-reddit.svg"
   inkscape:version="1.4.2 (unknown)"
   xmlns:inkscape="http://www.inkscape.org/namespaces/inkscape"
   xmlns:sodipodi="http://sodipodi.sourceforge.net/DTD/sodipodi-0.dtd"
   xmlns="http://www.w3.org/2000/svg"
   xmlns:svg="http://www.w3.org/2000/svg">
  <sodipodi:namedview
     id="namedview4"
     pagecolor="#ffffff"
     bordercolor="#000000"
     borderopacity="0.25"
     inkscape:showpageshadow="2"
     inkscape:pageopacity="0.0"
     inkscape:pagecheckerboard="0"
     inkscape:deskcolor="#d1d1d1"
     inkscape:zoom="11.890625"
     inkscape:cx="31.95795"
     inkscape:cy="32"
     inkscape:current-layer="svg4" />
  <defs
     id="defs3051">
    <style
       type="text/css"
       id="current-color-scheme">
      .ColorScheme-Text {
      color:#232629;
      }
      .ColorScheme-Accent {
      color:#3daee9;
      }
    </style>
  </defs>
  <path
     style="fill:currentColor"
     d="m 9,6.000034 c -3,0 -5,2 -4.992,5.197014 L 4,20 c -0.5255187,0 -1,0.363715 -1,1 l 0.008,0.197048 H 3.01 c -5e-5,0.004 -0.002,0.008 -0.002,0.01172 L 3,53 c 0,3 2,5 5,5 v 0 h 48 v 0 c 3,0 5,-2 5,-5 l 0.008,-31.791232 v -0.01172 L 61,17 c 0,-0.484427 -0.416433,-1 -1,-1 v 0 0 l 0.008,-0.802952 C 60,12 58,10 55,10 H 32 C 32,8 30,6 28,6.000034 Z"
     class="ColorScheme-Accent"
     id="path1" />
  <path
     style="fill-opacity:0.33"
     d="M 9,6 C 6,6 4,8 4.0000003,11 v 9 H 22 l 4,-4 h 34 v -1 0 0 c 0,-3 -2,-5 -5,-5 L 32,9.9999657 C 32,8 30,6 28,5.9999657 Z"
     id="path2" />
  <path
     style="fill-opacity:0.2"
     d="m 26,16 -6,3 H 4 v 1 H 22 Z M 5,57 c 0,0.416776 2,1 3,1 h 2 42 3 c 2.476706,0 4,-0.558829 4,-1 H 52 10 Z"
     class="ColorScheme-Text"
     id="path4" />
  <path
     d="m 43.25,36.558107 c 0,-1.827951 -1.482549,-3.310419 -3.300034,-3.310419 -0.716083,0 -1.399901,0.2302 -1.96448,0.649233 -1.601959,-0.810375 -3.506754,-1.298297 -5.521621,-1.41341 l 1.317251,-3.651059 3.185456,0.796537 c 0.06875,1.31217 1.156595,2.352568 2.478509,2.352568 1.367643,0 2.483006,-1.11881 2.483006,-2.490679 C 41.928087,28.118822 40.812724,27 39.445081,27 c -0.931765,0 -1.744135,0.515622 -2.171025,1.279969 l -4.365004,-1.09581 -1.900133,5.271665 c -2.189329,0.0644 -4.264075,0.561664 -5.9944,1.431933 -0.564586,-0.419046 -1.243748,-0.644566 -1.959836,-0.644566 -1.822129,0.0053 -3.304683,1.491642 -3.304683,3.314916 0,0.893127 0.36719,1.754048 0.995955,2.371106 -0.04127,0.2624 -0.0642,0.529466 -0.0642,0.796353 0,2.002777 1.165758,3.862932 3.277078,5.234975 C 25.978364,46.277201 28.654281,47 31.490839,47 c 2.836561,0 5.507816,-0.722799 7.531821,-2.039459 2.111334,-1.376718 3.277257,-3.236696 3.277257,-5.234975 0,-0.262388 -0.02288,-0.524788 -0.05972,-0.787188 0.637925,-0.612366 1.009783,-1.477966 1.009783,-2.380271 z m -16.91824,1.933717 c 0,-1.063612 0.862925,-1.929212 1.923251,-1.929212 1.060157,0 1.923083,0.8656 1.923083,1.929212 0,1.063433 -0.862926,1.929035 -1.923083,1.929035 -1.060326,0 -1.923251,-0.865602 -1.923251,-1.929035 z m 5.292128,6.104884 c -1.491695,0 -2.946646,-0.423541 -4.20419,-1.224578 l 0.738865,-1.164851 c 1.037375,0.66291 2.23988,1.012888 3.46998,1.012888 1.23013,0 2.427963,-0.349978 3.469821,-1.012888 L 35.8374,43.37213 c -1.266863,0.801037 -2.721811,1.224578 -4.213512,1.224578 z m 3.410288,-4.175849 c -1.060326,0 -1.923075,-0.865602 -1.923075,-1.929035 0,-1.063612 0.862749,-1.929212 1.923075,-1.929212 1.060324,0 1.923073,0.8656 1.923073,1.929212 0,1.063433 -0.862749,1.929035 -1.923073,1.929035 z m 0,0"
     id="path2-3"
     style="fill:#e5e5e5;fill-opacity:1;stroke-width:0.0414368" />
</svg>
