<?xml version="1.0" encoding="UTF-8" standalone="no"?>
<svg
   width="48"
   height="48"
   version="1"
   id="svg12"
   sodipodi:docname="enpass.svg"
   inkscape:version="1.4.1 (unknown)"
   xmlns:inkscape="http://www.inkscape.org/namespaces/inkscape"
   xmlns:sodipodi="http://sodipodi.sourceforge.net/DTD/sodipodi-0.dtd"
   xmlns:xlink="http://www.w3.org/1999/xlink"
   xmlns="http://www.w3.org/2000/svg"
   xmlns:svg="http://www.w3.org/2000/svg"
   xmlns:rdf="http://www.w3.org/1999/02/22-rdf-syntax-ns#"
   xmlns:cc="http://creativecommons.org/ns#"
   xmlns:dc="http://purl.org/dc/elements/1.1/">
  <metadata
     id="metadata18">
    <rdf:RDF>
      <cc:Work
         rdf:about="">
        <dc:format>image/svg+xml</dc:format>
        <dc:type
           rdf:resource="http://purl.org/dc/dcmitype/StillImage" />
      </cc:Work>
    </rdf:RDF>
  </metadata>
  <defs
     id="defs16">
    <linearGradient
       inkscape:collect="always"
       id="linearGradient871">
      <stop
         style="stop-color:#ffffff;stop-opacity:1;"
         offset="0"
         id="stop867" />
      <stop
         style="stop-color:#ffffff;stop-opacity:0;"
         offset="1"
         id="stop869" />
    </linearGradient>
    <linearGradient
       inkscape:collect="always"
       id="linearGradient863">
      <stop
         style="stop-color:#000000;stop-opacity:1;"
         offset="0"
         id="stop859" />
      <stop
         style="stop-color:#000000;stop-opacity:0;"
         offset="1"
         id="stop861" />
    </linearGradient>
    <linearGradient
       inkscape:collect="always"
       id="linearGradient843">
      <stop
         style="stop-color:#10418d;stop-opacity:1"
         offset="0"
         id="stop839" />
      <stop
         style="stop-color:#3065ba;stop-opacity:1"
         offset="1"
         id="stop841" />
    </linearGradient>
    <linearGradient
       inkscape:collect="always"
       xlink:href="#linearGradient843"
       id="linearGradient845"
       x1="31.391304"
       y1="43.239132"
       x2="22.804348"
       y2="7.5869565"
       gradientUnits="userSpaceOnUse"
       gradientTransform="matrix(1.05,0,0,1.05,-0.20000001,-0.20000001)" />
    <linearGradient
       inkscape:collect="always"
       xlink:href="#linearGradient863"
       id="linearGradient865"
       x1="21.567127"
       y1="15.936453"
       x2="38.477684"
       y2="32.847012"
       gradientUnits="userSpaceOnUse"
       gradientTransform="matrix(1.05,0,0,1.05,-0.20000001,-0.20000001)" />
    <linearGradient
       inkscape:collect="always"
       xlink:href="#linearGradient871"
       id="linearGradient873"
       x1="19.640751"
       y1="9.8525467"
       x2="27.559753"
       y2="39.40667"
       gradientUnits="userSpaceOnUse"
       gradientTransform="matrix(1.05,0,0,1.05,-0.20000001,-0.20000001)" />
  </defs>
  <sodipodi:namedview
     pagecolor="#ffffff"
     bordercolor="#666666"
     borderopacity="1"
     objecttolerance="10"
     gridtolerance="10"
     guidetolerance="10"
     inkscape:pageopacity="0"
     inkscape:pageshadow="2"
     inkscape:window-width="1920"
     inkscape:window-height="998"
     id="namedview14"
     showgrid="false"
     inkscape:zoom="7.46"
     inkscape:cx="24.061662"
     inkscape:cy="25.603217"
     inkscape:window-x="0"
     inkscape:window-y="0"
     inkscape:window-maximized="1"
     inkscape:current-layer="svg12"
     inkscape:showpageshadow="2"
     inkscape:pagecheckerboard="0"
     inkscape:deskcolor="#d1d1d1">
    <inkscape:grid
       type="xygrid"
       id="grid847"
       originx="0"
       originy="0"
       spacingy="1"
       spacingx="1"
       units="px"
       visible="false" />
  </sodipodi:namedview>
  <g
     id="g1"
     transform="translate(-1,-1)">
    <rect
       style="fill:url(#linearGradient845);fill-opacity:1;stroke-width:1.05"
       width="41.999985"
       height="41.999985"
       x="4"
       y="4"
       rx="20.999992"
       ry="20.999992"
       id="rect2" />
    <path
       style="opacity:0.2;stroke-width:1.05"
       d="M 4.0122845,24.475 C 4.00798,24.650345 4,24.8236 4,25 4,36.634 13.366,46 25,46 36.634,46 46,36.634 46,25 46,24.8236 45.991819,24.650345 45.9874,24.475 45.7102,35.8633 36.4576,44.95 25,44.95 13.5424,44.95 4.2898,35.8633 4.0126,24.475 Z"
       id="path6"
       inkscape:connector-curvature="0" />
    <path
       style="opacity:0.3;fill:url(#linearGradient865);fill-opacity:1;stroke:none;stroke-width:2.1;stroke-linecap:round;stroke-linejoin:round;stroke-miterlimit:4;stroke-dasharray:none;stroke-dashoffset:0;stroke-opacity:1;paint-order:normal"
       d="m 36.533594,15.80225 c 0.768578,0.758159 1.21232,1.779476 1.021292,2.89775 l -2.51016,14.7 c -0.391775,2.293343 -1.866968,4.2 -4.185646,4.2 H 19.14092 c -1.153344,0 -2.096951,-0.47404 -2.80342,-1.230472 l 0.0021,0.01842 9.589454,9.589454 C 37.040593,45.497413 45.857215,36.462878 45.993845,25.2625 Z"
       id="rect849" />
    <path
       style="fill:url(#linearGradient873);fill-opacity:1;stroke-width:1.05"
       d="m 16.628341,14.5 c -2.31867,0 -4.575547,1.906657 -4.183773,4.2 l 2.510267,14.7 c 0.391776,2.293343 1.867156,4.2 4.185825,4.2 h 11.71868 c 2.318669,0 3.79405,-1.906657 4.185825,-4.2 L 37.555432,18.7 C 37.947207,16.406657 35.69033,14.5 33.371659,14.5 Z M 25,19.75 a 4.2001831,4.2 0 0 1 4.20018,4.2 4.2001831,4.2 0 0 1 -2.100091,3.631929 V 32.35 c 0,0.5817 -0.468319,1.05 -1.050044,1.05 h -2.10009 c -0.581725,0 -1.050044,-0.4683 -1.050044,-1.05 V 27.581929 A 4.2001831,4.2 0 0 1 20.79982,23.95 4.2001831,4.2 0 0 1 25,19.75 Z"
       id="path10" />
  </g>
</svg>
