<?xml version="1.0" encoding="UTF-8" standalone="no"?>
<svg
   viewBox="0 0 64 64"
   version="1.1"
   id="svg4"
   sodipodi:docname="folder-network.svg"
   inkscape:version="1.4.2 (unknown)"
   xmlns:inkscape="http://www.inkscape.org/namespaces/inkscape"
   xmlns:sodipodi="http://sodipodi.sourceforge.net/DTD/sodipodi-0.dtd"
   xmlns="http://www.w3.org/2000/svg"
   xmlns:svg="http://www.w3.org/2000/svg">
  <sodipodi:namedview
     id="namedview4"
     pagecolor="#ffffff"
     bordercolor="#000000"
     borderopacity="0.25"
     inkscape:showpageshadow="2"
     inkscape:pageopacity="0.0"
     inkscape:pagecheckerboard="0"
     inkscape:deskcolor="#d1d1d1"
     inkscape:zoom="11.890625"
     inkscape:cx="32"
     inkscape:cy="32"
     inkscape:current-layer="svg4" />
  <defs
     id="defs3051">
    <style
       type="text/css"
       id="current-color-scheme">
      .ColorScheme-Text {
      color:#232629;
      }
      .ColorScheme-Accent {
      color:#3daee9;
      }
    </style>
  </defs>
  <path
     style="fill:currentColor"
     d="m 9,6.000034 c -3,0 -5,2 -4.992,5.197014 L 4,20 c -0.5255187,0 -1,0.363715 -1,1 l 0.008,0.197048 H 3.01 c -5e-5,0.004 -0.002,0.008 -0.002,0.01172 L 3,53 c 0,3 2,5 5,5 v 0 h 48 v 0 c 3,0 5,-2 5,-5 l 0.008,-31.791232 v -0.01172 L 61,17 c 0,-0.484427 -0.416433,-1 -1,-1 v 0 0 l 0.008,-0.802952 C 60,12 58,10 55,10 H 32 C 32,8 30,6 28,6.000034 Z"
     class="ColorScheme-Accent"
     id="path1" />
  <path
     style="fill-opacity:0.33"
     d="M 9,6 C 6,6 4,8 4.0000003,11 v 9 H 22 l 4,-4 h 34 v -1 0 0 c 0,-3 -2,-5 -5,-5 L 32,9.9999657 C 32,8 30,6 28,5.9999657 Z"
     id="path2" />
  <path
     style="fill-opacity:0.2"
     d="m 26,16 -6,3 H 4 v 1 H 22 Z M 5,57 c 0,0.416776 2,1 3,1 h 2 42 3 c 2.476706,0 4,-0.558829 4,-1 H 52 10 Z"
     class="ColorScheme-Text"
     id="path4" />
  <path
     id="path12"
     class="ColorScheme-Background"
     d="m 39,27 a 2,2 0 0 0 -2,2 2,2 0 0 0 2,2 2,2 0 0 0 2,-2 2,2 0 0 0 -2,-2 z m -3.5,3 A 0.5,0.5 0 0 0 35,30.5 0.5,0.5 0 0 0 35.5,31 0.5,0.5 0 0 0 36,30.5 0.5,0.5 0 0 0 35.5,30 Z m -3,2 A 0.5,0.5 0 0 0 32,32.5 0.5,0.5 0 0 0 32.5,33 0.5,0.5 0 0 0 33,32.5 0.5,0.5 0 0 0 32.5,32 Z m -3,2 A 0.5,0.5 0 0 0 29,34.5 0.5,0.5 0 0 0 29.5,35 0.5,0.5 0 0 0 30,34.5 0.5,0.5 0 0 0 29.5,34 Z M 25,35 a 2,2 0 0 0 -2,2 2,2 0 0 0 2,2 2,2 0 0 0 2,-2 2,2 0 0 0 -2,-2 z m 4.5,4 A 0.5,0.5 0 0 0 29,39.5 0.5,0.5 0 0 0 29.5,40 0.5,0.5 0 0 0 30,39.5 0.5,0.5 0 0 0 29.5,39 Z m 3,2 A 0.5,0.5 0 0 0 32,41.5 0.5,0.5 0 0 0 32.5,42 0.5,0.5 0 0 0 33,41.5 0.5,0.5 0 0 0 32.5,41 Z m 3,2 A 0.5,0.5 0 0 0 35,43.5 0.5,0.5 0 0 0 35.5,44 0.5,0.5 0 0 0 36,43.5 0.5,0.5 0 0 0 35.5,43 Z m 3.5,0 a 2,2 0 0 0 -2,2 2,2 0 0 0 2,2 2,2 0 0 0 2,-2 2,2 0 0 0 -2,-2 z"
     style="color:#eff0f1;fill:#e5e5e5;fill-opacity:1;stroke:none" />
</svg>
