<?xml version="1.0" encoding="UTF-8" standalone="no"?>
<svg
   width="22"
   height="22"
   version="1"
   id="svg21"
   sodipodi:docname="org.freedesktop.Piper.svg"
   inkscape:version="1.3.2 (091e20ef0f, 2023-11-25)"
   xmlns:inkscape="http://www.inkscape.org/namespaces/inkscape"
   xmlns:sodipodi="http://sodipodi.sourceforge.net/DTD/sodipodi-0.dtd"
   xmlns="http://www.w3.org/2000/svg"
   xmlns:svg="http://www.w3.org/2000/svg">
  <defs
     id="defs21" />
  <sodipodi:namedview
     id="namedview21"
     pagecolor="#ffffff"
     bordercolor="#000000"
     borderopacity="0.25"
     inkscape:showpageshadow="2"
     inkscape:pageopacity="0.0"
     inkscape:pagecheckerboard="0"
     inkscape:deskcolor="#d1d1d1"
     inkscape:zoom="34.636364"
     inkscape:cx="10.985564"
     inkscape:cy="11"
     inkscape:window-width="1920"
     inkscape:window-height="994"
     inkscape:window-x="0"
     inkscape:window-y="0"
     inkscape:window-maximized="1"
     inkscape:current-layer="svg21" />
  <rect
     style="fill:#976e2e;stroke-width:0.87805"
     width="17.560978"
     height="15.80488"
     x="-19.640978"
     y="-18.902445"
     rx="0.8780489"
     ry="0.8780489"
     transform="matrix(0,-1,-1,0,0,0)"
     id="rect1" />
  <path
     style="opacity:0.1;stroke-width:0.87805"
     d="m 6.1707342,4.2751238 c -0.7296579,0 -1.3170729,0.5874146 -1.3170729,1.3170725 v 3.95122 1.3170737 1.317065 h 1.3170729 9.6585338 1.317071 V 10.86049 9.5434163 5.5921963 c 0,-0.7296579 -0.587404,-1.3170725 -1.317071,-1.3170725 z M 6.6097588,6.0312213 H 15.390243 V 9.9824409 10.421467 H 6.6097588 V 9.9824409 Z"
     id="path1" />
  <path
     style="opacity:0.1;fill:#ffffff;stroke-width:0.87805"
     d="m 3.9756128,2.0800013 c -0.486439,0 -0.878049,0.39161 -0.878049,0.878049 v 0.4390239 c 0,-0.4864383 0.39161,-0.8780482 0.878049,-0.8780482 H 18.024389 c 0.486446,0 0.87805,0.3916099 0.87805,0.8780482 V 2.9580503 c 0,-0.486439 -0.391604,-0.878049 -0.87805,-0.878049 z"
     id="path2" />
  <path
     style="opacity:0.2;stroke-width:0.87805"
     d="m 3.0975638,18.762926 v 0.439025 c 0,0.486446 0.39161,0.87805 0.878049,0.87805 H 18.024389 c 0.486446,0 0.87805,-0.391604 0.87805,-0.87805 v -0.439025 c 0,0.486446 -0.391604,0.87805 -0.87805,0.87805 H 3.9756128 c -0.486439,0 -0.878049,-0.391604 -0.878049,-0.87805 z"
     id="path3" />
  <path
     style="fill:#c3c3c3;stroke-width:0.87805"
     d="m 6.1707342,3.8360988 c -0.7296579,0 -1.3170729,0.587415 -1.3170729,1.3170729 v 3.9512196 1.3170757 1.317064 h 1.3170729 9.6585338 1.317071 V 10.421467 9.1043913 5.1531717 c 0,-0.7296579 -0.587404,-1.3170729 -1.317071,-1.3170729 z m 0.4390246,1.7560975 h 8.7804842 v 3.95122 0.4390246 H 6.6097588 V 9.5434163 Z"
     id="path4" />
  <path
     style="opacity:0.2;fill:#ffffff;stroke-width:0.87805"
     d="m 6.1707342,3.8360988 c -0.7296579,0 -1.3170729,0.587415 -1.3170729,1.3170729 v 0.4390246 c 0,-0.7296579 0.587415,-1.3170725 1.3170729,-1.3170725 h 9.6585338 c 0.729667,0 1.317071,0.5874146 1.317071,1.3170725 V 5.1531717 c 0,-0.7296579 -0.587404,-1.3170729 -1.317071,-1.3170729 z M 6.6097588,9.9824409 V 10.421467 H 15.390243 V 9.9824409 Z"
     id="path5" />
  <rect
     style="fill:#a4a4a4;stroke-width:0.87805"
     width="1.7560978"
     height="3.95122"
     x="10.121955"
     y="11.299505"
     id="rect5" />
  <path
     style="fill:none;stroke:#c3c3c3;stroke-width:0.87805;stroke-linecap:round"
     d="M 9.6841911,12.177555 10.123216,9.5434163"
     id="path6" />
  <path
     style="fill:none;stroke:#c3c3c3;stroke-width:0.87805;stroke-linecap:round"
     d="m 11.440294,12.177555 0.43902,-2.6341387"
     id="path7" />
  <path
     style="fill:none;stroke:#c3c3c3;stroke-width:0.87805;stroke-linecap:round"
     d="M 13.19638,12.177555 13.635405,9.5434163"
     id="path8" />
  <path
     style="opacity:0.2;stroke-width:0.87805"
     d="m 9.2387597,14.811705 c -0.433951,0 -0.8729034,0.438986 -0.8729034,0.886632 v 3.503614 h 2.6341517 a 0.87804875,0.87804875 0 0 1 0.878046,-0.87805 0.87804875,0.87804875 0 0 1 0.07544,0.0039 1.3170729,1.3170729 0 0 1 1.241619,-0.881473 1.3170729,1.3170729 0 0 1 0.43902,0.07635 v -2.710537 z"
     id="path9" />
  <path
     style="fill:#ffb22b;stroke-width:0.87805"
     d="m 9.2387597,14.37268 c -0.433951,0 -0.8729034,0.438987 -0.8729034,0.886632 v 3.503614 h 2.6341517 a 0.87804875,0.87804875 0 0 1 0.878046,-0.87805 0.87804875,0.87804875 0 0 1 0.07544,0.0039 1.3170729,1.3170729 0 0 1 1.241619,-0.881472 1.3170729,1.3170729 0 0 1 0.43902,0.07636 v -2.71052 z"
     id="path10" />
  <path
     style="opacity:0.2;stroke-width:0.87805"
     d="m 13.634143,15.25073 a 0.87804875,0.87804875 0 0 0 -0.878049,0.878046 0.87804875,0.87804875 0 0 0 0.878049,0.87805 z"
     id="path11" />
  <circle
     style="opacity:0.2;stroke-width:0.87805"
     cx="9.6829233"
     cy="17.44586"
     r="0.43902445"
     id="circle11" />
  <path
     style="opacity:0.2;stroke-width:0.87805"
     d="m 9.2387597,14.37268 c -0.433951,0 -0.8729034,0.438987 -0.8729034,0.886632 v 0.64824 a 1.0975604,1.0975604 0 0 0 0.6585371,0.221224 1.0975604,1.0975604 0 0 0 1.0975606,-1.09755 1.0975604,1.0975604 0 0 0 -0.2203687,-0.658546 z"
     id="path12" />
  <path
     style="opacity:0.1;stroke-width:0.87805"
     d="m 13.634143,15.25073 a 0.87804875,0.87804875 0 0 0 -0.878049,0.878046 0.87804875,0.87804875 0 0 0 0.0292,0.217798 0.87804875,0.87804875 0 0 1 0.848898,-0.65682 z"
     id="path13" />
  <path
     style="opacity:0.1;stroke-width:0.87805"
     d="m 9.6829292,17.006827 a 0.43902446,0.43902446 0 0 0 -0.4390233,0.439025 0.43902446,0.43902446 0 0 0 0.059159,0.219521 0.43902446,0.43902446 0 0 1 0.379859,-0.219521 0.43902446,0.43902446 0 0 1 0.3798581,0.219521 0.43902446,0.43902446 0 0 0 0.05916,-0.219521 0.43902446,0.43902446 0 0 0 -0.4390245,-0.439025 z"
     id="path14" />
  <path
     style="opacity:0.1;stroke-width:0.87805"
     d="m 9.2387597,14.37268 c -0.433951,0 -0.8729034,0.438987 -0.8729034,0.886632 v 0.439025 c 0,-0.447646 0.4389524,-0.886632 0.8729034,-0.886632 h 0.6628256 a 1.0975604,1.0975604 0 0 1 0.1972167,0.437318 1.0975604,1.0975604 0 0 0 0.02315,-0.217797 1.0975604,1.0975604 0 0 0 -0.2203685,-0.658546 z"
     id="path15" />
  <path
     style="opacity:0.2;fill:none;stroke:#000000;stroke-width:0.87805;stroke-linecap:round"
     d="M 8.8061429,12.616571 9.2451668,9.9824188"
     id="path16" />
  <path
     style="fill:none;stroke:#eaeaea;stroke-width:0.87805;stroke-linecap:round"
     d="M 8.8061429,12.177555 9.2451668,9.5434163"
     id="path17" />
  <path
     style="opacity:0.2;fill:none;stroke:#000000;stroke-width:0.87805;stroke-linecap:round"
     d="M 10.562243,12.616571 11.00127,9.9824188"
     id="path18" />
  <path
     style="fill:none;stroke:#eaeaea;stroke-width:0.87805;stroke-linecap:round"
     d="M 10.562243,12.177555 11.00127,9.5434163"
     id="path19" />
  <path
     style="opacity:0.2;fill:none;stroke:#000000;stroke-width:0.87805;stroke-linecap:round"
     d="M 12.318334,12.616571 12.757355,9.9824188"
     id="path20" />
  <path
     style="fill:none;stroke:#eaeaea;stroke-width:0.87805;stroke-linecap:round"
     d="M 12.318334,12.177555 12.757355,9.5434163"
     id="path21" />
</svg>
