<?xml version="1.0" encoding="UTF-8" standalone="no"?>
<svg
   viewBox="0 0 16 16"
   id="svg6"
   version="1.1"
   sodipodi:docname="system-file-manager-symbolic.svg"
   inkscape:version="1.4.2 (unknown)"
   xmlns:inkscape="http://www.inkscape.org/namespaces/inkscape"
   xmlns:sodipodi="http://sodipodi.sourceforge.net/DTD/sodipodi-0.dtd"
   xmlns="http://www.w3.org/2000/svg"
   xmlns:svg="http://www.w3.org/2000/svg">
  <sodipodi:namedview
     id="namedview1"
     pagecolor="#ffffff"
     bordercolor="#000000"
     borderopacity="0.25"
     inkscape:showpageshadow="2"
     inkscape:pageopacity="0.0"
     inkscape:pagecheckerboard="0"
     inkscape:deskcolor="#d1d1d1"
     inkscape:zoom="48"
     inkscape:cx="8"
     inkscape:cy="8"
     inkscape:current-layer="svg6" />
  <defs
     id="defs3051">
    <style
       type="text/css"
       id="current-color-scheme">
      .ColorScheme-Text {
        color:#232629;
      }
      </style>
  </defs>
  <path
     style="fill:currentColor;fill-opacity:1;stroke:none"
     d="M 3.94,2 C 2.8671899,1.9966665 1.9966665,2.8671899 2,3.94 v 8.212 C 2,13.176 2.824,14 3.848,14 h 8.304 C 13.17354,14.0022 14.002218,13.17354 14,12.152 V 5.848 C 14.002218,4.8264603 13.17354,3.9977817 12.152,4 H 9.008 L 7.008,2 7,2.008 V 2 Z M 3.82,3 H 6.592 L 7.594,4 H 7 V 4.008 L 6.992,4 6.84,4.152 4.992,6 H 3 V 3.82 C 3,3.365 3.365,3 3.82,3 Z M 13,9 v 0 0 0 0 0 0 z m 0,0 v 0 0 z"
     class="ColorScheme-Text"
     id="path1"
     sodipodi:nodetypes="ccsscccccccccsccccccccsscccccccccccccc" />
</svg>
