<?xml version="1.0" encoding="UTF-8" standalone="no"?>
<svg
   viewBox="0 0 16 16"
   version="1.1"
   id="svg1"
   sodipodi:docname="address-book-new.svg"
   inkscape:version="1.3.2 (091e20ef0f, 2023-11-25)"
   xmlns:inkscape="http://www.inkscape.org/namespaces/inkscape"
   xmlns:sodipodi="http://sodipodi.sourceforge.net/DTD/sodipodi-0.dtd"
   xmlns="http://www.w3.org/2000/svg"
   xmlns:svg="http://www.w3.org/2000/svg">
  <sodipodi:namedview
     id="namedview1"
     pagecolor="#ffffff"
     bordercolor="#999999"
     borderopacity="1"
     inkscape:showpageshadow="2"
     inkscape:pageopacity="0"
     inkscape:pagecheckerboard="0"
     inkscape:deskcolor="#d1d1d1"
     inkscape:zoom="48.25"
     inkscape:cx="8"
     inkscape:cy="8"
     inkscape:window-width="1920"
     inkscape:window-height="1004"
     inkscape:window-x="0"
     inkscape:window-y="0"
     inkscape:window-maximized="1"
     inkscape:current-layer="svg1" />
  <defs
     id="defs3051">
    <style
       type="text/css"
       id="current-color-scheme">.ColorScheme-Text {color:#fcfcfc;}</style>
  </defs>
  <path
     style="fill:#000000;fill-opacity:1;stroke:none"
     d="M 5,2 C 5,2 3,2 3,4 H 2 v 2 h 1 v 4 H 2 v 2 h 1 c 0,2 2,2 2,2 h 7 c 0,0 2,0 2,-2 V 4 C 14,2 12,2 12,2 Z M 4,4 C 4,3 5,3 5,3 V 13 C 5,13 4,13 4,12 4,11 4,5 4,4 Z M 6,3 h 6 c 0,0 1,0 1,1 v 8 c 0,1 -1,1 -1,1 H 6 Z"
     class="ColorScheme-Text"
     id="path1" />
</svg>
