<?xml version="1.0" encoding="UTF-8" standalone="no"?>
<svg
   version="1.1"
   viewBox="0 0 24 24"
   width="24"
   height="24"
   id="svg1"
   sodipodi:docname="document-open-recent.svg"
   inkscape:version="1.3.2 (091e20ef0f, 2023-11-25)"
   xmlns:inkscape="http://www.inkscape.org/namespaces/inkscape"
   xmlns:sodipodi="http://sodipodi.sourceforge.net/DTD/sodipodi-0.dtd"
   xmlns="http://www.w3.org/2000/svg"
   xmlns:svg="http://www.w3.org/2000/svg">
  <sodipodi:namedview
     id="namedview1"
     pagecolor="#ffffff"
     bordercolor="#999999"
     borderopacity="1"
     inkscape:showpageshadow="2"
     inkscape:pageopacity="0"
     inkscape:pagecheckerboard="0"
     inkscape:deskcolor="#d1d1d1"
     inkscape:zoom="31.833333"
     inkscape:cx="12"
     inkscape:cy="12"
     inkscape:window-width="1920"
     inkscape:window-height="996"
     inkscape:window-x="0"
     inkscape:window-y="0"
     inkscape:window-maximized="1"
     inkscape:current-layer="svg1" />
  <defs
     id="defs1">
    <style
       type="text/css"
       id="current-color-scheme">.ColorScheme-Text {color:#fcfcfc;}</style>
  </defs>
  <g
     transform="translate(1,1)"
     id="g1"
     style="fill:#000000">
    <path
       style="fill:#000000;fill-opacity:1;stroke:none"
       d="m 14,11 c -2.215995,0 -4,1.784005 -4,4 0,2.215995 1.784005,4 4,4 2.215995,0 4,-1.784005 4,-4 0,-2.215995 -1.784005,-4 -4,-4 m 0,1 c 1.661995,0 3,1.338005 3,3 0,1.661995 -1.338005,3 -3,3 -1.661995,0 -3,-1.338005 -3,-3 0,-1.661995 1.338005,-3 3,-3 m -1,1 v 3 h 2 V 15 H 14 V 13 H 13 M 4,6 c 0,3 0,7 0,10 0,3 3,3 3,3 h 3 V 18 H 7 C 7,18 5,18 5,16 5,14 5,8 5,6 5,4 7,4 7,4 h 6 v 4 h 4 v 3 h 1 V 6.9921875 L 14.007812,3 14,3.0097656 V 3 H 7 C 7,3 4,3 4,6 Z"
       class="ColorScheme-Text"
       id="path1" />
  </g>
</svg>
