<?xml version="1.0" encoding="UTF-8" standalone="no"?>
<svg
   viewBox="0 0 16 16"
   version="1.1"
   id="svg1"
   sodipodi:docname="folder-download.svg"
   inkscape:version="1.3.2 (091e20ef0f, 2023-11-25)"
   xmlns:inkscape="http://www.inkscape.org/namespaces/inkscape"
   xmlns:sodipodi="http://sodipodi.sourceforge.net/DTD/sodipodi-0.dtd"
   xmlns="http://www.w3.org/2000/svg"
   xmlns:svg="http://www.w3.org/2000/svg">
  <sodipodi:namedview
     id="namedview1"
     pagecolor="#ffffff"
     bordercolor="#999999"
     borderopacity="1"
     inkscape:showpageshadow="2"
     inkscape:pageopacity="0"
     inkscape:pagecheckerboard="0"
     inkscape:deskcolor="#d1d1d1"
     inkscape:zoom="47.75"
     inkscape:cx="8"
     inkscape:cy="8"
     inkscape:window-width="1920"
     inkscape:window-height="996"
     inkscape:window-x="0"
     inkscape:window-y="0"
     inkscape:window-maximized="1"
     inkscape:current-layer="svg1" />
  <defs
     id="defs3051">
    <style
       type="text/css"
       id="current-color-scheme">
      .ColorScheme-Text {
        color:#eff0f1;
      }
      </style>
  </defs>
  <path
     style="fill:#000000;fill-opacity:1;stroke:none"
     d="M 6 2 L 6 3 L 6 6 L 7 6 L 7 3 L 9 3 L 9 6 L 10 6 L 10 3 L 10 2 L 6 2 z M 3.7070312 6 L 3 6.7070312 L 6.2929688 10 L 8 11.707031 L 9.7070312 10 L 13 6.7070312 L 12.292969 6 L 9 9.2929688 L 8 10.292969 L 7 9.2929688 L 3.7070312 6 z M 2 12 L 2 14 L 3 14 L 14 14 L 14 13 L 14 12 L 13 12 L 13 13 L 3 13 L 3 12 L 2 12 z "
     id="rect4099"
     class="ColorScheme-Text" />
</svg>
