<?xml version="1.0" encoding="UTF-8" standalone="no"?>
<svg
   viewBox="0 0 16 16"
   version="1.1"
   id="svg1"
   sodipodi:docname="go-home.svg"
   inkscape:version="1.3.2 (091e20ef0f, 2023-11-25)"
   xmlns:inkscape="http://www.inkscape.org/namespaces/inkscape"
   xmlns:sodipodi="http://sodipodi.sourceforge.net/DTD/sodipodi-0.dtd"
   xmlns="http://www.w3.org/2000/svg"
   xmlns:svg="http://www.w3.org/2000/svg">
  <sodipodi:namedview
     id="namedview1"
     pagecolor="#ffffff"
     bordercolor="#999999"
     borderopacity="1"
     inkscape:showpageshadow="2"
     inkscape:pageopacity="0"
     inkscape:pagecheckerboard="0"
     inkscape:deskcolor="#d1d1d1"
     inkscape:zoom="48.25"
     inkscape:cx="8"
     inkscape:cy="8"
     inkscape:window-width="1920"
     inkscape:window-height="1004"
     inkscape:window-x="0"
     inkscape:window-y="0"
     inkscape:window-maximized="1"
     inkscape:current-layer="svg1" />
  <defs
     id="defs3051">
    <style
       type="text/css"
       id="current-color-scheme">.ColorScheme-Text {color:#fcfcfc;}</style>
  </defs>
  <path
     style="fill:#000000;fill-opacity:1;stroke:none"
     d="M 8,2 7.2929688,2.6992188 7.296875,2.703125 2,7.9980469 V 8 9 H 3.0078125 C 3.0078125,9 3,10 3,12 c 0,2 2,2 2,2 h 6 c 0,0 2,0 2,-2 0,-2 0,-3 0,-3 h 1 V 8 7.9980469 L 12.857422,6.8554688 12.15625,7.5566406 12.599609,8 H 12 c 0,0 0,3 0,4 0,1 -1,1 -1,1 H 9 V 10 H 7 v 3 H 5 C 5,13 4,13 4,12 4,11 4,9 4,9 V 8 H 3.4003906 L 7.9980469,3.4042969 8,3.40625 8.0019531,3.4042969 9.4433594,4.84375 10.144531,4.1425781 8.703125,2.703125 8.707035,2.699215 Z m 3,1 v 3 h 1.007812 V 3 Z"
     class="ColorScheme-Text"
     id="path1" />
</svg>
