<?xml version="1.0" encoding="UTF-8" standalone="no"?>
<svg
   viewBox="0 0 64 64"
   version="1.1"
   id="svg4"
   sodipodi:docname="folder-design.svg"
   inkscape:version="1.4.2 (unknown)"
   xmlns:inkscape="http://www.inkscape.org/namespaces/inkscape"
   xmlns:sodipodi="http://sodipodi.sourceforge.net/DTD/sodipodi-0.dtd"
   xmlns="http://www.w3.org/2000/svg"
   xmlns:svg="http://www.w3.org/2000/svg">
  <sodipodi:namedview
     id="namedview4"
     pagecolor="#ffffff"
     bordercolor="#000000"
     borderopacity="0.25"
     inkscape:showpageshadow="2"
     inkscape:pageopacity="0.0"
     inkscape:pagecheckerboard="0"
     inkscape:deskcolor="#d1d1d1"
     inkscape:zoom="11.890625"
     inkscape:cx="32"
     inkscape:cy="32"
     inkscape:current-layer="svg4" />
  <defs
     id="defs3051">
    <style
       type="text/css"
       id="current-color-scheme">
      .ColorScheme-Text {
      color:#232629;
      }
      .ColorScheme-Accent {
      color:#3daee9;
      }
    </style>
  </defs>
  <path
     style="fill:currentColor"
     d="m 9,6.000034 c -3,0 -5,2 -4.992,5.197014 L 4,20 c -0.5255187,0 -1,0.363715 -1,1 l 0.008,0.197048 H 3.01 c -5e-5,0.004 -0.002,0.008 -0.002,0.01172 L 3,53 c 0,3 2,5 5,5 v 0 h 48 v 0 c 3,0 5,-2 5,-5 l 0.008,-31.791232 v -0.01172 L 61,17 c 0,-0.484427 -0.416433,-1 -1,-1 v 0 0 l 0.008,-0.802952 C 60,12 58,10 55,10 H 32 C 32,8 30,6 28,6.000034 Z"
     class="ColorScheme-Accent"
     id="path1" />
  <path
     style="fill-opacity:0.33"
     d="M 9,6 C 6,6 4,8 4.0000003,11 v 9 H 22 l 4,-4 h 34 v -1 0 0 c 0,-3 -2,-5 -5,-5 L 32,9.9999657 C 32,8 30,6 28,5.9999657 Z"
     id="path2" />
  <path
     style="fill-opacity:0.2"
     d="m 26,16 -6,3 H 4 v 1 H 22 Z M 5,57 c 0,0.416776 2,1 3,1 h 2 42 3 c 2.476706,0 4,-0.558829 4,-1 H 52 10 Z"
     class="ColorScheme-Text"
     id="path4" />
  <path
     style="color:#232629;fill:#e5e5e5;fill-opacity:1;stroke:none;stroke-width:0.766658"
     d="m 32.223764,26 c -0.389539,0 -0.708456,0.313474 -0.708456,0.701853 v 0.641998 c -1.255242,0.321369 -2.15837,1.431371 -2.15837,2.765521 0,0.933915 0.447213,1.765059 1.145232,2.288143 0.0743,0.08758 0.120073,0.198271 0.120073,0.321749 0,0.03592 3.4e-5,0.07107 -0.0045,0.104749 l -3.102478,6.55614 H 26.23191 c -0.209406,0 -0.381243,0.168338 -0.381243,0.377123 v 0.002 c 0,0.208782 0.171837,0.377119 0.381243,0.377119 h 0.926124 l -2.395456,5.062615 c -0.150866,0.321034 -0.07582,0.692101 0.160598,0.932316 L 24,48 25.458929,46.424192 c 0.387286,0.101027 0.801498,-0.08303 0.977128,-0.453439 l 2.761756,-5.834832 h 2.427047 v 0.501323 c 0,0.318789 0.260383,0.576155 0.582371,0.576155 h 0.03149 c 0.32199,0 0.583877,-0.257366 0.583877,-0.576155 V 40.13592 h 2.482582 l 2.760257,5.834832 c 0.173388,0.372671 0.590592,0.554462 0.975627,0.453439 l 1.458932,1.575808 -0.920086,-1.869122 c 0.23417,-0.240212 0.309966,-0.609039 0.159102,-0.932317 l -2.395531,-5.06264 h 0.869057 c 0.211661,0 0.381239,-0.168331 0.381239,-0.377114 0,-0.208785 -0.169578,-0.376394 -0.381239,-0.37861 H 36.986261 L 33.885273,32.82405 c -0.0046,-0.03366 -0.0046,-0.06883 -0.0046,-0.104757 0,-0.121227 0.04501,-0.234186 0.11708,-0.321745 0.69802,-0.523079 1.148234,-1.354228 1.148234,-2.288138 0,-1.352404 -0.945605,-2.476099 -2.21542,-2.780488 v -0.62703 c 0,-0.388378 -0.315158,-0.701858 -0.706946,-0.701858 z m 0.673929,2.588934 c 0.597256,0.250144 1.016151,0.836343 1.016151,1.520438 0,0.911462 -0.742876,1.650634 -1.661563,1.650634 -0.923178,0 -1.661555,-0.739172 -1.661555,-1.650634 0,-0.661938 0.394663,-1.229238 0.963616,-1.492003 0.08434,0.292678 0.345484,0.511804 0.669424,0.511804 0.332329,0 0.598879,-0.232373 0.673927,-0.540239 z m -0.658918,5.481652 h 0.01354 0.01354 c 0.0901,0 0.169605,0.04192 0.219148,0.104762 l 2.463066,5.204805 h -2.125361 v -0.609074 c 0,-0.321028 -0.261876,-0.579145 -0.583867,-0.579145 h -0.03149 c -0.321982,10e-7 -0.58237,0.260362 -0.58237,0.579145 v 0.609074 h -2.069816 l 2.463064,-5.204805 c 0.05183,-0.06511 0.130572,-0.104762 0.220637,-0.104762 z"
     class="ColorScheme-Text"
     id="path8133" />
</svg>
